<ttFont>
<head>
    <!-- Most of this table will be recalculated by the compiler -->
    <tableVersion value="1.0"/>
    <fontRevision value="1.003"/>
    <checkSumAdjustment value="0x90f117bf"/>
    <magicNumber value="0x5f0f3cf5"/>
    <flags value="00000000 00000011"/>
    <unitsPerEm value="1000"/>
    <created value="Sat Mar  7 21:19:41 2015"/>
    <modified value="Thu Jan  1 00:00:00 1970"/>
    <xMin value="-166"/>
    <yMin value="-364"/>
    <xMax value="1459"/>
    <yMax value="1028"/>
    <macStyle value="00000000 00000000"/>
    <lowestRecPPEM value="6"/>
    <fontDirectionHint value="2"/>
    <indexToLocFormat value="0"/>
    <glyphDataFormat value="0"/>
  </head>
          <CharString index="0">
            rmoveto
            -71 66 -27 -34 -28 -35 -27 -34 rlinecurve
            71 -66 28 34 27 34 27 35 rlinecurve
            return
          </CharString>
          <CharString index="1">
            rrcurveto
            -1 vlineto
            return
          </CharString>
          <CharString index="2">
            rrcurveto
            -104 callgsubr
            return
          </CharString>
          <CharString index="3">
            rmoveto
            -21 37 -26 39 -32 38 -8 -14 -7 -14 -7 -15 33 -40 34 -41 18 -54 rrcurveto
            -1 0 0 1 14 3 23 9 4 vhcurveto
            17 39 18 35 27 31 rrcurveto
            13 3 14 4 14 vhcurveto
            -3 hlineto
            -27 -35 -25 -36 -20 -42 rrcurveto
            return
          </CharString>
          <CharString index="4">
            -21 25 -85 callsubr
            -31 -6 return
          </CharString>
          <CharString index="5">
            10 -28 23 -60 -2 -33 return
          </CharString>
          <CharString index="6">
            74 117 -22 321 rlineto
            return
          </CharString>
          <CharString index="7">
            0 -73 -32 vhcurveto
            -49 -21 -42 -15 -36 -7 -72 -16 -80 -8 -80 -6 -157 -2 -120 36 -85 9 callsubr
            42 90 28 90 28 86 14 82 3 53 113 26 callgsubr
            -114 -57 -80 -102 -79 -101 return
          </CharString>
          <CharString index="8">
            -123 92 -100 43 -47 76 -30 109 -14 return
          </CharString>
          <CharString index="9">
            21 -25 57 -8 vhcurveto
            -3 return
          </CharString>
          <CharString index="10">
            -13 -35 -13 -43 -13 -50 1 -29 27 -14 28 -3 return
          </CharString>
          <CharString index="11">
            -158 -2 -120 return
          </CharString>
          <CharString index="12">
            rmoveto
            14 -40 18 -55 -1 -26 -50 -22 -89 -24 -60 -11 -74 -133 rcurveline
            56 15 105 22 46 24 29 15 25 22 21 24 rrcurveto
            122 145 -85 158 0 vvcurveto
            endchar
          </CharString>
          <CharString index="13">
            -79 -9 -6 -149 36 -62 28 -46 35 -71 -8 -75 4 3 2 3 1 4 12 45 22 44 -7 54 -15 56 -38 58 -20 51 return
          </CharString>
          <CharString index="14">
            22 callsubr
            11 17 return
          </CharString>
          <CharString index="15">
            rmoveto
            60 119 -64 -12 -64 -12 -64 -12 rlinecurve
            -60 -119 64 12 64 12 64 12 rlinecurve
            return
          </CharString>
          <CharString index="16">
            1 -29 27 -14 28 -3 return
          </CharString>
          <CharString index="17">
            9 -24 9 -24 -3 -16 -16 -7 return
          </CharString>
          <CharString index="18">
            35 -8 50 rrcurveto
            endchar
          </CharString>
          <CharString index="19">
            1 2 0 1 1 vvcurveto
            3 -3 return
          </CharString>
          <CharString index="20">
            -13 -35 -13 -42 -13 -50 1 return
          </CharString>
          <CharString index="21">
            2 2 2 rrcurveto
            endchar
          </CharString>
          <CharString index="22">
            -17 20 -24 7 -31 -6 return
          </CharString>
          <CharString index="23">
            242 16 rmoveto
            13 15 1 3 16 hvcurveto
            40 6 62 17 33 9 40 15 37 18 34 22 61 39 39 50 34 66 rrcurveto
            6 11 2 11 11 vvcurveto
            37 -32 33 -38 -38 -36 -17 -16 -17 vhcurveto
            -64 -60 -59 -64 -57 -67 -19 -4 -20 -3 -23 -2 -1 1 rcurveline
            14 32 10 23 5 16 rrcurveto
            1 2 0 4 6 vvcurveto
            4 0 1 -1 -1 -1 -1 46 callsubr
            -29 -16 -77 -13 -124 -8 -22 -132 rcurveline
            54 5 109 20 41 17 rrcurveto
            -1 -3 0 -3 -3 vvcurveto
            -15 20 -2 19 vhcurveto
            331 197 rmoveto
            -5 -2 -3 -4 -2 vhcurveto
            -57 -28 -67 -14 -71 -14 36 36 34 41 47 25 rrcurveto
            5 8 10 1 9 hhcurveto
            29 28 -17 -25 hvcurveto
            endchar
          </CharString>
          <CharString index="24">
            197 504 rmoveto
            21 -320 74 117 -21 321 rlineto
            198 -249 rmoveto
            -38 -36 -67 callsubr
            -59 -65 -58 -66 -27 -6 -59 -7 -90 -7 -106 callsubr
            -21 -128 rlineto
            2 1 0 1 2 hvcurveto
            -1 vlineto
            81 8 88 17 94 28 94 28 72 47 50 67 17 22 15 25 14 28 rrcurveto
            6 11 3 11 11 vvcurveto
            36 -32 34 -38 vhcurveto
            -31 -152 rmoveto
            -5 -2 -4 -4 -2 vhcurveto
            90 callgsubr
            38 47 26 rrcurveto
            5 8 9 2 9 hhcurveto
            29 29 -17 -25 hvcurveto
            endchar
          </CharString>
          <CharString index="25">
            rmoveto
            40 48 31 79 0 vvcurveto
            8 28 0 14 -3 42 -46 callgsubr
            63 -7 callsubr
            -117 rcurveline
            -60 -95 rlineto
            7 -100 12 -101 -102 vvcurveto
            -182 -92 -155 -29 -72 84 -47 54 30 58 46 83 -11 -3 -11 -8 -5 -8 -75 -115 -15 -81 11 -52 13 -59 43 -44 81 -8 130 -13 145 75 70 84 rrcurveto
            endchar
          </CharString>
          <CharString index="26">
            619 342 -31 callsubr
            return
          </CharString>
          <CharString index="27">
            -31 callsubr
            endchar
          </CharString>
          <CharString index="28">
            217 167 -71 callgsubr
          </CharString>
          <CharString index="29">
            -87 callsubr
            -29 27 -15 28 -3 return
          </CharString>
          <CharString index="30">
            59 23 35 13 35 2 34 2 34 -18 26 -39 19 return
          </CharString>
          <CharString index="31">
            68 callgsubr
            endchar
          </CharString>
          <CharString index="32">
            -74 callgsubr
            10 -22 -20 return
          </CharString>
          <CharString index="33">
            -6 7 -6 7 -2 7 4 8 11 24 14 return
          </CharString>
          <CharString index="34">
            15 35 15 35 11 30 7 23 rrcurveto
            1 2 return
          </CharString>
          <CharString index="35">
            -2 -53 callgsubr
            15 return
          </CharString>
          <CharString index="36">
            -63 -108 -63 -32 -117 rcurveline
            -60 return
          </CharString>
          <CharString index="37">
            -110 -64 -87 -48 -110 -64 return
          </CharString>
          <CharString index="38">
            -2 -3 -3 -3 -6 -3 return
          </CharString>
          <CharString index="39">
            -232 rcurveline
            -1 -15 -1 return
          </CharString>
          <CharString index="40">
            -17 -16 -17 hvcurveto
            -64 -60 return
          </CharString>
          <CharString index="41">
            1 2 3 8 7 13 12 return
          </CharString>
          <CharString index="42">
            rmoveto
            -24 -26 -16 -32 -27 hvcurveto
            return
          </CharString>
          <CharString index="43">
            10 -112 -102 vvcurveto
            endchar
          </CharString>
          <CharString index="44">
            -4 -15 hvcurveto
            -6 -5 return
          </CharString>
          <CharString index="45">
            4 8 -9 1 -3 return
          </CharString>
          <CharString index="46">
            19 46 25 74 40 return
          </CharString>
          <CharString index="47">
            26 -21 25 -17 20 return
          </CharString>
          <CharString index="48">
            -22 -41 -10 -19 -1 return
          </CharString>
          <CharString index="49">
            1 9 -4 3 -8 -5 return
          </CharString>
          <CharString index="50">
            38 23 hvcurveto
            23 38 12 return
          </CharString>
          <CharString index="51">
            -20 -34 -20 -34 return
          </CharString>
          <CharString index="52">
            371 46 rmoveto
            -1 -3 -1 -2 -3 vvcurveto
            -13 12 -7 24 vhcurveto
            4 hlineto
            32 1 32 4 32 7 52 10 49 18 48 23 75 37 53 62 40 77 66 callgsubr
            -38 -35 -17 -16 -17 vhcurveto
            -64 -60 -59 -64 -58 -66 rrcurveto
            -1 -1 -1 -1 hhcurveto
            -1 vlineto
            -1 -6 -14 -1 -10 hhcurveto
            -8 -6 1 3 -5 hvcurveto
            15 33 9 23 5 15 rrcurveto
            1 2 0 4 6 vvcurveto
            4 -1 2 -1 -1 -1 -2 -2 -2 vhcurveto
            -16 -38 -49 -20 -46 -12 rrcurveto
            -10 -35 -68 -12 -49 hhcurveto
            -10 hlineto
            -30 1 -26 5 -23 10 rrcurveto
            -25 11 -12 20 31 vvcurveto
            30 13 41 25 50 -95 callgsubr
            2 -1 1 -1 vhcurveto
            -2 hlineto
            -2 -2 -1 -2 -1 hvcurveto
            -16 -22 -23 -41 -32 -62 rrcurveto
            -21 -41 -11 -37 -32 vvcurveto
            -80 60 -17 81 80 98 22 23 53 vhcurveto
            358 162 rmoveto
            -5 -2 -3 -4 -2 vhcurveto
            -57 -27 -68 -15 -70 -14 36 37 34 39 47 26 rrcurveto
            5 8 10 1 9 hhcurveto
            29 28 -17 -25 hvcurveto
            endchar
          </CharString>
          <CharString index="53">
            590 306 rmoveto
            -7 5 -7 8 -7 5 -20 12 -17 2 -17 -8 -44 -23 -34 -33 -38 -29 -40 -31 -80 -49 -56 -19 rrcurveto
            -10 -29 -29 -5 -27 hhcurveto
            -27 -20 16 32 -14 hvcurveto
            -14 32 12 55 39 76 28 callsubr
            -11 -15 -16 -26 -21 -36 -21 -36 -15 -37 -10 -37 -8 -31 -3 -47 13 -29 rrcurveto
            -35 15 25 -17 35 hhcurveto
            35 33 5 12 29 hvcurveto
            43 18 38 22 33 28 33 28 33 26 35 25 10 7 10 9 10 9 13 12 31 17 22 -14 18 -15 3 -5 36 3 26 1 26 5 25 9 75 28 71 48 55 44 rrcurveto
            38 31 27 31 17 31 13 25 11 26 9 30 9 30 -7 26 -24 21 -44 37 -75 -44 -20 -26 -53 -69 -48 -74 -46 -75 -11 -4 -12 -5 -11 -4 rrcurveto
            -1 -7 -5 -2 -3 hhcurveto
            266 142 rmoveto
            9 -12 1 -10 -7 -5 -53 -37 -65 -25 -65 -24 30 43 28 43 41 33 24 18 41 -4 16 -20 rrcurveto
            endchar
          </CharString>
          <CharString index="54">
            496 315 rmoveto
            -50 3 -55 -23 -62 -48 -62 -48 -44 -42 -27 -35 -105 callgsubr
            17 21 18 19 18 19 37 38 64 48 52 12 rrcurveto
            1 hlineto
            35 13 24 -7 13 -29 46 callgsubr
            52 60 41 79 12 callgsubr
            -63 -57 -67 -23 -5 -14 6 -2 17 rrcurveto
            17 -2 -12 9 -21 hhcurveto
            310 43 -13 callsubr
          </CharString>
          <CharString index="55">
            274 37 rmoveto
            -5 -15 6 -10 18 -1 60 -5 78 28 45 14 40 15 37 -17 callsubr
            -57 -66 -4 -1 -9 -1 -14 -3 -21 -5 rcurveline
            15 33 9 24 5 15 rrcurveto
            1 1 0 4 6 vvcurveto
            6 -1 2 -4 -5 vhcurveto
            -9 -22 -14 -16 -20 -11 -27 -15 -34 -10 -41 -3 -41 -3 -28 -3 -17 -1 rrcurveto
            -1 hlineto
            -55 3 -31 16 -8 28 -13 -35 -13 -44 -13 -49 1 -15 6 -11 11 -7 26 -17 27 1 46 1 48 7 72 14 37 16 rrcurveto
            349 188 39 callgsubr
            33 38 47 26 29 15 40 -14 11 -20 rrcurveto
            endchar
          </CharString>
          <CharString index="56">
            430 223 rmoveto
            6 -2 2 -4 -5 vhcurveto
            -9 -22 -14 -17 -19 -11 -15 -8 -25 -9 -35 -10 -70 -20 -176 -33 -22 80 -101 callgsubr
            94 -9 116 28 67 28 -5 -15 9 -9 20 -2 rrcurveto
            20 -2 23 1 27 4 33 5 59 12 24 8 40 15 38 -17 callsubr
            -58 -66 -13 -3 -31 -4 -11 7 6 15 5 13 5 11 rrcurveto
            6 15 8 10 19 vvcurveto
            260 5 39 callgsubr
            34 38 47 26 29 15 39 -14 11 -20 rrcurveto
            endchar
          </CharString>
          <CharString index="57">
            411 254 rmoveto
            -14 -11 -22 -11 -28 -11 -28 -11 -12 10 4 33 1 7 -4 5 -9 1 -35 4 -33 -6 -32 -14 -32 -14 -29 -19 -26 -22 -19 -16 -22 -26 -24 -37 73 callgsubr
            24 35 19 25 12 16 rlinecurve
            12 16 21 17 32 21 26 17 56 34 -6 -53 -4 -34 15 -13 32 6 32 6 23 6 15 7 rrcurveto
            5 9 6 3 2 hhcurveto
            -4 1 2 -3 33 callsubr
            66 7 67 rrcurveto
            1 -1 1 -1 -1 vhcurveto
            -1 -1 -2 -2 -3 vvcurveto
            -12 -46 -31 -27 -49 -9 rrcurveto
            5 16 1 18 19 vvcurveto
            -1 5 0 1 -3 -5 -8 -14 -6 -21 -12 -9 rrcurveto
            endchar
          </CharString>
          <CharString index="58">
            462 574 rmoveto
            21 -321 74 118 -21 320 rlineto
            258 -279 rmoveto
            9 30 -8 25 -24 21 -44 37 -74 -43 -20 -26 -53 -69 -49 -73 -45 -76 -38 -15 -47 -19 -57 -22 -57 -22 -53 -13 -49 -5 -49 -5 -37 10 -26 24 -26 24 0 51 24 78 rrcurveto
            4 1 -1 2 -3 hhcurveto
            -3 -2 -1 -2 -1 hvcurveto
            -8 -16 -11 -27 -14 -36 -23 -59 -22 -83 27 -65 12 -28 27 -14 43 1 45 1 56 10 67 19 138 40 141 66 106 75 86 61 32 45 30 95 rrcurveto
            -90 -49 rmoveto
            10 -12 1 -9 -8 -5 -52 -37 -66 -26 -66 -24 30 43 28 44 41 32 24 18 42 -3 16 -21 rrcurveto
            endchar
          </CharString>
          <CharString index="59">
            368 242 rmoveto
            -9 vlineto
            -32 -29 -40 -24 -48 -19 rrcurveto
            -12 -31 -33 -6 -35 hhcurveto
            -20 -21 2 4 -21 hvcurveto
            -35 15 -17 21 29 vvcurveto
            10 2 12 5 12 vhcurveto
            18 49 20 40 18 40 74 -50 rcurveline
            16 28 0 1 16 28 11 19 10 19 11 20 -27 18 -26 18 -27 18 -15 8 rcurveline
            -17 -29 -21 -36 -16 -30 rrcurveto
            -59 -107 -28 -85 -62 vvcurveto
            -71 26 -49 42 -20 vhcurveto
            -9 19 21 -6 23 hhcurveto
            24 27 6 10 29 hvcurveto
            56 21 46 36 37 53 37 54 25 61 12 68 rrcurveto
            4 19 1 20 19 vvcurveto
            47 -11 45 -21 44 vhcurveto
            -54 -125 rlineto
            13 -42 12 -40 -54 vvcurveto
            endchar
          </CharString>
          <CharString index="60">
            317 499 rmoveto
            22 -321 -101 callsubr
            -352 -440 rmoveto
            -101 callgsubr
            44 -4 54 3 64 11 64 11 63 14 62 18 40 15 37 18 34 22 61 39 38 51 34 65 14 28 -3 26 -21 25 rrcurveto
            -85 callsubr
            -31 -6 -24 -10 -15 -15 -64 -60 -59 -63 -58 -67 -34 -8 -46 -3 -36 -2 rrcurveto
            -1 hlineto
            -67 -6 -81 3 -14 48 rrcurveto
            515 55 -99 callgsubr
            -8 -8 -4 -57 -27 -67 -15 -71 -13 36 36 34 30 callsubr
          </CharString>
          <CharString index="61">
            375 514 rmoveto
            21 -321 -101 callsubr
            260 -352 rmoveto
            14 28 -2 -60 callsubr
            -25 8 -31 -6 -31 -6 -24 -10 -15 -15 -64 -60 -60 -63 -57 -67 -38 -8 -37 -7 -39 -6 -49 -8 -47 -3 -46 3 -46 3 -26 14 -8 28 rrcurveto
            -66 callgsubr
            95 -9 212 44 71 23 46 15 42 19 40 23 67 40 43 53 36 70 rrcurveto
            -97 -33 16 callsubr
            34 40 47 25 -60 callgsubr
          </CharString>
          <CharString index="62">
            217 135 rmoveto
            27 -36 18 -24 33 3 49 27 rlinecurve
            5 9 4 2 2 hhcurveto
            -5 1 3 -2 67 callgsubr
            65 7 68 -2 6 -2 -2 -2 -9 -11 -46 -31 -28 -50 -9 5 19 2 18 -1 17 rrcurveto
            6 -1 0 -3 -6 vhcurveto
            -8 -14 -6 -21 -12 -9 -50 -38 -26 -11 -5 15 -5 15 -14 15 -22 13 -28 16 -27 2 -27 -10 -27 -10 -26 -17 -24 -24 -44 -44 -44 -71 -29 -56 rrcurveto
            -2 vlineto
            9 -44 29 42 34 41 40 37 rlinecurve
            40 37 35 5 30 -27 rrcurveto
            endchar
          </CharString>
          <CharString index="63">
            290 657 rmoveto
            22 -321 73 118 -22 321 rlineto
            206 -434 rmoveto
            17 22 16 26 17 30 17 30 -1 28 -103 callsubr
            -24 -10 -16 -14 -64 -60 -59 -64 -57 -67 -76 -17 -65 -35 -51 -56 -51 -56 -33 -63 -15 -70 -105 callsubr
            35 55 40 39 49 24 96 47 107 26 100 42 50 21 43 35 37 50 rrcurveto
            -43 49 rmoveto
            7 -14 0 -92 callgsubr
            37 34 39 47 26 29 16 39 -17 11 -19 rrcurveto
            endchar
          </CharString>
          <CharString index="64">
            351 308 rmoveto
            -18 255 -74 -110 18 -262 rlineto
            250 189 rmoveto
            -38 -35 -67 callsubr
            -59 -64 -58 -66 -27 -6 -79 -10 -129 -12 -106 callsubr
            -21 -128 123 13 109 20 94 28 rlinecurve
            94 28 72 46 50 67 17 22 16 25 14 28 5 callgsubr
            34 39 47 26 rrcurveto
            5 8 10 2 9 hhcurveto
            29 29 -18 -25 hvcurveto
            endchar
          </CharString>
          <CharString index="65">
            138 87 rmoveto
            -22 -18 -47 -17 -29 -10 -7 -17 rcurveline
            98 -25 18 25 24 42 11 32 rlinecurve
            12 30 6 31 33 vvcurveto
            9 vlineto
            -1 36 -9 33 -14 29 45 callsubr
            -7 2 -7 hhcurveto
            -11 -11 -6 -14 -10 hvcurveto
            -27 -36 -19 -47 -22 -41 rrcurveto
            -5 -9 -2 -10 -13 vvcurveto
            -2 vlineto
            -25 1 19 -10 24 hhcurveto
            25 23 14 11 13 hvcurveto
            1 1 1 0 1 hhcurveto
            6 5 -13 -24 7 hvcurveto
            8 -29 4 -17 1 -4 rrcurveto
            -1 -2 0 -1 -2 vvcurveto
            endchar
          </CharString>
          <CharString index="66">
            297 145 rmoveto
            57 16 46 30 35 44 35 44 27 49 20 54 -96 callgsubr
            -48 -56 -42 -68 -37 -83 -37 -7 -34 -8 -29 -10 -54 -18 -41 -56 -25 -55 rrcurveto
            87 callgsubr
            25 55 39 35 54 15 54 15 53 13 51 12 rrcurveto
            98 238 51 callgsubr
            -24 -12 -24 -6 -22 -72 callsubr
            28 31 11 rrcurveto
            endchar
          </CharString>
          <CharString index="67">
            -21 callgsubr
            endchar
          </CharString>
          <CharString index="68">
            rmoveto
            157 -86 273 169 84 130 26 39 7 38 -25 27 -18 19 -33 -1 -28 8 -160 45 117 73 49 -15 20 32 11 39 17 36 rrcurveto
            9 4 -14 1 -4 hhcurveto
            -35 -1 -28 -29 -19 -18 -42 -40 -83 -134 16 -56 15 -54 64 -20 67 -7 -60 -39 -69 -30 -83 -15 -69 -13 -90 2 -45 35 -103 81 104 151 39 81 -62 callsubr
            -5 rrcurveto
            -67 -94 -160 -272 173 -95 rrcurveto
            endchar
          </CharString>
          <CharString index="69">
            438 500 rmoveto
            15 -167 -48 -12 -49 -26 -50 -42 rlinecurve
            -50 -42 -37 -35 -23 -31 -52 -67 -42 -79 -39 -78 -1 -3 rcurveline
            -8 -15 4 29 rlineto
            2 vlineto
            -53 -66 -3 -39 63 callgsubr
            6 -17 13 12 19 40 29 58 23 55 15 36 15 36 27 42 40 47 17 21 18 18 18 19 45 47 20 9 64 45 34 24 28 10 24 -6 22 -237 rcurveline
            71 return
          </CharString>
          <CharString index="70">
            402 251 rmoveto
            20 18 15 18 11 17 19 29 8 29 8 40 5 25 -13 13 -31 1 -31 1 -22 0 -12 -4 rrcurveto
            -10 -10 -8 -14 -10 hvcurveto
            -23 -33 -18 -48 -18 -38 -7 -2 -6 -1 -7 -3 -57 -22 -70 -15 -44 -32 -60 -43 -19 -78 -20 -96 -105 callsubr
            16 30 23 27 29 22 36 27 65 28 53 20 62 23 60 31 46 41 rrcurveto
            endchar
          </CharString>
          <CharString index="71">
            -24 150 rmoveto
            -5 -11 -6 -12 -5 -11 1 -6 2 -7 2 -5 14 -38 20 -33 2 -50 rrcurveto
            -8 vlineto
            -11 -1 -12 -2 -13 vhcurveto
            -1 -1 0 0 vhcurveto
            -1 1 -2 1 vhcurveto
            1 hlineto
            2 0 1 2 2 hvcurveto
            17 19 10 22 31 vvcurveto
            2 vlineto
            13 -2 12 -3 13 vhcurveto
            -10 38 -18 35 -13 35 rrcurveto
            2 -1 -1 1 -2 hhcurveto
            -1 hlineto
            -3 -1 -1 -1 -3 vvcurveto
            endchar
          </CharString>
          <CharString index="72">
            475 468 rmoveto
            3 13 -1 18 -19 2 -36 4 -46 9 -22 -20 -18 -17 -3 -1 -52 -115 -70 -18 rcurveline
            -73 -20 -60 -19 -34 -52 rrcurveto
            -25 -56 -16 -71 -73 vvcurveto
            1 -146 43 -124 19 -140 16 56 6 77 -8 66 -42 261 rcurveline
            -7 43 31 18 26 14 65 35 91 9 65 33 96 49 46 47 24 118 rrcurveto
            endchar
          </CharString>
          <CharString index="73">
            rmoveto
            -2 3 -24 78 2 78 -3 101 rlinecurve
            -1 23 -11 19 -18 9 -18 10 -21 -10 -10 -11 -27 -29 -95 -155 64 -29 37 -17 38 26 17 24 1 -87 11 -58 20 -70 rrcurveto
            -99 276 rmoveto
            -4 4 -2 5 3 5 8 15 7 18 24 -3 13 -3 10 -17 3 -11 rrcurveto
            -1 5 -9 -2 hhcurveto
            -16 -12 -32 -4 -16 12 rrcurveto
            endchar
          </CharString>
          <CharString index="74">
            346 234 rmoveto
            -82 -35 -57 -46 -34 -55 -34 -55 -37 -68 -39 -78 -9 -18 rcurveline
            4 30 rlineto
            -23 callsubr
            26 52 22 55 23 54 22 52 29 48 35 43 13 15 19 13 25 11 78 33 52 58 22 86 8 30 5 39 -2 39 return
          </CharString>
          <CharString index="75">
            rmoveto
            12 26 11 29 9 29 rrcurveto
            1 -2 4 -1 vhcurveto
            -34 69 -8 113 15 96 -69 -2 -54 17 -44 25 -8 -24 -12 -27 -9 -24 -2 -5 -1 -9 6 -3 41 -22 47 -15 61 -1 rrcurveto
            -6 -1 -11 -1 -5 vhcurveto
            -10 -98 17 -89 28 -69 1 -3 7 1 1 3 rrcurveto
            endchar
          </CharString>
          <CharString index="76">
            rmoveto
            13 -34 19 -64 -1 -23 rrcurveto
            0 -194 -97 -150 -87 -79 31 85 4 vhcurveto
            3 60 37 57 8 15 4 8 -8 5 -11 -16 rrcurveto
            -54 -81 -37 -81 -55 vvcurveto
            -165 178 14 11 166 205 106 108 53 vhcurveto
            60 120 -63 121 0 vvcurveto
            return
          </CharString>
          <CharString index="77">
            276 501 rmoveto
            4 -52 -4 callgsubr
            return
          </CharString>
          <CharString index="78">
            116 137 rmoveto
            -58 -61 rlineto
            -20 vlineto
            42 -14 21 -26 -86 callgsubr
            22 20 -57 callsubr
            37 -87 callgsubr
            return
          </CharString>
          <CharString index="79">
            -29 -14 -47 -16 -65 -18 rlinecurve
            -18 -65 -62 -10 -58 hhcurveto
            -1 hlineto
            -57 -44 14 28 -30 hvcurveto
            -13 12 -7 17 22 vvcurveto
            28 11 37 22 44 vhcurveto
            1 2 0 0 1 vvcurveto
            3 -3 1 -2 vhcurveto
            endchar
          </CharString>
          <CharString index="80">
            448 272 rmoveto
            -1 7 -9 1 -3 -8 -16 -35 -23 -28 -30 -20 -64 -43 -79 -27 -81 -25 -236 -73 96 -17 156 -4 101 -3 67 33 45 54 31 37 33 84 13 67 rrcurveto
            return
          </CharString>
          <CharString index="81">
            rmoveto
            -1 -1 -1 -1 -1 vvcurveto
            -2 1 -3 2 -1 vhcurveto
            59 -49 rlineto
            -1 1 2 -1 1 hhcurveto
            2 1 1 2 1 hvcurveto
            52 63 rlineto
            2 2 1 1 2 vvcurveto
            1 -2 2 -2 2 vhcurveto
            -58 return
          </CharString>
          <CharString index="82">
            91 77 rmoveto
            -22 -13 -37 -14 -25 -8 -7 -17 rcurveline
            98 -25 27 36 19 38 10 40 rlinecurve
            9 35 5 36 -2 37 -17 290 rcurveline
            -74 -117 6 -97 9 -119 1 -102 rlinecurve
            endchar
          </CharString>
          <CharString index="83">
            79 75 -3 callsubr
            -65 vmoveto
            1 callsubr
            endchar
          </CharString>
          <CharString index="84">
            -81 callgsubr
            44 callsubr
            return
          </CharString>
          <CharString index="85">
            60 29 52 91 4 hvcurveto
            8 -8 6 -7 -7 vhcurveto
            -103 -99 8 172 23 85 17 64 9 37 2 10 -31 -30 rcurveline
            -33 -94 -28 -95 -7 -72 rrcurveto
            -77 -8 32 -51 41 hhcurveto
            return
          </CharString>
          <CharString index="86">
            rmoveto
            -3 -4 0 -5 4 -3 72 -70 rcurveline
            4 -3 6 -1 3 4 88 92 rcurveline
            3 4 1 5 -4 3 -73 70 rcurveline
            -4 3 -5 1 -3 -4 rrcurveto
            endchar
          </CharString>
          <CharString index="87">
            1 2 0 1 1 vvcurveto
            3 -3 0 -2 -2 -1 0 -2 -1 vhcurveto
            -10 -15 -15 return
          </CharString>
          <CharString index="88">
            11 76 rmoveto
            6 5 5 9 7 hvcurveto
            12 12 25 10 37 10 rrcurveto
            1 vlineto
            42 9 39 11 36 14 32 12 23 22 17 33 20 -224 rcurveline
            return
          </CharString>
          <CharString index="89">
            vhcurveto
            -5 28 -4 29 27 callsubr
            4 5 callsubr
            return
          </CharString>
          <CharString index="90">
            18 34 22 61 39 38 50 34 66 14 28 -3 26 -103 callsubr
            -24 -10 -15 -14 rrcurveto
            -64 -60 -59 -65 return
          </CharString>
          <CharString index="91">
            287 8 callgsubr
            return
          </CharString>
          <CharString index="92">
            104 61 86 46 104 61 rlinecurve
            32 117 2 9 -3 38 callgsubr
            endchar
          </CharString>
          <CharString index="93">
            -2 -1 hvcurveto
            -64 callgsubr
            return
          </CharString>
          <CharString index="94">
            -80 callgsubr
            -28 -68 -14 -71 -47 callgsubr
            29 15 40 -15 11 -20 rrcurveto
            endchar
          </CharString>
          <CharString index="95">
            -2 6 vhcurveto
            1 1 rlineto
            7 5 2 3 3 hvcurveto
            15 17 14 17 -100 callgsubr
            rrcurveto
            3 7 return
          </CharString>
          <CharString index="96">
            1 3 vhcurveto
            11 24 14 70 callgsubr
            12 -14 -26 9 hvcurveto
            2 -3 return
          </CharString>
          <CharString index="97">
            rmoveto
            -5 -5 -3 -6 -5 vvcurveto
            -4 2 -4 3 -4 vhcurveto
            43 -50 rlineto
            -5 4 5 -1 5 hhcurveto
            3 return
          </CharString>
          <CharString index="98">
            38 -32 17 -32 17 -35 -14 -37 -44 return
          </CharString>
          <CharString index="99">
            vhcurveto
            18 24 15 27 31 11 rrcurveto
            14 -6 24 -31 -29 vvcurveto
            -11 -5 -8 -10 -5 vhcurveto
            -26 -12 return
          </CharString>
          <CharString index="100">
            106 62 33 117 rcurveline
            1 6 -7 2 -5 -2 -108 -63 -108 -63 -108 -63 -32 return
          </CharString>
          <CharString index="101">
            -3 callsubr
            endchar
          </CharString>
          <CharString index="102">
            500 125 rmoveto
            45 65 49 148 -9 79 -7 59 -62 102 -45 -62 -27 -37 return
          </CharString>
          <CharString index="103">
            45 callgsubr
            7 16 6 19 15 45 return
          </CharString>
          <CharString index="104">
            rmoveto
            1 callsubr
            return
          </CharString>
          <CharString index="105">
            53 callgsubr
            -22 -11 -26 -6 -31 -1 return
          </CharString>
          <CharString index="106">
            7 67 rrcurveto
            2 -4 0 -1 -7 vhcurveto
            -11 -44 -32 -29 -49 -9 4 16 3 return
          </CharString>
          <CharString index="107">
            15 73 5 25 -13 13 -31 1 -31 1 -21 -102 callgsubr
            -17 -18 return
          </CharString>
          <CharString index="108">
            29 46 -67 -24 -76 -26 -64 -26 rlinecurve
            -33 -52 61 30 81 28 69 24 rlinecurve
            return
          </CharString>
          <CharString index="109">
            35 44 27 49 20 53 26 callsubr
            return
          </CharString>
          <CharString index="110">
            4 38 6 61 -14 54 32 callsubr
            return
          </CharString>
          <CharString index="111">
            3 -8 -5 rlinecurve
            -70 callsubr
            -22 -81 rcurveline
            endchar
          </CharString>
          <CharString index="112">
            -13 hhcurveto
            -8 -8 -1 -3 -8 hvcurveto
            -48 -16 -50 -53 -29 -38 -25 -34 return
          </CharString>
          <CharString index="113">
            -2 5 52 callgsubr
            rrcurveto
            return
          </CharString>
          <CharString index="114">
            rmoveto
            -4 -2 -4 -4 -4 vhcurveto
            -11 -11 -18 -10 -23 -8 rrcurveto
            -11 -31 return
          </CharString>
          <CharString index="115">
            15 callsubr
            -24 return
          </CharString>
          <CharString index="116">
            92 callgsubr
            11 18 18 18 61 58 75 return
          </CharString>
          <CharString index="117">
            18 51 18 51 -7 32 -33 14 -32 13 -39 4 -45 -7 -45 -7 return
          </CharString>
          <CharString index="118">
            33 -17 38 18 19 16 5 6 8 -9 8 -24 rrcurveto
            12 -36 0 return
          </CharString>
          <CharString index="119">
            58 34 58 34 48 46 39 59 23 return
          </CharString>
          <CharString index="120">
            rmoveto
            13 -5 10 -14 9 -24 9 -24 return
          </CharString>
          <CharString index="121">
            -4 -4 -6 -5 -8 -6 -31 -22 -38 -22 -31 -21 rrcurveto
            -5 -3 return
          </CharString>
          <CharString index="122">
            rmoveto
            13 -5 11 -14 -90 callsubr
            -25 -12 return
          </CharString>
          <CharString index="123">
            -99 callgsubr
            -8 -8 -4 -57 -27 -66 -15 -71 -13 36 36 return
          </CharString>
          <CharString index="124">
            -49 callgsubr
            34 17 28 18 32 6 44 8 41 return
          </CharString>
          <CharString index="125">
            73 569 68 callgsubr
            return
          </CharString>
          <CharString index="126">
            -20 14 -20 14 -17 -5 -17 -22 -27 -37 -19 -45 -22 -41 return
          </CharString>
          <CharString index="127">
            -8 -16 -256 -466 372 return
          </CharString>
          <CharString index="128">
            rrcurveto
            13 -6 25 -31 -29 vvcurveto
            -11 -6 -8 -10 -5 vhcurveto
            return
          </CharString>
          <CharString index="129">
            -106 callsubr
            -15 -18 -4 -16 9 -13 9 -13 10 2 return
          </CharString>
          <CharString index="130">
            -2 -63 callsubr
            -17 -18 -27 -33 rrcurveto
            -25 -30 return
          </CharString>
          <CharString index="131">
            vvcurveto
            29 14 40 26 52 -95 callgsubr
            return
          </CharString>
          <CharString index="132">
            -43 rrcurveto
            -1 -1 -1 0 vhcurveto
            -3 2 -1 6 vhcurveto
            1 return
          </CharString>
          <CharString index="133">
            rrcurveto
            5 20 3 18 15 vvcurveto
            39 -20 31 -39 vhcurveto
            return
          </CharString>
          <CharString index="134">
            -5 31 -7 45 -14 29 -18 12 rrcurveto
            8 -12 -12 return
          </CharString>
          <CharString index="135">
            2 4 0 2 -3 1 -3 1 -2 -2 -2 -2 return
          </CharString>
          <CharString index="136">
            -23 -8 rrcurveto
            -11 -31 -55 -16 -37 hhcurveto
            -4 hlineto
            29 return
          </CharString>
          <CharString index="137">
            40 47 25 29 16 40 -15 11 -21 rrcurveto
            endchar
          </CharString>
          <CharString index="138">
            -33 rrcurveto
            -25 -30 -13 -20 -11 return
          </CharString>
          <CharString index="139">
            -9 56 -7 45 -14 29 -18 12 -18 12 -21 return
          </CharString>
          <CharString index="140">
            5 hhcurveto
            29 57 31 17 13 hvcurveto
            33 42 12 return
          </CharString>
          <CharString index="141">
            356 181 rmoveto
            -13 -6 -22 -8 -32 -10 return
          </CharString>
          <CharString index="142">
            15 20 18 24 16 27 31 11 rrcurveto
            218 return
          </CharString>
          <CharString index="143">
            -107 -63 49 callsubr
            return
          </CharString>
          <CharString index="144">
            36 43 56 19 76 8 29 5 40 -2 39 return
          </CharString>
          <CharString index="145">
            -10 -28 -10 -21 -17 -14 -23 -9 -16 -8 return
          </CharString>
          <CharString index="146">
            -37 hhcurveto
            -13 -11 -4 -8 -12 hvcurveto
            -61 -42 return
          </CharString>
          <CharString index="147">
            92 -100 43 -47 76 -30 109 -14 rrcurveto
            return
          </CharString>
          <CharString index="148">
            -22 -20 -16 -15 -12 -19 -7 -23 -7 -23 return
          </CharString>
          <CharString index="149">
            -16 -16 -23 rrcurveto
            -15 -21 -7 -13 -3 vvcurveto
            return
          </CharString>
          <CharString index="150">
            5 4 2 5 3 hvcurveto
            return
          </CharString>
          <CharString index="151">
            6 -17 13 11 19 40 return
          </CharString>
          <CharString index="152">
            -13 24 -16 20 -20 14 rrcurveto
            6 -8 return
          </CharString>
          <CharString index="153">
            -2 -2 vhcurveto
            -9 -21 -14 -17 -20 -11 return
          </CharString>
          <CharString index="154">
            4 29 rlineto
            1 vlineto
            -51 -65 -6 -39 return
          </CharString>
          <CharString index="155">
            6 rrcurveto
            -1 hlineto
            -18 -38 -20 -34 -16 return
          </CharString>
          <CharString index="156">
            -108 -63 -33 -116 rcurveline
            -60 -96 return
          </CharString>
          <CharString index="157">
            -50 -40 -74 -40 -74 -41 -78 -41 -82 return
          </CharString>
        <CharString name=".notdef">
          136 50 -200 rmoveto
          400 1000 -400 -1000 hlineto
          50 50 rmoveto
          900 300 -900 -300 vlineto
          endchar
        </CharString>
        <CharString name="ae-ar">
          -117 -79 callsubr
        </CharString>
        <CharString name="ain-ar">
          319 206 262 rmoveto
          -117 -92 -114 -220 30 -142 55 -261 425 67 163 198 4 4 -12 -3 -5 -1 -175 -46 -260 -38 -136 153 -78 88 247 210 55 48 40 35 65 42 14 36 45 116 rcurveline
          -60 -58 -97 -59 -47 46 -32 27 -16 25 -8 49 40 -4 34 -7 60 callgsubr
          -99 2 -58 -206 91 -113 9 -12 10 -11 11 -10 rrcurveto
          endchar
        </CharString>
        <CharString name="ain-ar.fina">
          -23 389 548 rmoveto
          -10 hlineto
          -24 -18 23 callsubr
          -13 -20 -11 -1 1 -1 -1 vvcurveto
          14 -90 -116 -114 -49 -53 -36 -66 -24 -78 rlinecurve
          -16 -51 -8 -49 -44 vvcurveto
          -102 38 -67 68 -34 vhcurveto
          -22 45 51 -11 55 hhcurveto
          85 67 19 35 76 hvcurveto
          67 31 53 40 41 49 rrcurveto
          2 vlineto
          1 0 0 -1 -2 -5 -1 -2 -6 vhcurveto
          -19 -77 -100 -21 -96 hhcurveto
          -132 -99 35 74 -66 hvcurveto
          -12 14 -6 16 19 vvcurveto
          11 2 11 5 13 vhcurveto
          11 34 18 34 24 35 37 52 64 69 41 37 19 16 22 17 27 19 27 19 18 17 10 17 5 6 5 8 7 10 51 79 rcurveline
          8 12 6 15 -40 callgsubr
          6 6 vvcurveto
          35 -31 11 -41 1 vhcurveto
          endchar
        </CharString>
        <CharString name="ain-ar.init">
          156 274 317 rmoveto
          36 -3 35 -8 34 -10 42 130 rcurveline
          -32 8 -27 8 -37 1 rrcurveto
          -1 hlineto
          -21 -20 -10 -21 -17 hvcurveto
          -33 -40 -26 -67 -52 callgsubr
          -62 -17 -60 -6 -80 -11 -23 -130 rcurveline
          70 15 73 16 78 18 78 18 74 28 71 38 1 2 3 7 7 14 2 callgsubr
          -28 -89 callsubr
        </CharString>
        <CharString name="ain-ar.init.ain">
          352 461 323 rmoveto
          35 -3 35 -7 35 -11 42 130 rcurveline
          -32 8 -28 40 callgsubr
          -47 -14 -90 -18 -63 -6 -70 -7 -89 0 -14 51 -101 callgsubr
          rrcurveto
          38 -4 46 2 54 8 54 8 54 11 55 14 92 24 111 38 70 37 1 2 3 8 7 13 12 24 16 33 44 callgsubr
          rrcurveto
          -22 -11 -26 -6 -31 -1 -32 26 -28 36 -7 50 rrcurveto
          endchar
        </CharString>
        <CharString name="ain-ar.init.dal">
          188 475 121 rmoveto
          3 8 62 119 -19 -7 -48 -18 -39 -29 -62 -2 -32 27 -26 36 -8 49 40 -4 34 -6 31 -10 42 130 rcurveline
          -33 8 -29 8 -35 1 -86 2 -64 -204 50 -78 -38 -11 -93 -16 -40 10 -25 6 -14 32 4 30 rrcurveto
          3 -3 1 -3 -4 vhcurveto
          -41 -57 -31 -106 66 -32 77 -38 309 125 51 27 rrcurveto
          endchar
        </CharString>
        <CharString name="ain-ar.init.feh">
          392 499 330 rmoveto
          37 -4 35 -7 33 -10 42 129 rcurveline
          -32 8 -28 9 -37 1 -52 1 -34 -67 -15 -44 -18 -52 -8 -74 28 -43 -59 -17 -103 -21 -74 -6 -69 -6 -93 -1 -13 49 -87 callsubr
          -29 27 -14 28 -3 rrcurveto
          37 -4 48 2 57 8 57 8 58 12 59 15 99 25 123 38 74 40 1 2 3 8 7 13 12 23 16 35 21 callgsubr
          -7 -31 -1 -31 27 -27 36 -8 50 rrcurveto
          endchar
        </CharString>
        <CharString name="ain-ar.init.hah">
          122 242 421 rmoveto
          36 -3 35 -8 34 27 callgsubr
          -17 -52 -9 -75 28 -43 -40 -11 -31 -14 -21 -15 -21 -15 -22 -31 -20 -47 -20 -47 -8 -32 -10 -51 -105 callsubr
          55 88 55 44 106 31 66 19 60 22 58 31 1 2 3 7 7 14 12 24 14 34 9 -2 callsubr
          rrcurveto
          -32 27 -27 -89 callsubr
        </CharString>
        <CharString name="ain-ar.init.heh">
          279 392 405 rmoveto
          37 -4 34 -7 33 -10 43 130 rcurveline
          -32 8 -29 40 callgsubr
          -41 -11 -34 -21 -30 -29 -56 -55 -44 -74 -33 -75 -16 -37 -12 -31 -14 -24 -8 -16 rcurveline
          4 30 rlineto
          -89 callgsubr
          33 39 30 28 26 17 52 33 50 13 65 18 31 8 37 17 44 23 1 2 3 8 7 13 rrcurveto
          11 23 16 34 8 -2 callsubr
          -32 27 -26 -89 callsubr
        </CharString>
        <CharString name="ain-ar.init.meem">
          151 270 406 rmoveto
          35 -3 35 -7 35 65 callgsubr
          -52 1 -34 -66 -15 -44 -18 -52 -9 -75 28 -43 -78 -22 -45 -40 -40 -68 -22 -38 -16 -41 -19 -42 21 -2 rcurveline
          14 33 18 26 24 18 60 45 76 19 84 30 32 11 31 11 28 10 28 10 17 7 6 3 -66 callsubr
          24 15 33 8 25 4 12 0 5 -5 -2 rrcurveto
          -75 callgsubr
          -22 -11 -26 -7 -31 -1 -31 27 -27 36 -8 50 rrcurveto
          endchar
        </CharString>
        <CharString name="ain-ar.init.ragaa">
          314 280 387 rmoveto
          37 -4 35 -7 33 27 callgsubr
          -18 -52 -9 -75 28 -43 -15 -4 -18 -7 -21 -11 -30 -15 -26 -15 -23 -15 -46 -31 -34 -47 -17 -60 40 -30 rcurveline
          22 25 23 20 28 18 42 26 59 27 52 15 66 19 59 24 58 31 -66 callsubr
          23 16 34 21 callgsubr
          -48 callgsubr
        </CharString>
        <CharString name="ain-ar.init.reh">
          172 290 358 30 callgsubr
          rrcurveto
          -1 hlineto
          -21 -20 -11 -21 -17 hvcurveto
          -33 -40 -26 -66 -52 callgsubr
          -15 -5 -21 -4 -26 -4 -1 -1 rcurveline
          -3 -1 hlineto
          -42 -10 -38 -15 -25 -26 -21 -22 -20 -30 -14 -32 -88 callgsubr
          34 34 36 9 48 14 114 26 97 27 96 51 1 2 3 8 7 13 2 callgsubr
          -27 -89 callsubr
        </CharString>
        <CharString name="ain-ar.init.sad">
          417 523 330 rmoveto
          36 -3 35 -7 34 -10 42 129 rcurveline
          -32 8 -28 9 -37 1 rrcurveto
          -1 hlineto
          -21 -19 -11 -21 -17 hvcurveto
          -33 -40 -26 -67 -52 callgsubr
          -50 -14 -54 -12 -56 -11 rrcurveto
          -7 -38 -37 -4 -36 hhcurveto
          -62 -45 7 42 -20 hvcurveto
          -4 7 -2 10 10 24 callsubr
          2 -1 1 -1 vhcurveto
          -2 hlineto
          -2 -2 0 -2 -1 hvcurveto
          -10 -14 -15 -24 16 callgsubr
          -43 10 50 -14 62 hhcurveto
          26 29 2 5 34 hvcurveto
          56 7 58 12 60 15 101 25 124 39 77 41 1 2 3 8 7 14 12 24 16 33 8 25 rrcurveto
          2 5 1 5 2 vvcurveto
          3 -1 1 -2 vhcurveto
          0 0 -1 -1 vhcurveto
          -75 callgsubr
          -22 -11 -27 -48 callgsubr
        </CharString>
        <CharString name="ain-ar.init.yeh">
          123 243 362 30 callgsubr
          -52 1 -34 -67 -15 -44 -18 -52 -9 -74 28 -43 -55 -15 -40 -25 -27 -34 -27 -35 -22 -38 -22 -44 19 -18 rcurveline
          14 19 17 15 19 12 40 25 12 5 56 19 55 19 73 24 55 20 29 10 17 7 6 3 -66 callsubr
          23 15 35 8 25 4 12 1 5 -5 -2 rrcurveto
          -24 -9 -24 -11 -22 -11 -22 -11 -26 -48 callgsubr
        </CharString>
        <CharString name="ain-ar.medi">
          -78 372 351 rmoveto
          -10 hlineto
          -23 -19 -3 -63 callsubr
          -16 -17 -28 31 callsubr
          -1 1 -1 -1 vvcurveto
          19 -66 -72 -12 -71 -12 -72 -12 rlinecurve
          -1 -1 -21 -122 69 11 120 27 53 21 rlinecurve
          15 5 20 10 26 17 26 17 21 23 19 29 51 79 rcurveline
          8 12 6 16 32 callgsubr
        </CharString>
        <CharString name="ain-ar.medi.ain">
          42 361 59 rmoveto
          15 4 21 10 25 17 25 17 22 24 19 29 52 79 callgsubr
          -38 19 -47 1 -28 1 -22 -2 -17 -5 -6 -5 -16 -18 -28 -33 -28 -33 -12 -21 3 -9 20 -67 rcurveline
          -58 -16 -91 -17 -73 4 -44 2 -42 10 -10 34 -13 -34 -13 -42 -13 -51 -79 callgsubr
          91 -9 151 41 63 26 rrcurveto
          endchar
        </CharString>
        <CharString name="ain-ar.medi.dal">
          -78 38 7 rmoveto
          73 -36 208 98 50 79 51 79 rcurveline
          15 24 22 46 -27 26 -21 20 -71 -1 -33 -10 -11 -9 -83 -91 6 -19 20 -66 rcurveline
          -38 -6 -75 -18 -40 10 -26 7 -14 35 6 31 rrcurveto
          2 -1 0 -2 -2 vhcurveto
          -42 -56 -35 -110 68 -33 rrcurveto
          endchar
        </CharString>
        <CharString name="ain-ar.medi.feh">
          103 422 64 rmoveto
          15 4 20 11 26 17 26 17 22 23 19 29 51 79 rcurveline
          8 12 7 16 6 19 6 19 -3 17 -14 13 -20 19 -75 -1 -31 -9 -6 -4 -16 -18 -28 -33 -28 -33 -12 -21 3 -10 20 -66 rcurveline
          -46 -15 -95 -16 -64 -4 -68 -5 -92 2 -14 49 -87 callsubr
          -30 27 -14 28 -3 49 -5 63 5 76 15 76 15 60 16 42 17 rrcurveto
          endchar
        </CharString>
        <CharString name="ain-ar.medi.hah">
          -30 291 174 rmoveto
          15 4 19 45 callgsubr
          8 16 6 19 6 19 -4 17 -13 13 rrcurveto
          10 -11 -19 6 -28 hhcurveto
          -28 -22 -2 -5 -17 hvcurveto
          -6 -4 -17 -18 -28 -33 -28 -33 -12 -21 3 -10 20 -66 rcurveline
          -61 -12 -42 -11 -26 -10 -26 -10 -31 -33 -37 -57 -35 -53 -21 -46 -7 -37 -105 callsubr
          31 49 43 40 55 28 63 32 22 -3 65 26 rrcurveto
          endchar
        </CharString>
        <CharString name="ain-ar.medi.heh">
          145 465 168 rmoveto
          15 4 20 -4 callsubr
          -37 18 -47 1 -28 1 -22 -2 -17 -5 -6 -5 -16 -18 -28 -33 -28 -33 -12 -20 3 -10 19 -66 rcurveline
          -71 -12 -52 -16 -34 -18 -34 -18 -35 -33 -38 -49 -70 -90 -16 -39 -47 -96 -9 -18 rcurveline
          4 30 rlineto
          -89 callgsubr
          56 67 37 28 93 19 23 5 29 9 34 14 rrcurveto
          endchar
        </CharString>
        <CharString name="ain-ar.medi.meem">
          10 330 167 rmoveto
          15 4 19 11 26 17 26 17 22 24 19 29 51 79 callgsubr
          -37 19 -47 1 -28 1 -22 -2 -17 -5 -6 -4 -16 -19 -28 -33 -28 -33 -12 -21 3 -10 19 -66 rcurveline
          -27 -5 -55 -13 -31 -9 -49 -13 -23 -5 -33 -31 -52 -47 -24 -73 -31 -69 21 -2 rcurveline
          16 36 27 29 37 22 65 38 91 12 73 30 rrcurveto
          endchar
        </CharString>
        <CharString name="ain-ar.medi.ragaa">
          -70 252 118 rmoveto
          15 4 20 11 25 17 25 17 22 23 19 29 51 79 rcurveline
          7 12 7 16 6 19 6 19 -3 17 -13 13 -20 19 -73 -1 -32 -9 -6 -4 -16 -18 -27 -33 -27 -33 -12 -21 3 -10 19 -66 rcurveline
          -32 -6 -30 -7 -26 -8 -86 -25 -45 -53 -29 -88 -106 callsubr
          40 -30 21 25 26 22 26 16 rlinecurve
          60 36 14 -8 65 27 rrcurveto
          endchar
        </CharString>
        <CharString name="ain-ar.medi.reh">
          -77 373 378 rmoveto
          -10 hlineto
          -24 -19 23 callsubr
          -12 -20 -11 vvcurveto
          -3 vlineto
          20 -65 -31 -6 1 1 -33 -6 -31 -5 -27 -3 rlinecurve
          -27 -3 -27 -25 -30 -49 -7 -11 -6 -12 -6 -13 rrcurveto
          -1 vlineto
          -10 -12 -5 -11 -9 vvcurveto
          -10 8 -13 9 6 5 5 9 7 vhcurveto
          11 11 23 10 33 9 51 14 43 10 47 19 15 5 20 11 26 17 26 17 22 23 19 29 50 79 rcurveline
          8 12 7 15 -40 callgsubr
          6 6 vvcurveto
          35 -31 11 -41 1 vhcurveto
          endchar
        </CharString>
        <CharString name="ain-ar.medi.sad">
          160 617 361 rmoveto
          -10 hlineto
          -24 -19 -3 -63 callsubr
          -16 -17 -27 31 callsubr
          vvcurveto
          -3 vlineto
          20 -66 -46 -8 -55 -9 -63 -11 rlinecurve
          -8 -45 -41 -4 -37 hhcurveto
          -59 -41 9 40 -19 hvcurveto
          -4 7 -2 10 10 vvcurveto
          29 14 40 26 52 vhcurveto
          -2 callgsubr
          -42 9 49 -15 61 hhcurveto
          58 51 8 10 55 hvcurveto
          66 12 81 18 51 21 15 4 21 11 26 17 26 17 21 23 19 29 51 80 rcurveline
          8 12 6 15 32 callgsubr
        </CharString>
        <CharString name="ain-ar.medi.yeh">
          2 321 155 rmoveto
          15 4 21 -4 callsubr
          -38 19 -47 1 rrcurveto
          -28 -22 -2 -5 -17 hvcurveto
          -6 -5 -16 -17 -28 -33 -28 -33 -12 -21 3 -10 20 -67 rcurveline
          -49 -8 -77 -19 -44 -16 -43 -15 -38 -47 -20 -41 -13 -27 -15 -34 -18 -39 19 -8 rcurveline
          30 54 44 35 60 14 60 14 56 17 52 21 rrcurveto
          endchar
        </CharString>
        <CharString name="ainThreedots-ar">
          319 340 830 -107 callgsubr
          -134 -568 -20 callgsubr
        </CharString>
        <CharString name="alef-ar">
          -116 18 callsubr
          endchar
        </CharString>
        <CharString name="alef-ar.fina">
          -252 73 570 rmoveto
          39 -570 62 118 -38 569 rlineto
          endchar
        </CharString>
        <CharString name="alef-ar.fina.lam">
          30 354 564 rmoveto
          -65 -120 34 -299 67 112 -8 108 -16 95 -12 104 rlinecurve
          endchar
        </CharString>
        <CharString name="alefHamzaabove-ar">
          -116 131 744 -106 callgsubr
          -58 -175 -76 callsubr
        </CharString>
        <CharString name="alefHamzabelow-ar">
          -116 18 callsubr
          -9 -756 -106 callgsubr
          endchar
        </CharString>
        <CharString name="alefMadda-ar">
          -116 293 845 -6 callgsubr
          -176 -219 -76 callsubr
        </CharString>
        <CharString name="alefMaksura-ar">
          251 -40 callsubr
        </CharString>
        <CharString name="alefMaksura-ar.fina">
          50 136 487 rmoveto
          -41 callgsubr
          -17 -23 -20 -34 -24 -42 -24 -42 -19 -44 -13 -46 rrcurveto
          -9 -32 -5 -29 -30 vvcurveto
          -70 21 -40 56 -30 vhcurveto
          -16 29 33 -7 35 hhcurveto
          12 12 0 2 13 hvcurveto
          50 7 50 16 49 24 86 42 97 73 47 73 rrcurveto
          16 24 8 21 18 vvcurveto
          31 -23 23 -29 4 vhcurveto
          -67 9 -63 27 -19 58 -15 -26 -12 -26 -10 -27 rrcurveto
          -7 -18 -3 -16 -13 vvcurveto
          -7 1 -5 2 -6 vhcurveto
          8 -27 17 -19 28 -12 28 -12 31 -8 34 -3 -64 -41 -71 -28 -78 -14 rrcurveto
          -5 -25 -26 -2 -27 hhcurveto
          -95 -74 33 88 21 3 23 7 22 hvcurveto
          16 52 37 60 21 44 rrcurveto
          -88 callsubr
          0 -2 vhcurveto
          endchar
        </CharString>
        <CharString name="alefMaksura-ar.fina.jalt">
          432 287 8 rmoveto
          135 -17 138 11 114 34 133 40 114 72 69 107 38 59 -10 54 -56 8 -70 10 -51 27 -33 48 -14 -25 -11 -24 -9 -25 -21 -61 24 -39 45 -19 28 -12 30 -7 34 -3 rrcurveto
          -67 -44 -72 -29 -78 -14 -78 -14 -79 -10 -77 -6 -96 callsubr
          36 3 callgsubr
          -10 -64 -17 -143 -37 14 callgsubr
        </CharString>
        <CharString name="alefMaksura-ar.fina.yeh">
          276 193 1 rmoveto
          102 8 93 43 70 48 61 42 24 35 35 57 6 9 9 16 10 20 5 10 4 9 5 10 7 14 3 28 -13 11 -24 18 -36 10 -33 8 -104 25 rcurveline
          -1 vlineto
          -18 -38 -20 -33 -16 80 callgsubr
          -10 51 -19 8 -4 5 -3 1 -6 -69 callsubr
          -36 -20 -36 -17 -36 -15 -63 -27 -75 -20 -90 6 rrcurveto
          -39 3 -31 10 -22 18 -46 36 -9 52 21 67 16 52 37 61 21 44 4 8 -9 0 -3 -4 -17 -23 -20 -33 -24 -42 -24 -42 -19 -44 -13 -46 -13 -46 -4 -44 6 -42 rrcurveto
          11 -77 79 -50 99 8 rrcurveto
          endchar
        </CharString>
        <CharString name="alefMaksura-ar.fina.yeh.jalt">
          429 287 7 rmoveto
          43 -6 52 -2 61 2 135 4 124 29 97 49 54 27 42 35 29 45 11 18 16 25 20 33 20 33 10 28 -1 21 -1 7 -3 6 -5 4 -18 14 -32 13 -45 10 rrcurveto
          -45 10 -35 8 -23 6 -106 callsubr
          -19 -39 -18 -33 -17 80 callgsubr
          -9 51 -19 7 -3 5 -4 2 -6 -69 callsubr
          -72 -38 -70 -26 -67 -12 -67 -12 -78 -9 -87 -7 rrcurveto
          -69 callgsubr
          -122 40 callsubr
          endchar
        </CharString>
        <CharString name="alefMaksura-ar.jalt">
          719 287 9 rmoveto
          135 -17 138 12 114 34 133 40 114 72 69 107 28 44 3 34 -23 25 -18 19 -33 0 -28 8 -40 11 -25 12 -9 13 -9 13 0 13 7 11 11 17 41 21 30 -9 rrcurveto
          20 32 11 40 17 35 rrcurveto
          9 4 -12 1 -6 hhcurveto
          -35 -2 -29 -28 -19 -17 -21 -21 -24 -36 -30 -53 -30 -53 -11 -40 8 -28 8 -27 18 -19 28 -12 28 -12 30 -8 34 -3 -67 -44 -72 -28 -78 -14 -78 -14 -79 -10 -77 -6 rrcurveto
          -96 callsubr
          35 3 callgsubr
          -9 -64 -17 -143 -37 -114 -58 -80 -102 -79 -101 -26 -122 92 -100 43 -47 76 -31 109 -14 rrcurveto
          endchar
        </CharString>
        <CharString name="alefWasla-ar">
          -116 29 757 rmoveto
          75 74 -46 -89 101 42 28 11 26 15 16 22 12 16 16 21 -15 18 -12 14 -27 -8 -11 -10 -23 -21 -22 -22 -20 -24 rrcurveto
          -1 -3 -2 0 -2 hhcurveto
          -35 42 -55 -64 -10 -40 -1 -4 8 6 2 2 rrcurveto
          182 90 rmoveto
          2 -3 1 -4 -4 -2 -20 -10 -24 -5 -25 -5 13 13 12 14 17 9 10 5 14 -4 4 -8 rrcurveto
          -138 -278 -76 callsubr
        </CharString>
        <CharString name="alefabove-ar">
          -36 callsubr
        </CharString>
        <CharString name="alefabove-ar.isol">
          -243 -16 callgsubr
        </CharString>
        <CharString name="alefabove-ar.medi">
          -16 callgsubr
        </CharString>
        <CharString name="alefbelow-ar">
          -36 callsubr
        </CharString>
        <CharString name="beh-ar">
          437 -81 callsubr
          -309 -579 -107 callsubr
          endchar
        </CharString>
        <CharString name="behDotless-ar">
          437 -81 callsubr
          endchar
        </CharString>
        <CharString name="behDotless-ar.fina">
          126 489 43 rmoveto
          -1 -5 -1 -4 -3 vvcurveto
          -4 1 -1 2 vhcurveto
          1 hlineto
          25 26 20 31 15 35 15 35 13 31 6 22 rrcurveto
          1 2 27 -6 -14 vhcurveto
          -9 -20 -16 -20 -19 -10 rrcurveto
          -36 -69 -144 -7 -36 hhcurveto
          -174 -46 45 71 3 hvcurveto
          2 41 13 38 24 45 9 22 -18 7 -11 -17 -24 -39 -24 -44 -23 -51 rrcurveto
          -13 -30 -6 -29 -27 vvcurveto
          -161 204 2 41 84 103 20 23 57 vhcurveto
          endchar
        </CharString>
        <CharString name="behDotless-ar.fina.jalt">
          485 287 7 rmoveto
          96 -12 95 3 95 19 95 19 91 27 89 36 -5 -12 1 -6 6 1 25 27 19 30 -73 callsubr
          1 3 6 vvcurveto
          6 -2 1 -4 -5 vhcurveto
          -9 -22 -13 -15 -20 -11 -56 -31 -71 -23 -84 -15 -84 -15 -75 -10 -63 -5 -158 -2 -120 62 callgsubr
          19 18 17 61 58 75 42 90 28 rrcurveto
          22 callgsubr
          -38 14 callgsubr
        </CharString>
        <CharString name="behDotless-ar.init">
          -70 252 393 rmoveto
          -77 -113 rlineto
          17 -58 9 -36 -14 vvcurveto
          -19 -13 -21 -9 -24 -6 -24 -6 -38 -7 -52 -6 rrcurveto
          -1 hlineto
          -22 -125 40 4 35 6 28 8 rlinecurve
          66 19 41 46 34 57 42 69 -4 101 -30 83 rrcurveto
          endchar
        </CharString>
        <CharString name="behDotless-ar.init.ain">
          128 369 266 rmoveto
          14 -40 7 -31 -1 -21 -47 -20 -85 -20 -66 -5 -64 -5 -75 5 -13 47 -13 -35 -13 -42 -13 -50 1 -29 27 -15 28 -3 39 -4 45 2 51 6 51 6 44 14 37 20 rrcurveto
          78 40 54 86 12 100 2 16 -3 22 -7 30 -7 30 -3 13 -3 -4 rrcurveto
          endchar
        </CharString>
        <CharString name="behDotless-ar.init.ascend">
          -51 301 245 rmoveto
          -3 2 -17 -46 -26 -29 -34 -12 rlinecurve
          -34 -12 -67 -9 -102 -5 -18 -134 rcurveline
          94 6 67 14 40 23 32 18 24 32 17 43 rrcurveto
          17 43 10 36 30 vvcurveto
          endchar
        </CharString>
        <CharString name="behDotless-ar.init.dal">
          9 355 253 rmoveto
          3 -2 1 -1 -2 vhcurveto
          -31 -85 -144 -53 -93 24 -27 7 -12 36 6 31 rrcurveto
          1 -1 2 -2 -3 vhcurveto
          -43 -56 -35 -111 68 -33 126 -61 188 136 3 163 rrcurveto
          endchar
        </CharString>
        <CharString name="behDotless-ar.init.feh">
          195 433 279 rmoveto
          14 -39 6 -31 -1 -22 -52 -23 -104 -24 -73 -8 -74 -8 -95 -1 -15 52 -13 -35 -13 -42 -13 -50 1 -29 27 -14 28 -3 39 -4 55 2 69 10 114 16 71 27 57 66 rrcurveto
          39 46 23 56 7 64 2 16 -2 22 -7 30 -7 30 -4 13 -3 -4 rrcurveto
          endchar
        </CharString>
        <CharString name="behDotless-ar.init.hah">
          59 1 hmoveto
          73 hlineto
          14 15 15 15 16 14 32 28 38 22 45 15 19 5 20 1 23 -2 11 -2 12 -1 5 9 18 34 14 39 15 37 -5 6 rcurveline
          -30 12 -34 -3 -39 -18 rrcurveto
          -1 hlineto
          -1 -3 -2 -1 -2 hhcurveto
          -54 -22 -46 -30 -39 -37 -39 -37 -28 -30 -18 -24 -18 -24 -10 -15 -2 -5 rrcurveto
          endchar
        </CharString>
        <CharString name="behDotless-ar.init.heh">
          195 377 176 rmoveto
          24 10 28 3 29 -3 11 -2 12 -1 5 9 19 34 13 39 15 37 -5 6 rcurveline
          -24 10 -29 0 -32 -11 -32 -11 -31 -15 -32 -21 -53 -35 -63 -57 -36 -46 -105 callgsubr
          50 59 57 61 77 30 rrcurveto
          endchar
        </CharString>
        <CharString name="behDotless-ar.init.meem">
          3 288 149 rmoveto
          8 21 12 30 17 38 17 38 -1 25 -21 12 -33 19 -33 1 -31 -17 -66 -36 -54 -73 -37 -69 -20 -37 -15 -30 -10 -21 -8 -18 -6 -12 -2 -7 -2 -7 -2 -5 -1 -1 rrcurveto
          18 hlineto
          14 22 18 28 23 33 23 33 25 27 26 23 26 23 26 12 25 2 25 2 21 -18 18 -38 rrcurveto
          endchar
        </CharString>
        <CharString name="behDotless-ar.init.ragaa">
          314 235 214 rmoveto
          -5 vlineto
          -25 -20 -28 -14 -31 -10 -60 -19 -69 -59 -22 -56 46 -32 rcurveline
          1 2 2 1 2 1 40 29 43 26 45 25 25 14 20 19 17 25 19 29 13 27 8 24 rrcurveto
          12 30 5 31 34 vvcurveto
          1 61 -19 49 -38 37 -63 -111 rcurveline
          19 -29 14 -26 8 -23 rrcurveto
          -1 vlineto
          5 -15 8 -30 2 -14 rrcurveto
          endchar
        </CharString>
        <CharString name="behDotless-ar.init.reh">
          -41 308 229 rmoveto
          -17 -16 -29 -9 -27 -4 -28 -6 -28 -4 -25 -4 -61 -9 -39 41 callgsubr
          -16 9 -13 9 -13 10 2 11 17 20 20 25 12 23 4 24 4 30 7 35 9 76 19 34 54 7 87 rrcurveto
          endchar
        </CharString>
        <CharString name="behDotless-ar.init.sad">
          279 520 234 rmoveto
          -2 vlineto
          -63 -30 -74 -36 -83 -19 -91 -17 rlinecurve
          -4 -19 -17 -2 -16 hhcurveto
          -53 -37 20 53 30 14 42 29 57 hvcurveto
          1 2 0 1 0 callgsubr
          -43 9 51 -14 61 hhcurveto
          27 30 3 6 31 hvcurveto
          50 9 48 16 47 21 82 37 91 59 36 75 rrcurveto
          20 41 10 37 35 vvcurveto
          19 -3 18 -6 17 vhcurveto
          -24 74 -76 -113 rlineto
          10 -29 21 -57 -34 vvcurveto
          endchar
        </CharString>
        <CharString name="behDotless-ar.init.yeh">
          -187 105 87 rmoveto
          -22 -18 -47 -17 -29 -10 -7 -17 rcurveline
          98 -25 19 25 24 41 10 33 rlinecurve
          12 30 6 31 34 vvcurveto
          60 -19 50 -37 37 vhcurveto
          -64 -112 20 -30 15 -26 7 -22 rlinecurve
          5 -14 8 -31 2 -14 rrcurveto
          -1 -2 0 -1 -2 vvcurveto
          endchar
        </CharString>
        <CharString name="behDotless-ar.jalt">
          674 287 11 callgsubr
          30 62 7 56 -16 49 rrcurveto
          -24 74 0 0 0 vvcurveto
          -77 -114 -102 callsubr
          rlinecurve
          0 -1 -100 callsubr
          -26 -99 callsubr
          rrcurveto
          endchar
        </CharString>
        <CharString name="behDotless-ar.medi">
          -158 205 24 rmoveto
          1 hlineto
          50 53 28 81 15 47 2 3 -1 21 -5 -11 -7 -17 -17 -24 -25 -11 -53 -23 -147 -14 -25 -2 -21 -127 rcurveline
          58 6 99 16 46 19 -2 -7 -1 -11 5 1 rrcurveto
          endchar
        </CharString>
        <CharString name="behDotless-ar.medi.ain">
          -17 348 25 rmoveto
          25 26 19 31 -73 callsubr
          0 4 6 vvcurveto
          6 -1 1 -3 -5 vhcurveto
          -10 -22 -14 -17 -19 -10 -24 -13 -41 -11 -58 -7 -58 -7 -42 -5 -25 1 -48 1 -48 10 -11 36 -78 callsubr
          36 -3 48 3 62 8 rrcurveto
          62 8 48 11 34 14 -5 -12 1 -6 6 1 rrcurveto
          endchar
        </CharString>
        <CharString name="behDotless-ar.medi.dal">
          -136 226 35 rmoveto
          -7 -23 16 2 7 12 32 60 34 68 13 43 2 3 1 21 -7 -10 -8 -21 -15 -17 -19 -11 -29 -16 -111 -26 -49 12 rrcurveto
          -26 7 -8 33 30 vvcurveto
          7 1 1 -6 -7 vhcurveto
          -46 -53 -28 -111 67 -33 42 -20 114 37 30 12 rrcurveto
          endchar
        </CharString>
        <CharString name="behDotless-ar.medi.feh">
          31 56 1 rmoveto
          40 -4 58 3 76 11 76 11 54 12 34 14 -4 -12 1 -6 5 1 25 26 20 31 15 35 15 35 11 29 7 23 rrcurveto
          1 2 0 4 6 vvcurveto
          6 -1 1 -4 -5 vhcurveto
          -9 -22 -14 -16 -20 -11 -21 -12 -41 -10 -64 -9 -64 -9 -45 -5 -28 -1 -60 -3 -67 6 -13 43 -78 callsubr
          rrcurveto
          endchar
        </CharString>
        <CharString name="behDotless-ar.medi.hah">
          88 12 2 rmoveto
          23 36 18 30 14 21 14 21 25 27 37 30 35 29 38 22 41 15 30 12 21 -21 9 -18 5 -16 11 -8 17 1 rrcurveto
          4 7 3 2 8 hvcurveto
          62 134 -33 -5 rlineto
          -2 -1 0 1 -2 hvcurveto
          15 -12 -9 28 -27 hhcurveto
          -26 -28 -7 -14 -31 hvcurveto
          -59 -28 -58 -49 -43 -45 -26 -26 -23 -28 -21 -26 -13 -32 -14 -63 -3 -38 -105 callsubr
          endchar
        </CharString>
        <CharString name="behDotless-ar.medi.heh">
          208 237 76 rmoveto
          36 39 52 50 54 15 23 6 18 -9 12 -24 4 -16 10 -8 18 1 6 1 7 2 6 2 62 134 rcurveline
          -33 -5 -5 2 -25 31 -27 14 -30 -4 rlinecurve
          -30 -4 -30 -12 -29 -21 -29 -21 -26 -26 -25 -29 -25 -29 -20 -24 -15 -19 -1 callgsubr
          23 54 52 64 51 56 rrcurveto
          endchar
        </CharString>
        <CharString name="behDotless-ar.medi.high">
          -38 223 179 rmoveto
          -50 -21 -55 -14 -60 -11 -58 -133 rcurveline
          28 7 27 7 27 7 106 28 73 67 25 102 17 62 2 57 -11 53 -11 53 -7 25 -2 -3 -76 -113 rcurveline
          18 -69 7 -29 -75 vvcurveto
          endchar
        </CharString>
        <CharString name="behDotless-ar.medi.high2">
          -128 215 293 rmoveto
          9 -114 -47 -20 -56 -12 -56 -10 rlinecurve
          -65 -137 156 50 29 16 24 19 20 22 rlinecurve
          8 -107 74 117 -22 294 rlineto
          endchar
        </CharString>
        <CharString name="behDotless-ar.medi.meem">
          -77 185 141 rmoveto
          27 10 21 -10 14 -29 4 -16 10 -7 18 1 6 1 7 1 6 2 63 135 rcurveline
          -33 -5 -6 1 -18 23 -21 15 -21 5 rlinecurve
          -20 4 -19 -3 -20 -9 -20 -9 -19 -13 -19 -18 -55 -53 -56 -87 -34 -72 30 -8 rcurveline
          39 55 49 60 67 26 rrcurveto
          endchar
        </CharString>
        <CharString name="behDotless-ar.medi.noon">
          -123 304 354 rmoveto
          3 -2 1 -3 -1 vhcurveto
          -4 -2 -3 -3 -3 -7 -14 -34 -39 -32 -64 -28 -62 -27 -51 -10 -41 6 -18 -133 rcurveline
          28 7 27 7 27 7 62 16 48 28 37 43 13 -195 rcurveline
          73 128 -6 74 -7 74 2 78 rlinecurve
          endchar
        </CharString>
        <CharString name="behDotless-ar.medi.ragaa">
          -105 240 114 rmoveto
          4 -16 10 -8 18 1 2 1 8 1 10 3 62 134 rcurveline
          -33 -5 rlineto
          1 -3 -2 1 -1 hhcurveto
          15 -12 -9 27 -27 hhcurveto
          -37 -33 -10 -18 -28 hvcurveto
          -28 -18 -25 -22 -22 -25 -11 -13 -18 -24 -23 -34 -23 -34 -14 -25 -5 -14 47 -32 rcurveline
          1 vlineto
          17 24 20 27 23 30 23 30 23 19 26 10 30 12 22 -21 9 -18 rrcurveto
          endchar
        </CharString>
        <CharString name="behDotless-ar.medi.reh">
          -40 307 31 rmoveto
          2 123 -30 -4 -24 9 4 31 rlinecurve
          1 28 -83 -24 -43 -13 -52 -16 -31 -18 -11 -21 -12 -23 -7 -27 -10 -24 -1 -1 -10 -17 1 -2 -7 -28 22 -17 18 26 11 11 13 10 12 7 21 8 27 7 30 7 rrcurveto
          30 7 14 -1 -1 -11 -5 -31 12 -13 27 4 27 4 28 4 27 5 rrcurveto
          endchar
        </CharString>
        <CharString name="behDotless-ar.medi.sad">
          124 106 333 rmoveto
          -2 -1 -1 -14 callsubr
          -41 9 44 -15 60 hhcurveto
          60 52 8 9 57 hvcurveto
          66 11 85 16 49 21 rrcurveto
          -1 -5 -1 -3 -3 vvcurveto
          -4 1 -2 3 vhcurveto
          25 27 20 30 -73 callsubr
          0 3 6 vvcurveto
          4 0 2 -1 -1 -1 -2 46 callsubr
          rrcurveto
          -32 -92 -129 -31 -120 hhcurveto
          -57 -38 8 35 -21 hvcurveto
          -5 8 -3 11 12 vvcurveto
          29 13 41 27 52 vhcurveto
          -88 callsubr
          1 -2 vhcurveto
          endchar
        </CharString>
        <CharString name="behDotless-ar.medi.yeh">
          -106 281 264 rmoveto
          1 1 -8 4 -11 1 -14 -2 rlinecurve
          -45 -5 -40 -18 -33 -32 -58 -55 -45 -67 -28 -84 21 -7 rcurveline
          39 55 50 60 67 26 11 4 10 1 10 -4 -106 callsubr
          13 -4 11 -10 7 -15 4 -16 11 -7 17 1 5 1 7 1 8 2 62 135 rcurveline
          -34 -5 rlineto
          0 -1 0 -4 1 vhcurveto
          -10 12 -7 19 -15 8 rrcurveto
          endchar
        </CharString>
        <CharString name="comma-ar">
          -86 127 hmoveto
          -22 callsubr
          endchar
        </CharString>
        <CharString name="comma-ar.alt">
          -86 127 219 -5 callgsubr
        </CharString>
        <CharString name="dad-ar">
          517 689 794 -107 callsubr
          -340 -668 -25 callgsubr
        </CharString>
        <CharString name="dal-ar">
          3 242 311 -95 callsubr
        </CharString>
        <CharString name="dal-ar.fina">
          26 374 164 rmoveto
          -5 -5 -2 -4 -4 hvcurveto
          -14 -13 -17 -8 -18 -3 -99 -16 -109 -1 -93 -23 rrcurveto
          -7 -2 -3 -3 -3 vvcurveto
          -2 1 -1 2 -2 vhcurveto
          8 -7 25 -13 42 -18 42 -18 26 -10 11 -3 rrcurveto
          -8 25 24 -4 21 hhcurveto
          45 24 18 38 25 hvcurveto
          15 24 18 26 22 16 rrcurveto
          8 3 6 10 12 vvcurveto
          9 -5 8 -11 vhcurveto
          endchar
        </CharString>
        <CharString name="damma-ar">
          79 80 -22 callgsubr
        </CharString>
        <CharString name="dammainverted-ar">
          -36 26 rmoveto
          -7 -22 -4 -18 -14 vvcurveto
          -23 8 -18 20 5 5 2 2 5 vhcurveto
          22 9 32 33 29 vvcurveto
          28 -28 15 -19 11 vhcurveto
          6 6 8 7 10 7 41 29 51 32 42 27 rrcurveto
          7 4 2 2 1 vvcurveto
          -6 -1 -81 -20 -55 -27 -43 -58 rlinecurve
          -7 5 -6 1 -5 7 rrcurveto
          -8 -12 -7 -11 -14 vvcurveto
          -1 vlineto
          1 -9 5 -5 6 -4 rrcurveto
          37 -54 rmoveto
          -3 hlineto
          -12 -5 11 14 6 0 6 2 8 hvcurveto
          10 -5 27 -10 -14 vvcurveto
          -9 -11 -6 -8 -1 vhcurveto
          endchar
        </CharString>
        <CharString name="dammainverted-ar.urd">
          53 -9 rmoveto
          7 22 2 16 -1 9 -2 12 -6 1 -7 -8 -3 -2 -2 -3 -3 -4 rrcurveto
          -18 -12 -12 -8 -11 hhcurveto
          -9 3 -7 5 -4 7 rrcurveto
          1 hlineto
          -4 11 -1 19 2 15 8 42 18 58 18 33 3 7 3 5 1 2 1 4 0 2 -2 -2 -3 -1 -2 -2 -2 -2 -22 -25 -15 -25 -15 -39 -21 -54 -9 -32 8 -69 rrcurveto
          -27 3 15 -13 28 hhcurveto
          24 20 20 41 13 hvcurveto
          endchar
        </CharString>
        <CharString name="dammatan-ar">
          47 280 rmoveto
          -79 -25 -65 -52 -33 -72 -19 -32 -5 -53 29 -24 24 -20 32 9 22 15 23 49 rcurveline
          -22 -12 -60 -24 -7 42 -2 8 1 9 4 10 11 24 19 22 20 18 29 26 39 30 44 9 52 11 23 -15 -12 -52 rrcurveto
          -2 -6 0 -4 -2 vvcurveto
          1 -5 6 5 2 3 11 12 9 16 3 20 10 63 -57 12 -51 -15 rrcurveto
          32 -200 -22 callgsubr
        </CharString>
        <CharString name="ddal-ar">
          3 207 705 -98 callgsubr
          -57 -290 -95 callsubr
        </CharString>
        <CharString name="dotabove-ar">
          79 13 -107 callsubr
          endchar
        </CharString>
        <CharString name="dotbelow-ar">
          79 13 -107 callsubr
          endchar
        </CharString>
        <CharString name="dul-ar">
          3 380 636 -107 callgsubr
          -138 -325 -95 callsubr
        </CharString>
        <CharString name="eight-ar">
          12 351 139 rmoveto
          -65 138 -63 135 -30 169 -2 8 -11 -9 -3 -5 -15 -27 -2 -38 -8 -32 -32 -123 -34 -117 -50 -103 rrcurveto
          -48 -5 -45 -7 -41 vhcurveto
          3 -1 2 0 1 3 50 114 47 120 36 134 36 -117 52 -133 58 -121 15 47 15 48 12 44 rrcurveto
          endchar
        </CharString>
        <CharString name="eight-ar.dnom">
          -99 247 97 15 callgsubr
          -87 -24 -81 1 callgsubr
        </CharString>
        <CharString name="eight-ar.numr">
          -99 247 366 15 callgsubr
          -86 -24 -82 1 callgsubr
        </CharString>
        <CharString name="ellipsis">
          636 71 82 rmoveto
          -5 -5 -3 -6 -5 vvcurveto
          -4 2 -4 3 -4 vhcurveto
          43 -50 rlineto
          -5 4 5 -1 5 hhcurveto
          3 4 -68 callgsubr
          -5 -55 callgsubr
          293 -41 -10 callsubr
          5 -68 callgsubr
          -6 -55 callgsubr
          294 -41 -10 callsubr
          4 -68 callgsubr
          -5 -55 callgsubr
          endchar
        </CharString>
        <CharString name="emdash">
          636 205 vmoveto
          1000 58 -1000 hlineto
          endchar
        </CharString>
        <CharString name="endash">
          177 27 205 rmoveto
          487 58 -487 hlineto
          endchar
        </CharString>
        <CharString name="exclam">
          -111 132 194 rmoveto
          13 10 6 18 8 16 29 58 22 70 -7 98 -11 153 -56 100 -50 107 -20 -48 -22 -45 -18 -47 -3 -7 21 -30 4 -8 56 -108 50 -149 -30 -180 rrcurveto
          -2 -1 -13 9 7 vhcurveto
          -83 -109 -21 callsubr
        </CharString>
        <CharString name="fatha-ar">
          79 7 -6 callsubr
        </CharString>
        <CharString name="fathatan-ar">
          -24 callsubr
        </CharString>
        <CharString name="feh-ar">
          315 562 663 -107 callsubr
          -474 -629 -72 callgsubr
        </CharString>
        <CharString name="fehDotless-ar">
          315 88 34 -72 callgsubr
        </CharString>
        <CharString name="fehDotless-ar.fina">
          203 103 386 rmoveto
          -5 -4 -3 -6 -4 hvcurveto
          -24 -38 -24 -44 -23 -51 rrcurveto
          -13 -30 -7 -29 -27 vvcurveto
          -19 3 -18 7 -18 vhcurveto
          11 -33 21 -24 31 -17 rrcurveto
          -20 35 41 -9 52 hhcurveto
          114 112 33 38 77 hvcurveto
          16 4 57 16 46 30 35 44 rlinecurve
          35 44 28 49 20 54 rrcurveto
          5 20 3 17 15 vvcurveto
          39 -21 32 -39 -24 -26 -16 -32 -27 vhcurveto
          -47 -55 -42 -68 -37 -82 -37 -13 -48 -13 -60 -12 rrcurveto
          -8 -38 -36 -5 -34 hhcurveto
          -19 -17 1 3 -17 hvcurveto
          -49 7 -34 20 -20 34 rrcurveto
          -6 11 -3 13 15 vvcurveto
          33 14 44 29 54 vhcurveto
          2 5 1 3 3 vvcurveto
          6 -3 3 -7 vhcurveto
          444 -152 rmoveto
          6 2 5 4 5 -8 callsubr
          -24 -7 -21 -1 rrcurveto
          -9 4 -13 14 14 vvcurveto
          endchar
        </CharString>
        <CharString name="fehDotless-ar.fina.jalt">
          439 287 3 rmoveto
          87 -11 111 10 86 13 94 14 108 27 62 40 69 45 49 76 30 83 -96 callgsubr
          -47 -55 -42 -70 -38 -83 -76 -27 -96 -8 -93 -7 rrcurveto
          -96 callsubr
          35 -91 callgsubr
          10 18 18 18 61 58 76 42 90 28 -42 callgsubr
          -78 -3 -72 -9 -65 -17 -143 -37 -115 -57 -79 -103 -78 -101 -27 -123 40 callsubr
          574 297 rmoveto
          13 -5 11 -14 -90 callsubr
          -26 -12 -24 -7 -21 -1 -53 callgsubr
          14 28 32 10 rrcurveto
          endchar
        </CharString>
        <CharString name="fehDotless-ar.init">
          26 208 255 rmoveto
          25 22 13 69 callgsubr
          -9 -20 7 hvcurveto
          12 -36 -32 -25 -93 -29 -154 -33 rlinecurve
          -22 -129 100 21 65 19 33 17 rlinecurve
          33 17 30 25 27 31 29 33 22 43 13 54 rrcurveto
          5 21 3 20 19 vvcurveto
          62 -31 50 -37 27 vhcurveto
          6 -8 -7 3 -7 hhcurveto
          -11 -11 -7 -14 -10 hvcurveto
          -27 -36 -19 -46 81 callgsubr
          20 -10 25 vhcurveto
          endchar
        </CharString>
        <CharString name="fehDotless-ar.init.ain">
          189 456 215 rmoveto
          -12 -11 -27 -14 -42 -16 -70 -27 -102 -28 -92 8 -40 4 -24 16 -8 29 -13 -35 -13 -42 -13 -50 1 -29 27 -15 28 -3 65 -7 70 8 74 21 74 21 60 35 44 49 rrcurveto
          47 53 53 125 -47 93 -63 callgsubr
          -37 -19 -45 -22 -41 -10 -18 -1 -35 19 -9 11 callsubr
          0 0 vvcurveto
          endchar
        </CharString>
        <CharString name="fehDotless-ar.init.dal">
          65 328 118 rmoveto
          58 64 34 124 -41 81 -25 49 -45 41 35 callgsubr
          37 15 21 18 10 12 21 -68 2 -7 -30 -15 -157 -69 -67 17 rrcurveto
          -24 6 -13 30 2 29 rrcurveto
          4 -4 2 -4 -6 vhcurveto
          -40 -58 -29 -101 65 -32 68 -33 175 91 47 52 rrcurveto
          endchar
        </CharString>
        <CharString name="fehDotless-ar.init.feh">
          257 509 141 rmoveto
          29 32 22 43 13 55 21 90 -30 73 -51 37 -20 14 -18 -4 -17 -22 -27 -36 -18 -47 -22 -41 -11 -18 -1 -35 19 -9 33 -16 39 18 19 16 6 6 6 -9 8 -24 rrcurveto
          12 -36 0 0 0 vvcurveto
          -16 -14 -31 -16 -49 -18 -82 -31 -117 -31 -106 8 -46 3 -27 17 -8 30 -13 -35 -13 -42 -13 -50 1 -29 27 -15 28 -3 68 -7 80 8 93 23 93 23 70 38 49 54 rrcurveto
          endchar
        </CharString>
        <CharString name="fehDotless-ar.init.hah">
          -152 -42 callsubr
        </CharString>
        <CharString name="fehDotless-ar.init.heh">
          235 193 26 rmoveto
          52 62 52 41 52 19 52 19 46 29 38 39 52 54 50 117 -47 96 -13 24 -16 21 19 callsubr
          -10 -19 -1 -34 19 -9 rrcurveto
          11 callsubr
          -1 0 vvcurveto
          -5 -4 -20 -10 -36 -14 rrcurveto
          -14 -36 -19 -8 -2 hhcurveto
          -98 -29 -68 50 callsubr
          4 30 rcurveline
          -89 callgsubr
          rrcurveto
          endchar
        </CharString>
        <CharString name="fehDotless-ar.init.meem">
          51 316 200 rmoveto
          26 29 21 43 13 57 13 57 -2 48 -19 38 -13 24 -16 20 -20 14 -20 14 -18 -4 -16 -22 -27 -36 -19 -46 -59 callsubr
          -35 19 -9 33 -16 38 18 19 16 rrcurveto
          5 6 7 -10 8 -24 rrcurveto
          12 -36 1 0 0 vvcurveto
          -11 -9 -60 -14 -15 -6 -62 -14 -48 -18 -34 -35 -48 -50 -18 -69 -32 -69 21 -2 rcurveline
          31 77 57 30 84 22 50 13 45 23 28 35 rrcurveto
          endchar
        </CharString>
        <CharString name="fehDotless-ar.init.ragaa">
          314 249 224 rmoveto
          -11 -9 -17 -9 -23 -9 -106 callsubr
          -30 -14 -35 -13 -26 -18 rrcurveto
          0 -2 -1 -6 -5 vhcurveto
          -39 -29 -42 -33 -18 -50 45 -33 rcurveline
          1 5 5 0 vhcurveto
          30 21 37 22 32 20 rrcurveto
          1 vlineto
          4 3 3 1 2 1 33 17 35 31 21 23 21 30 17 30 10 30 27 71 -2 68 -31 63 -13 24 -16 20 19 callsubr
          rrcurveto
          -10 -18 -2 -35 19 -9 33 -17 39 17 19 17 15 13 18 -94 1 -5 rrcurveto
          -1 -2 0 -1 -2 vvcurveto
          endchar
        </CharString>
        <CharString name="fehDotless-ar.init.reh">
          18 285 149 rmoveto
          26 29 20 44 13 57 13 57 -2 47 -19 38 -13 24 -16 20 -20 14 -20 14 -18 -4 -17 -22 -27 -36 -18 -46 -22 -41 -10 -18 -1 -35 18 -9 33 -17 39 18 19 16 rrcurveto
          11 13 20 -74 1 -2 -16 -11 -24 -5 -22 -4 -60 -15 -44 -12 -28 38 callsubr
          -23 -7 -31 rrcurveto
          -1 vlineto
          -15 -18 -4 -16 9 -13 9 -13 10 2 11 17 rrcurveto
          1 hlineto
          16 15 19 13 25 12 66 29 79 12 45 51 rrcurveto
          endchar
        </CharString>
        <CharString name="fehDotless-ar.init.sad">
          356 522 280 rmoveto
          25 23 14 69 callgsubr
          -10 -20 7 hvcurveto
          12 -36 -43 -38 -102 -26 -74 -16 rlinecurve
          -15 -68 -78 -15 -73 hhcurveto
          -50 -34 13 32 -17 hvcurveto
          -4 8 -3 10 12 vvcurveto
          29 14 40 26 52 vhcurveto
          1 2 0 1 1 vvcurveto
          3 -3 0 -2 -2 -1 0 -2 -1 vhcurveto
          -10 -15 -15 -23 -103 callgsubr
          -22 -20 vvcurveto
          -55 -98 callsubr
          19 20 -1 23 hhcurveto
          21 22 2 2 24 hvcurveto
          106 10 103 30 81 39 91 44 52 56 26 104 rrcurveto
          5 21 2 19 19 vvcurveto
          29 -6 27 -12 25 vhcurveto
          45 callsubr
          -8 3 -7 hhcurveto
          -11 -11 -7 -14 -10 hvcurveto
          -27 -37 -18 -45 81 callgsubr
          19 -11 25 vhcurveto
          endchar
        </CharString>
        <CharString name="fehDotless-ar.init.yeh">
          -152 -42 callsubr
        </CharString>
        <CharString name="fehDotless-ar.jalt">
          671 416 1 rmoveto
          110 4 107 20 90 30 114 38 72 51 42 112 23 62 -1 56 -25 51 -63 callgsubr
          -36 -19 -46 -22 -41 -11 -18 0 -35 19 -9 rrcurveto
          33 -16 38 17 19 16 6 6 7 -9 8 -24 rrcurveto
          12 -36 0 0 0 vvcurveto
          -17 -15 -35 -17 -54 -19 -54 -19 -36 -10 -17 -4 -72 -16 -80 -8 -80 -6 -96 callsubr
          62 callgsubr
          19 18 17 61 58 75 42 90 28 rrcurveto
          22 callgsubr
          -38 -114 -57 -80 -102 -79 -101 -26 -123 92 -100 61 -66 140 -34 156 5 rrcurveto
          endchar
        </CharString>
        <CharString name="fehDotless-ar.medi">
          -81 404 415 -65 callsubr
          -51 -60 -43 -74 -34 -77 -180 -27 rcurveline
          -19 -129 97 21 137 34 57 16 47 31 35 44 rlinecurve
          2 callsubr
          -142 -201 -54 callgsubr
          15 29 32 10 21 callsubr
          -26 -12 -23 -7 -21 -2 rrcurveto
          -9 4 -14 14 14 vvcurveto
          endchar
        </CharString>
        <CharString name="fehDotless-ar.medi.ain">
          11 56 1 rmoveto
          81 -8 146 42 60 22 52 18 42 30 33 43 33 43 26 46 19 51 16 61 -9 -9 callsubr
          -47 -55 -42 -69 -38 -83 -43 -16 -69 -17 -57 6 rrcurveto
          -49 4 -28 16 -7 26 -13 -35 -13 -43 -13 -50 1 -29 27 -14 28 -3 rrcurveto
          370 288 13 callsubr
          -3 -16 -16 -7 -26 -12 -23 -7 -21 -2 -13 7 -19 22 15 20 18 24 15 28 32 10 rrcurveto
          endchar
        </CharString>
        <CharString name="fehDotless-ar.medi.dal">
          -75 241 38 rmoveto
          113 32 68 98 39 107 31 121 -84 42 -75 -88 -51 -60 -42 -70 -35 -78 -40 -7 -40 -13 -41 10 -25 6 -14 32 4 30 rrcurveto
          4 -2 2 -4 -6 vhcurveto
          -41 -57 -30 -105 66 -32 45 -22 117 44 41 10 rrcurveto
          98 238 rmoveto
          26 -10 29 -66 -32 -15 -22 -11 -25 -7 -24 -2 -15 8 -15 22 13 18 18 24 15 28 32 11 rrcurveto
          endchar
        </CharString>
        <CharString name="fehDotless-ar.medi.feh">
          127 213 11 rmoveto
          36 6 52 10 67 16 67 16 49 17 31 21 69 45 49 76 30 83 -96 callgsubr
          -48 -55 -42 -70 -37 -83 -59 -21 -65 -8 -72 -7 rrcurveto
          -71 -7 -87 0 -15 51 -101 callgsubr
          45 -4 52 3 60 10 rrcurveto
          328 291 51 callgsubr
          -26 -12 -23 -6 -21 -72 callsubr
          29 31 10 rrcurveto
          endchar
        </CharString>
        <CharString name="fehDotless-ar.medi.hah">
          -45 271 159 rmoveto
          57 16 46 30 35 44 35 44 27 49 20 54 -96 callgsubr
          -49 -57 -43 -69 -36 -82 -43 -8 -31 -11 -22 -15 -22 -15 -26 -29 -28 -44 rrcurveto
          -35 -53 -21 -46 -7 -37 rrcurveto
          -104 callgsubr
          31 49 43 40 55 28 52 27 18 -2 60 15 rrcurveto
          98 238 8 callsubr
          -8 -22 -1 -14 7 -17 75 callgsubr
          14 28 32 11 rrcurveto
          endchar
        </CharString>
        <CharString name="fehDotless-ar.medi.heh">
          147 463 143 rmoveto
          57 16 47 30 35 44 35 44 28 49 19 54 16 61 -9 -9 callsubr
          -48 -55 -42 -70 -37 -83 -59 -11 -47 -15 -36 -19 -73 -39 -46 -56 -38 -76 rrcurveto
          -19 -39 -22 -45 -25 -50 7 callgsubr
          32 68 24 55 19 42 37 83 44 50 84 34 41 17 59 17 76 18 rrcurveto
          99 238 rmoveto
          13 -5 10 -15 9 -24 9 -24 -3 -15 -16 -7 -25 -12 -24 -8 -21 -1 -13 7 -19 21 15 20 18 24 15 28 32 11 rrcurveto
          endchar
        </CharString>
        <CharString name="fehDotless-ar.medi.meem">
          -19 -41 callsubr
        </CharString>
        <CharString name="fehDotless-ar.medi.ragaa">
          -94 248 115 rmoveto
          18 6 21 12 25 19 60 45 42 70 28 76 -96 callgsubr
          -52 -61 -40 -70 -35 -77 -36 -6 -40 -12 -25 -19 -25 -19 -21 -31 -19 -44 rrcurveto
          -4 -11 -8 -10 -4 -10 -3 -10 -1 -6 -1 -2 40 -30 rcurveline
          19 23 23 22 23 17 16 11 13 7 11 5 29 12 48 10 26 8 rrcurveto
          72 229 15 callsubr
          -25 -8 -21 -1 -13 7 -16 22 13 20 18 24 15 27 31 11 rrcurveto
          endchar
        </CharString>
        <CharString name="fehDotless-ar.medi.reh">
          -50 435 444 -65 callsubr
          -49 -56 -43 -69 -36 -82 -20 -4 rcurveline
          -1 hlineto
          -2 -4 -13 0 -4 -1 rrcurveto
          -2 -1 hlineto
          -86 -9 -24 -5 -45 -74 -7 -11 -6 -12 -6 -13 rrcurveto
          -1 vlineto
          -10 -12 -5 -11 -9 vvcurveto
          -10 8 -13 9 6 5 5 9 7 vhcurveto
          14 14 24 10 33 7 33 7 31 8 29 8 rrcurveto
          1 1 vlineto
          11 3 11 3 11 2 75 17 54 28 43 54 2 callsubr
          -141 -200 -54 callgsubr
          14 27 32 11 rrcurveto
          13 -6 25 -31 -29 vvcurveto
          -11 -5 -8 -10 -5 vhcurveto
          -25 -12 -24 -7 -22 -2 rrcurveto
          -9 4 -13 14 15 vvcurveto
          endchar
        </CharString>
        <CharString name="fehDotless-ar.medi.sad">
          176 677 435 -65 callsubr
          -48 -56 -43 -69 -37 -82 -30 -8 -42 -11 -56 -14 rrcurveto
          -13 -52 -48 -7 -45 hhcurveto
          -52 -39 13 30 -23 hvcurveto
          -8 10 -4 13 16 vvcurveto
          29 13 38 24 49 vhcurveto
          -88 callsubr
          1 -2 -2 -1 -1 -2 -1 vhcurveto
          -64 callgsubr
          -39 9 41 -17 58 hhcurveto
          19 23 1 3 27 hvcurveto
          45 5 47 7 49 10 79 16 105 25 56 31 79 43 54 82 32 89 26 callsubr
          -141 -201 -54 callgsubr
          14 28 32 11 21 callsubr
          -24 -12 -24 -7 -22 -2 rrcurveto
          -9 4 -13 14 14 vvcurveto
          endchar
        </CharString>
        <CharString name="fehDotless-ar.medi.yeh">
          -19 -41 callsubr
        </CharString>
        <CharString name="five-ar">
          -26 223 43 rmoveto
          84 87 17 112 -44 109 -39 95 -68 102 -56 -121 -29 -63 -97 -292 53 -49 47 -44 96 26 36 38 rrcurveto
          32 134 rmoveto
          7 -25 -126 -34 -55 36 -40 26 65 121 28 26 12 11 18 2 14 -10 31 -23 36 -92 10 -38 rrcurveto
          endchar
        </CharString>
        <CharString name="five-ar.dnom">
          -99 172 30 rmoveto
          59 61 12 78 -31 77 -27 66 -48 72 -39 -85 -20 -44 -68 -205 37 -34 33 -31 67 19 25 26 rrcurveto
          23 94 rmoveto
          4 -18 -88 -23 -38 25 -28 18 45 85 20 18 8 8 13 1 10 -7 21 -16 26 -64 7 -27 rrcurveto
          endchar
        </CharString>
        <CharString name="five-ar.numr">
          -99 172 299 rmoveto
          59 61 12 78 -31 77 -27 66 -48 72 -39 -85 -20 -44 -68 -205 37 -34 33 -31 67 19 25 26 rrcurveto
          23 94 rmoveto
          4 -18 -88 -23 -38 25 -28 18 45 85 20 18 8 8 13 1 10 -7 21 -16 26 -64 7 -27 rrcurveto
          endchar
        </CharString>
        <CharString name="five-persian">
          80 401 310 rmoveto
          -44 97 -111 80 -81 69 -14 -46 -7 -23 -8 -48 8 -7 2 -2 9 -7 -43 -69 -102 -206 24 -82 47 -163 115 189 67 -50 76 -56 113 175 -51 149 rrcurveto
          -25 -133 rmoveto
          -11 -16 -26 -21 -20 7 -98 35 13 -59 -81 -10 -149 -19 126 256 42 60 81 -70 86 -59 37 -104 rrcurveto
          endchar
        </CharString>
        <CharString name="five-persian.dnom">
          -99 258 217 rmoveto
          -31 68 -78 56 -57 48 -9 -32 -5 -16 -6 -34 6 -5 1 -1 7 -5 -31 -48 -71 -144 17 -58 33 -114 80 132 47 -35 53 -39 79 123 -35 104 rrcurveto
          -18 -93 rmoveto
          -8 -11 -18 -15 -14 5 -68 24 9 -41 -57 -7 -104 -13 88 179 29 42 57 -49 60 -41 26 -73 rrcurveto
          endchar
        </CharString>
        <CharString name="five-persian.numr">
          -99 258 486 rmoveto
          -31 68 -78 56 -57 48 -9 -32 -5 -16 -6 -34 6 -5 1 -1 7 -5 -31 -48 -71 -144 17 -58 33 -114 80 132 47 -35 53 -39 79 123 -35 104 rrcurveto
          -18 -93 rmoveto
          -8 -11 -18 -15 -14 5 -68 24 9 -41 -57 -7 -104 -13 88 179 29 42 57 -49 60 -41 26 -73 rrcurveto
          endchar
        </CharString>
        <CharString name="four-ar">
          -6 269 38 rmoveto
          23 36 19 39 22 36 rrcurveto
          -5 3 -2 -1 0 vvcurveto
          -37 -23 -49 -16 -56 9 -38 7 -39 15 -7 36 58 93 63 62 -109 68 -8 5 -4 10 3 9 11 32 37 11 24 18 15 34 13 35 19 29 -10 -3 -6 -4 -7 -4 rrcurveto
          -64 -40 -47 -75 -34 -65 -72 -137 90 46 27 -71 -16 -49 -25 -36 -23 -39 -14 -25 9 -36 18 -16 53 -47 120 9 48 45 rrcurveto
          endchar
        </CharString>
        <CharString name="four-ar.dnom">
          -99 194 27 rmoveto
          16 25 14 27 15 25 rrcurveto
          -3 2 -2 0 0 vvcurveto
          -26 -16 -34 -12 -39 7 -27 5 -27 10 -5 25 41 65 44 44 -77 47 -5 4 -3 7 2 6 8 23 26 7 17 13 10 24 9 24 13 21 -7 -3 -4 -2 -5 -3 rrcurveto
          -44 -28 -33 -53 -24 -45 -51 -96 63 32 19 -50 -11 -34 -17 -25 -16 -27 -10 -18 6 -25 13 -11 37 -33 84 6 33 32 rrcurveto
          endchar
        </CharString>
        <CharString name="four-ar.numr">
          -99 194 296 rmoveto
          16 25 14 27 15 25 rrcurveto
          -3 2 -2 0 0 vvcurveto
          -26 -16 -34 -12 -39 7 -27 5 -27 10 -5 25 41 65 44 44 -77 47 -5 4 -3 7 2 6 8 23 26 7 17 13 10 24 9 24 13 21 -7 -3 -4 -2 -5 -3 rrcurveto
          -44 -28 -33 -53 -24 -45 -51 -96 63 32 19 -50 -11 -34 -17 -25 -16 -27 -10 -18 6 -25 13 -11 37 -33 84 6 33 32 rrcurveto
          endchar
        </CharString>
        <CharString name="four-persian">
          50 219 4 rmoveto
          71 106 -16 135 -64 105 -2 3 10 4 14 -2 107 -18 40 85 11 129 1 8 -10 -17 -1 -4 -7 -34 -103 -76 -42 76 -8 15 28 55 64 -30 39 -18 18 79 -68 -4 rrcurveto
          -35 -2 -92 -78 3 -62 -74 14 3 21 -32 62 -19 -38 -15 -41 -15 -39 21 -50 34 -39 27 -42 52 -80 64 -94 -14 -135 rrcurveto
          -2 8 4 2 4 vhcurveto
          endchar
        </CharString>
        <CharString name="four-persian.dnom">
          -99 141 3 rmoveto
          50 74 -11 95 -45 73 -1 2 7 3 9 -2 75 -12 28 59 8 91 1 5 -7 -12 -1 -2 -5 -24 -72 -53 -29 53 -6 10 20 39 44 -21 28 -13 12 56 -47 -3 rrcurveto
          -25 -2 -64 -54 2 -44 -52 10 2 15 -22 43 -13 -26 -11 -29 -10 -27 14 -35 24 -28 19 -29 36 -56 45 -66 -10 -94 -85 callgsubr
        </CharString>
        <CharString name="four-persian.numr">
          -99 141 272 rmoveto
          50 74 -11 95 -45 73 -1 2 7 3 9 -1 75 -13 28 59 8 91 1 5 -7 -12 -1 -2 -5 -24 -72 -53 -29 53 -6 10 20 39 44 -21 28 -13 12 56 -47 -3 rrcurveto
          -25 -2 -64 -54 2 -44 -52 10 2 15 -22 43 -13 -26 -11 -29 -10 -27 14 -35 24 -28 19 -29 36 -56 45 -66 -10 -94 -85 callgsubr
        </CharString>
        <CharString name="four-persian.urd">
          34 263 346 rmoveto
          1 vlineto
          21 30 49 108 41 129 -103 -35 rcurveline
          -34 -96 -37 49 -42 59 -30 -3 rlinecurve
          -113 -13 -8 -212 52 -89 39 -66 51 -101 -12 -107 6 4 3 5 1 5 17 64 31 63 -9 78 -22 79 -54 84 -29 72 51 71 81 -172 41 -12 3 -1 3 3 3 3 rrcurveto
          endchar
        </CharString>
        <CharString name="four-persian.urd.dnom">
          -99 176 242 rmoveto
          1 vlineto
          15 21 34 76 29 90 -72 -25 rcurveline
          -24 -67 -26 34 -29 42 -21 -2 rlinecurve
          -94 callsubr
          35 50 57 -121 29 -8 2 -1 2 -86 callsubr
        </CharString>
        <CharString name="four-persian.urd.numr">
          -99 176 511 rmoveto
          1 vlineto
          15 21 34 76 29 90 -72 -25 rcurveline
          -24 -67 -26 34 -29 42 -21 -2 rlinecurve
          -94 callsubr
          35 50 57 -121 29 -8 2 -1 2 -86 callsubr
        </CharString>
        <CharString name="fullstop-ar">
          -111 62 99 rmoveto
          -40 -99 165 20 45 99 rlineto
          endchar
        </CharString>
        <CharString name="gaf-ar">
          580 562 856 rmoveto
          -31 -52 300 172 31 52 rlineto
          -375 -880 -82 callsubr
        </CharString>
        <CharString name="gafsarkashabove-ar">
          -132 -58 rmoveto
          -31 -52 300 172 31 52 rlineto
          endchar
        </CharString>
        <CharString name="ghain-ar">
          319 272 769 -107 callsubr
          -66 -507 -20 callgsubr
        </CharString>
        <CharString name="hah-ar">
          319 -73 callgsubr
          endchar
        </CharString>
        <CharString name="hah-ar.fina">
          -176 387 395 rmoveto
          -34 -32 -53 -34 -39 -28 -79 -61 rcurveline
          -45 -41 -44 -65 -44 -88 -44 -88 -15 -79 15 -71 14 -65 34 -46 53 -26 121 -59 144 26 116 54 67 31 53 40 41 49 2 2 -1 1 -4 -1 -4 -1 -3 0 -3 -1 rrcurveto
          -18 -7 -48 -10 -78 -13 -52 -9 -52 -3 -52 2 -117 4 -92 35 -61 69 -20 22 -2 29 16 34 34 73 67 73 59 53 32 29 24 22 14 12 40 35 43 37 32 44 rrcurveto
          13 19 16 35 18 51 18 51 -7 33 -33 14 rrcurveto
          10 -25 -39 4 -53 hhcurveto
          -53 -36 -2 -4 -16 hvcurveto
          -16 -24 -34 -56 -9 -42 -3 -15 4 -7 12 3 rrcurveto
          4 23 34 2 46 hhcurveto
          46 38 -3 -7 31 hvcurveto
          2 -1 3 -4 3 -9 rrcurveto
          endchar
        </CharString>
        <CharString name="hah-ar.init">
          194 21 124 rmoveto
          -21 -124 8 1 6 2 8 2 rlinecurve
          2 1 1 2 hhcurveto
          22 6 25 4 23 4 rrcurveto
          1 vlineto
          21 4 19 4 16 3 rrcurveto
          -2 -10 -6 -18 -10 vvcurveto
          -4 2 -2 4 20 3 39 13 6 vhcurveto
          105 27 84 14 99 31 64 138 rcurveline
          -5 -9 -9 -2 -8 hhcurveto
          -12 -11 5 10 -9 hvcurveto
          -7 25 -10 23 -11 21 rrcurveto
          26 -14 -27 27 39 callsubr
          -42 -95 -27 -75 -60 -11 -60 -10 -60 -11 rrcurveto
          352 74 rmoveto
          1 -2 0 -2 -2 vvcurveto
          -3 -2 -2 -4 -1 vhcurveto
          -142 -28 14 35 12 23 callgsubr
          13 -18 10 -23 rrcurveto
          endchar
        </CharString>
        <CharString name="hah-ar.init.ain">
          261 267 145 rmoveto
          -67 -10 -141 -34 -20 74 -14 -37 -13 -42 -12 -48 1 -30 28 -14 27 -3 72 -7 28 11 61 13 -2 -12 -15 -36 19 7 16 6 3 29 7 14 105 27 83 16 99 32 64 137 rcurveline
          -24 -10 -18 2 -15 16 -14 48 -21 46 -40 20 -24 12 -23 -2 -21 -14 -61 -42 -41 -94 -27 -75 rrcurveto
          171 41 rmoveto
          3 -7 -2 -4 -6 -1 -141 -28 rcurveline
          84 callgsubr
          44 39 37 -60 13 -30 rrcurveto
          endchar
        </CharString>
        <CharString name="hah-ar.init.dal">
          272 277 144 rmoveto
          -120 -20 -37 3 -20 6 -33 10 -22 34 5 37 rrcurveto
          2 -3 1 -1 -3 vhcurveto
          -84 -159 8 -102 257 67 -2 -11 -4 -15 -2 -8 -1 -5 6 -6 4 1 20 5 -1 32 7 13 107 23 104 28 78 25 63 136 rcurveline
          -21 -9 -23 2 -13 15 -12 51 -22 43 -38 21 -96 52 -78 -197 -26 -72 rrcurveto
          170 42 rmoveto
          3 -7 2 -3 -11 -2 -140 -28 rcurveline
          16 34 13 38 28 23 17 14 23 -4 15 -13 16 -14 10 -17 8 -21 rrcurveto
          endchar
        </CharString>
        <CharString name="hah-ar.init.feh">
          427 425 168 rmoveto
          -71 -17 -102 -19 -82 -4 -59 -4 -59 8 -13 44 -13 -34 -13 -43 -13 -51 -91 callsubr
          100 -10 135 32 84 18 -2 -12 -15 -32 19 2 16 6 3 30 7 14 rrcurveto
          105 27 83 17 99 31 64 137 rcurveline
          -23 -11 -19 3 -15 17 -14 48 -21 46 -40 20 -24 12 -23 -2 -21 -14 -61 -42 -42 -96 -26 -75 rrcurveto
          171 42 rmoveto
          3 -7 -2 -3 -6 -1 -141 -29 rcurveline
          84 callgsubr
          44 39 37 -59 13 -31 rrcurveto
          endchar
        </CharString>
        <CharString name="hah-ar.init.hah">
          150 5 vmoveto
          -104 callgsubr
          8 13 16 22 25 28 25 28 53 35 83 42 83 42 58 44 35 44 35 44 24 48 13 51 13 51 -9 31 -33 14 -32 13 -39 4 -45 -7 -45 -7 -33 -12 -22 -15 rrcurveto
          -33 -23 -23 -42 -14 -61 -14 -61 5 -39 21 -19 -29 -17 -25 -19 -22 -21 -50 -48 -25 -80 -16 -80 rrcurveto
          399 383 rmoveto
          -3 -3 0 0 0 vvcurveto
          -43 -31 -42 -20 -49 -20 rrcurveto
          -1 1 -1 1 1 vvcurveto
          -14 28 -20 22 -11 31 14 11 29 9 45 6 49 6 35 -10 12 -32 rrcurveto
          endchar
        </CharString>
        <CharString name="hah-ar.init.heh">
          268 47 -242 rmoveto
          45 97 42 72 39 49 74 92 69 52 87 71 39 32 41 48 45 62 13 19 17 35 10 callsubr
          -33 -12 -22 -15 rrcurveto
          -33 -24 -23 -42 -12 -62 -12 -62 12 -51 37 -41 -3 -3 rcurveline
          -45 -36 -36 -35 -27 -35 -52 -67 -42 -79 -39 -78 -9 -18 rcurveline
          4 29 1 2 -54 -66 -3 -39 63 callgsubr
          8 -23 15 29 18 36 rrcurveto
          339 533 rmoveto
          -16 35 -28 31 -14 38 15 12 32 9 49 5 49 5 29 -12 10 -30 -34 -32 -54 -33 -38 -28 rrcurveto
          endchar
        </CharString>
        <CharString name="hah-ar.init.heh.ragaa">
          187 48 -240 rmoveto
          32 70 39 55 49 50 44 46 47 41 48 38 48 38 47 51 45 63 13 19 16 35 10 callsubr
          -34 -11 -21 -16 rrcurveto
          -33 -23 -23 -42 -12 -62 -12 -62 13 -51 37 -42 -1 -1 -2 -1 -1 -1 -58 -46 -44 -50 -29 -56 -10 -19 -8 -21 -11 -18 -7 -15 rcurveline
          47 callsubr
          -4 -42 2 -29 6 -17 rlinecurve
          8 -23 16 30 18 35 rrcurveto
          256 409 rmoveto
          -16 36 -27 31 -15 37 15 12 32 10 49 5 49 5 29 -12 10 -29 -34 -32 -53 -35 -39 -28 rrcurveto
          endchar
        </CharString>
        <CharString name="hah-ar.init.meem">
          203 243 250 rmoveto
          -95 -30 -57 -30 -20 -29 -36 -53 -14 -45 -21 -61 21 -2 rcurveline
          19 46 51 34 55 17 51 16 68 32 42 18 102 44 82 83 37 109 rrcurveto
          8 24 5 25 23 vvcurveto
          23 -9 16 -19 8 vhcurveto
          -32 13 -39 3 -45 -7 -45 -7 -33 -11 -22 -15 -28 -20 -21 -34 -14 -48 -14 -48 3 -47 20 -47 rrcurveto
          94 37 rmoveto
          -21 27 -16 30 -13 33 15 12 32 9 49 5 49 5 29 -11 10 -30 -34 -32 -54 -28 -46 -20 rrcurveto
          endchar
        </CharString>
        <CharString name="hah-ar.init.ragaa">
          314 173 206 rmoveto
          -3 -3 -9 -4 -15 -7 -27 -12 -22 -14 -20 -15 -24 -19 -18 -22 -11 -24 -6 -13 -15 -32 -3 -13 42 -29 rcurveline
          17 14 29 13 16 14 18 13 20 14 25 15 44 26 42 25 42 25 42 25 41 39 39 55 13 19 16 35 18 51 18 51 -8 33 -33 14 -32 13 -38 4 -45 -7 rrcurveto
          -45 -7 -33 -12 -22 -15 -35 -25 -26 -57 -11 -50 -9 -44 -2 -58 30 -16 rrcurveto
          100 29 rmoveto
          -16 36 -27 31 -14 37 15 12 31 9 49 5 49 5 30 -11 10 -30 -34 -32 -54 -34 -39 -28 rrcurveto
          endchar
        </CharString>
        <CharString name="hah-ar.init.reh">
          180 18 hmoveto
          6 5 5 9 7 hvcurveto
          19 19 37 19 54 21 51 16 68 31 42 18 102 44 82 84 37 109 rrcurveto
          8 24 5 24 23 vvcurveto
          23 -9 16 -19 8 vhcurveto
          -32 13 -39 4 -45 -7 -45 -7 -33 -12 -22 -15 -50 -36 -44 -112 35 -89 -45 -20 -43 -21 -44 -21 -44 -21 -30 -39 -17 -55 77 callgsubr
          9 -13 9 vhcurveto
          319 262 rmoveto
          -21 27 -16 31 -13 33 15 12 32 9 49 5 49 5 29 -12 10 -30 -34 -32 -54 -28 -46 -20 rrcurveto
          endchar
        </CharString>
        <CharString name="hah-ar.init.sad">
          433 106 333 rmoveto
          -2 -1 0 -14 callsubr
          -42 9 49 -15 60 hhcurveto
          31 35 4 8 40 hvcurveto
          60 11 50 10 42 9 rrcurveto
          -2 -10 -6 -16 -10 vvcurveto
          -4 3 -2 5 vhcurveto
          2 hlineto
          16 6 3 30 6 14 105 27 84 17 99 31 64 137 rcurveline
          -5 -9 -9 -2 -8 hhcurveto
          -12 -11 6 10 -9 hvcurveto
          -7 25 -9 22 -12 21 rrcurveto
          26 -15 -26 28 39 callsubr
          -43 -96 -26 -75 -41 -6 -47 -8 -52 -11 rrcurveto
          -8 -40 -35 -5 -32 hhcurveto
          -53 -37 13 35 -17 hvcurveto
          -4 7 -2 9 11 24 callsubr
          3 -3 0 -2 vhcurveto
          494 -121 rmoveto
          1 -2 0 -2 -1 vvcurveto
          -4 -2 -2 -4 -1 vhcurveto
          -141 -28 14 35 11 23 callgsubr
          12 -18 11 -23 rrcurveto
          endchar
        </CharString>
        <CharString name="hah-ar.init.yeh">
          150 5 vmoveto
          -104 callgsubr
          8 13 25 25 42 36 42 36 54 37 69 39 69 39 55 49 40 60 13 19 16 36 18 51 18 51 -7 32 -33 14 -32 13 -39 4 -45 -7 -45 -7 -33 -12 -22 -15 rrcurveto
          -33 -23 -23 -42 -14 -61 -14 -61 5 -39 21 -19 -29 -17 -25 -19 -22 -21 -50 -48 -25 -80 -16 -80 rrcurveto
          399 383 rmoveto
          -3 -3 0 0 0 vvcurveto
          -43 -31 -42 -20 -49 -20 rrcurveto
          -1 1 -1 1 1 vvcurveto
          -14 28 -20 22 -11 31 14 11 29 9 45 6 49 6 35 -10 12 -32 rrcurveto
          endchar
        </CharString>
        <CharString name="hah-ar.medi">
          -83 393 238 rmoveto
          -90 -52 -122 -36 -154 -20 rrcurveto
          -1 -3 vlineto
          -24 -129 4 1 8 2 11 2 rlinecurve
          211 54 130 64 49 74 29 45 21 35 23 54 8 18 -3 14 -12 9 -18 14 -32 10 -46 7 -46 7 -34 3 -21 -1 -18 -38 -19 -35 -17 -93 callgsubr
          rrcurveto
          13 -3 21 -2 30 -1 36 -1 68 -3 7 -24 -2 -3 -3 -3 -6 -3 rrcurveto
          endchar
        </CharString>
        <CharString name="hah-ar.medi.ain">
          31 507 231 rmoveto
          -94 -50 -94 -37 -117 -15 -52 -7 -39 2 -27 10 -24 8 -15 14 -6 21 -13 -35 -13 -43 -13 -50 1 -29 27 -14 28 -3 55 -5 55 2 55 9 132 23 111 62 63 95 rrcurveto
          29 45 21 35 23 54 7 18 -2 -43 callgsubr
          -31 9 -45 4 -45 4 -35 3 -23 6 -18 -38 -19 -35 -17 -93 callgsubr
          13 -3 22 -1 30 -1 rrcurveto
          30 -1 26 -56 callgsubr
          -2 -3 -3 -3 -6 -3 rrcurveto
          endchar
        </CharString>
        <CharString name="hah-ar.medi.dal">
          -73 47 9 rmoveto
          65 -36 203 73 94 110 38 44 35 57 16 49 7 21 -3 15 -10 8 -18 14 -33 8 -45 4 -45 4 -34 6 callgsubr
          36 -9 3 -10 -21 -13 -187 -99 -163 -24 15 111 rrcurveto
          8 -2 0 -5 -8 vhcurveto
          -32 -43 -52 -109 71 -39 rrcurveto
          endchar
        </CharString>
        <CharString name="hah-ar.medi.feh">
          74 246 16 rmoveto
          44 8 39 9 35 11 107 33 66 55 57 86 21 31 25 42 9 40 4 16 -3 11 -8 7 -19 15 -40 6 -32 5 -33 5 -45 2 -28 7 rrcurveto
          -1 hlineto
          -18 -38 -19 -35 -16 -39 -6 -12 1 -6 6 -1 13 -3 21 -1 30 -1 36 -1 67 -3 7 -24 -2 -3 -2 -3 -6 -3 -90 -48 -97 -31 -121 -17 -71 -10 -121 -10 -17 60 rrcurveto
          -101 callgsubr
          49 -5 64 5 77 14 rrcurveto
          endchar
        </CharString>
        <CharString name="hah-ar.medi.hah">
          -96 174 261 rmoveto
          -32 -8 -29 -15 -25 -23 -17 -16 -15 -21 -12 -26 -16 -33 -14 -49 -14 -65 rrcurveto
          -104 callgsubr
          26 49 39 33 47 25 52 28 62 17 48 32 43 27 37 39 33 50 29 46 22 34 22 54 7 18 -1 -59 callgsubr
          -34 4 -23 48 callsubr
          -40 -5 -11 0 -7 6 -1 13 -3 22 -2 30 -1 30 -1 27 -2 21 -5 19 -5 11 -6 3 -8 -1 -2 -4 -4 -6 -4 -74 -38 -52 -24 -80 -20 rrcurveto
          endchar
        </CharString>
        <CharString name="hah-ar.medi.heh">
          89 146 -51 rmoveto
          38 68 100 71 160 74 59 28 45 40 36 56 29 45 22 35 22 54 7 18 -1 -59 callgsubr
          -35 6 callgsubr
          20 -5 10 -6 2 -8 -1 -3 -3 -2 -6 -3 -49 -26 3 -1 -53 -15 rrcurveto
          -55 -16 -46 -13 -45 -25 -118 -65 -77 -145 -62 -125 -9 -18 rcurveline
          4 30 rlineto
          -23 callsubr
          31 62 31 64 40 71 rrcurveto
          endchar
        </CharString>
        <CharString name="hah-ar.medi.heh.ragaa">
          27 520 184 rmoveto
          32 37 1 4 30 52 16 28 0 19 -15 9 -45 28 -118 35 -63 11 -21 -41 -3 -8 -22 -54 -5 -10 0 -5 5 -1 56 -10 86 -28 42 -24 -2 -1 -2 -2 -2 -1 rrcurveto
          -1 hlineto
          -29 -15 -35 -11 -41 -7 -35 -6 -34 -9 -32 -13 -70 -28 -57 -56 -34 -65 -18 -35 -20 -39 -21 -41 -1 -2 rcurveline
          -7 -15 47 callsubr
          -5 -37 1 -29 8 -22 rlinecurve
          44 callsubr
          8 20 10 20 11 26 12 27 10 25 11 25 32 72 42 47 70 28 44 18 60 10 48 20 40 17 49 42 29 35 rrcurveto
          endchar
        </CharString>
        <CharString name="hah-ar.medi.meem">
          -58 18 hmoveto
          3 hlineto
          2 5 2 5 4 6 16 25 20 23 25 18 37 24 63 28 49 19 85 33 65 44 48 73 29 45 21 34 23 54 8 18 -2 15 -12 9 -18 14 -32 8 -45 4 rrcurveto
          -45 4 -34 4 -23 6 -1 -1 rcurveline
          -19 -39 -18 -33 -17 -40 -5 -11 0 -6 6 -1 38 -9 126 11 11 -36 -69 callsubr
          -50 -27 8 2 -56 -16 -50 -15 -43 -11 -44 -16 -48 -17 -35 -23 -22 -29 rrcurveto
          -21 -28 -19 -44 -16 -60 -6 -25 -5 -11 -10 -22 11 -1 rcurveline
          1 -1 3 -1 3 1 rrcurveto
          endchar
        </CharString>
        <CharString name="hah-ar.medi.ragaa">
          -166 318 274 rmoveto
          -91 -48 8 9 -89 -41 -61 -29 -41 -35 -20 -42 -3 -6 -14 -34 -3 -6 -1 -3 -1 -4 -2 -5 42 -30 rcurveline
          17 13 29 15 16 14 28 21 23 14 20 7 42 15 32 23 31 33 16 18 19 26 22 34 20 31 20 28 16 34 9 19 13 16 -1 29 -1 7 -3 7 -6 4 rrcurveto
          -18 14 -32 12 -45 10 -45 10 -33 8 -23 6 rrcurveto
          -1 hlineto
          -18 -38 -19 -35 -17 -93 callgsubr
          56 -13 54 -9 51 -18 8 -4 5 -4 1 -6 -1 -3 -4 -3 -6 -3 rrcurveto
          endchar
        </CharString>
        <CharString name="hah-ar.medi.reh">
          -85 392 288 rmoveto
          -36 -19 -33 -15 -27 -11 -53 -23 -57 -14 -55 -21 -28 -11 -42 -18 -14 -21 -16 -23 -4 -30 -13 -27 -93 callsubr
          38 38 70 22 57 22 98 37 62 35 52 80 29 45 22 35 22 54 7 18 -1 -43 callgsubr
          -33 8 -45 4 rrcurveto
          -45 4 -34 4 -23 6 -18 -38 -19 -35 -17 -93 callgsubr
          13 -3 22 -2 30 -1 36 -1 68 -3 6 -24 -1 -3 -3 -2 -6 -4 rrcurveto
          endchar
        </CharString>
        <CharString name="hah-ar.medi.sad">
          177 83 7 rmoveto
          119 -18 124 16 127 50 127 50 92 83 56 115 5 9 6 14 7 18 7 18 -2 -59 callgsubr
          -35 4 -22 6 -19 -38 -19 -34 -16 -40 rrcurveto
          -6 -11 0 -7 7 -1 13 -3 21 -1 30 -1 30 -1 27 -56 callgsubr
          -1 -1 -4 -4 -6 -5 -22 -12 -19 -9 -18 -6 -73 -26 -78 -24 -86 -20 rrcurveto
          -101 -23 -119 -12 -45 67 -19 28 8 48 34 68 28 callsubr
          -10 -14 -15 -23 -56 callsubr
          -15 -34 -11 -36 -11 -36 -2 -32 7 -30 rrcurveto
          7 -30 23 -18 43 -6 rrcurveto
          endchar
        </CharString>
        <CharString name="hah-ar.medi.yeh">
          -77 12 2 rmoveto
          30 56 52 39 63 27 76 32 77 24 60 50 16 13 19 23 21 33 35 54 9 15 22 53 7 18 -2 -43 callgsubr
          -32 9 -45 4 -45 4 -34 3 -22 48 callsubr
          -39 -5 -12 0 -6 6 -1 13 -3 22 -2 30 -1 30 -1 26 -56 callgsubr
          -1 -2 -5 -2 -9 -3 -72 -23 -75 -21 -71 -24 rrcurveto
          -68 -23 -37 -27 -30 -65 -15 -32 -14 -48 -13 -63 -105 callsubr
          endchar
        </CharString>
        <CharString name="hamza-ar">
          67 84 hmoveto
          39 46 6 12 25 hvcurveto
          34 16 29 38 30 41 28 39 26 32 -2 19 -5 51 -72 -16 -26 46 28 24 23 8 38 10 8 15 25 30 10 17 rrcurveto
          17 10 12 23 -14 hhcurveto
          -14 -35 -20 -11 -15 hvcurveto
          -91 -63 -91 -118 26 -45 11 -19 27 -19 35 -8 17 -4 11 -10 -24 -12 -48 -24 -80 -28 -44 -28 rrcurveto
          -16 -25 18 -3 30 hhcurveto
          endchar
        </CharString>
        <CharString name="hamzaabove-ar">
          10 -47 -106 callgsubr
          endchar
        </CharString>
        <CharString name="hamzabelow-ar">
          10 -47 -106 callgsubr
          endchar
        </CharString>
        <CharString name="heh-ar">
          -117 -79 callsubr
        </CharString>
        <CharString name="heh-ar.fina">
          -168 78 135 rmoveto
          8 9 1 3 9 hvcurveto
          32 9 27 17 21 24 13 -189 rcurveline
          74 138 -18 263 rlineto
          44 -12 26 -25 10 vhcurveto
          2 -6 -6 2 -7 hhcurveto
          -20 -22 -12 -23 -25 hvcurveto
          -9 -8 -14 -18 -18 -26 -33 -47 -37 -65 -15 -61 rrcurveto
          -2 -9 -2 -9 -8 vvcurveto
          -41 46 -23 32 vhcurveto
          93 153 rmoveto
          -7 -1 -7 -1 -6 vhcurveto
          -3 -11 -10 -2 -10 hhcurveto
          -32 -27 14 20 -10 hvcurveto
          -3 5 -2 5 4 vvcurveto
          5 2 4 4 5 vhcurveto
          8 10 10 9 12 10 rrcurveto
          7 8 8 3 10 hhcurveto
          38 7 -36 -40 hvcurveto
          endchar
        </CharString>
        <CharString name="heh-ar.init">
          221 343 391 rmoveto
          -15 -17 76 callgsubr
          -148 -24 rcurveline
          -23 -130 60 16 61 11 60 16 rlinecurve
          -1 vlineto
          2 2 7 0 2 hhcurveto
          11 hlineto
          151 81 67 101 66 hvcurveto
          30 46 17 41 4 38 rrcurveto
          1 11 1 11 11 vvcurveto
          17 -2 16 -3 17 vhcurveto
          -5 28 -4 30 -5 31 -7 45 -13 29 -18 12 rrcurveto
          8 -12 -13 3 -13 hhcurveto
          -8 -8 57 callgsubr
          -30 -32 -15 -43 rrcurveto
          -1 -1 0 0 vhcurveto
          -3 3 -12 callsubr
          6 2 6 hhcurveto
          20 17 -18 -78 callgsubr
          13 -70 74 callgsubr
          -15 59 callgsubr
          11 13 vvcurveto
          28 -20 57 -31 vhcurveto
          -117 -201 rmoveto
          3 1 3 -11 callsubr
          -17 -15 -23 -12 -28 -8 rlinecurve
          -1 hlineto
          -6 -12 13 9 hvcurveto
          endchar
        </CharString>
        <CharString name="heh-ar.init.ain">
          338 445 389 rmoveto
          -15 -16 76 callgsubr
          rrcurveto
          -2 vlineto
          -66 -14 -147 -38 -22 77 -78 callsubr
          41 -4 40 3 38 10 38 10 39 10 40 10 rrcurveto
          1 1 1 1 hhcurveto
          1 11 vlineto
          151 81 67 101 66 hvcurveto
          30 46 16 41 4 38 rrcurveto
          1 11 1 11 11 vvcurveto
          17 -1 16 -3 17 vhcurveto
          -5 28 -4 30 27 callsubr
          3 5 callsubr
          -30 -32 -15 -43 rrcurveto
          -1 vlineto
          -3 2 -12 callsubr
          7 2 6 hhcurveto
          20 16 -18 -78 callgsubr
          14 -70 74 callgsubr
          -15 59 callgsubr
          11 13 vvcurveto
          28 -21 57 -31 vhcurveto
          -116 -201 rmoveto
          3 1 3 1 29 callgsubr
          -14 -26 9 hvcurveto
          2 -3 -17 -15 -23 -11 -28 -8 rlinecurve
          -2 hlineto
          -6 -11 12 9 hvcurveto
          endchar
        </CharString>
        <CharString name="heh-ar.init.dal">
          237 195 29 rmoveto
          1 7 7 1 7 hhcurveto
          90 -1 70 24 53 41 60 46 72 107 8 76 6 54 -13 55 -10 62 -29 181 -133 -106 -65 -88 -25 -34 -30 -32 -14 -43 -3 -8 20 1 6 6 31 34 22 45 44 22 rrcurveto
          29 14 24 -21 9 -19 31 -64 14 -82 -4 -94 -34 -21 -42 -16 -49 -9 16 31 17 32 15 32 28 58 -50 113 -72 -84 -50 -58 -39 -70 -31 -75 rrcurveto
          1 vlineto
          -33 -7 -38 -11 -33 9 -24 6 -13 30 2 29 1 4 -5 2 -4 -6 -40 -58 -28 -101 65 -32 39 -19 81 33 37 9 rrcurveto
          52 170 rmoveto
          23 49 38 21 22 -63 rrcurveto
          0 1 -1 1 -2 vhcurveto
          -18 -15 -25 -12 -25 -8 -6 -2 -18 18 7 15 rrcurveto
          endchar
        </CharString>
        <CharString name="heh-ar.init.feh">
          453 422 51 rmoveto
          154 -1 82 66 67 102 30 46 16 42 4 38 6 43 callgsubr
          1 -22 -7 -48 -16 -50 -53 -28 -38 -25 -34 -31 -31 -14 -44 rrcurveto
          -4 -10 25 7 3 3 16 17 14 18 14 20 14 20 17 14 22 11 30 15 22 -24 9 -16 32 -65 13 -80 -4 -96 -34 -21 -41 -15 -49 -9 16 31 15 32 16 31 rrcurveto
          14 29 -3 32 -20 36 -20 36 -29 -3 -36 -42 -50 -58 -38 -69 -31 -75 -52 -11 -88 -16 -64 -3 -62 -3 -78 3 -12 45 -13 -34 -13 -43 -13 -51 -91 callsubr
          rrcurveto
          105 -11 155 36 86 22 rrcurveto
          -1 3 13 3 4 hhcurveto
          117 172 rmoveto
          -16 -14 -23 -12 -29 -9 -3 -1 -5 3 -6 7 -6 7 -1 -65 callgsubr
          -1 1 -1 1 -1 vhcurveto
          endchar
        </CharString>
        <CharString name="heh-ar.init.hah">
          263 454 217 rmoveto
          30 23 30 -77 callgsubr
          16 42 3 callsubr
          2 24 callgsubr
          7 3 3 15 17 14 17 -100 callgsubr
          30 14 24 -22 8 -17 32 -65 13 -81 -4 -95 -33 -21 -41 -15 -50 -9 18 35 16 30 14 29 rrcurveto
          14 29 -4 32 -20 36 -20 36 -29 -4 -36 -42 -47 -54 -39 -67 -33 -81 -45 -8 -46 -22 -26 -17 -26 -18 -20 -24 -13 -31 -13 -31 -13 -46 -12 -60 rrcurveto
          -104 callgsubr
          24 39 22 29 31 25 32 24 47 20 45 10 rrcurveto
          3 12 10 1 7 hhcurveto
          85 -1 70 21 57 44 rrcurveto
          -97 108 rmoveto
          -17 -15 -22 -12 -28 -8 -3 -1 -5 3 -6 7 -6 7 -1 -65 callgsubr
          0 0 0 1 -3 vhcurveto
          endchar
        </CharString>
        <CharString name="heh-ar.init.heh">
          416 387 148 rmoveto
          85 -1 71 22 57 44 30 23 29 -77 callgsubr
          16 41 4 38 7 43 callgsubr
          2 -22 -7 -48 -16 -50 -53 -29 -38 rrcurveto
          -25 -33 -30 -33 -15 -43 rrcurveto
          -4 -1 3 -2 7 hhcurveto
          7 5 2 3 3 hvcurveto
          15 17 14 18 14 20 14 20 18 15 22 11 30 15 22 -25 9 -16 32 -66 13 -80 -4 -94 -34 -21 -41 -15 -49 -9 16 31 16 32 16 32 14 29 -4 32 -20 35 rrcurveto
          -20 35 -28 -3 -36 -42 -50 -58 -39 -68 -31 -76 rrcurveto
          1 vlineto
          -3 -1 rlineto
          -1 hlineto
          -36 -12 -27 -17 -20 -19 -20 -19 -25 -29 -31 -40 -105 callgsubr
          41 49 44 34 54 30 rrcurveto
          -1 vlineto
          4 18 15 6 22 hhcurveto
          116 172 78 callgsubr
          3 -6 7 -6 7 -2 -65 callgsubr
          0 0 -1 2 -3 vhcurveto
          endchar
        </CharString>
        <CharString name="heh-ar.init.meem">
          277 466 211 rmoveto
          30 23 30 33 30 46 30 46 16 42 4 38 7 62 -14 53 32 callsubr
          3 -22 -7 -48 -16 -50 -54 -29 -38 -25 -33 72 callgsubr
          15 17 15 18 -100 callgsubr
          30 14 23 -24 9 -16 31 -66 13 -79 -4 -95 -84 callgsubr
          14 29 -4 32 -20 36 -20 36 -28 -4 -36 -42 -47 -54 -40 -68 -33 -81 -15 -4 -33 -12 -13 -6 -62 -26 -36 -46 -27 -63 -14 -31 -12 -33 -14 -32 21 -2 rcurveline
          13 31 16 25 21 19 19 17 25 13 31 12 21 8 22 7 21 7 rrcurveto
          2 1 0 1 2 hvcurveto
          74 23 14 -5 19 -5 20 3 rlinecurve
          52 8 32 16 40 31 rrcurveto
          -96 107 78 callgsubr
          2 -74 callsubr
          16 17 6 17 6 13 -14 11 -31 rrcurveto
          0 1 0 1 -3 vhcurveto
          endchar
        </CharString>
        <CharString name="heh-ar.init.ragaa">
          314 256 103 rmoveto
          86 -1 70 21 56 44 52 40 80 108 8 81 7 62 -15 53 -9 56 -7 45 -13 29 -18 12 -18 12 -21 2 -22 -7 -48 -16 -51 -53 -28 -38 -25 -34 72 callgsubr
          16 17 14 19 14 20 14 20 18 14 21 11 30 14 23 -22 8 -17 32 -65 14 -81 -5 -95 -33 -21 -41 -15 -50 -9 16 31 16 32 16 32 rrcurveto
          14 29 -4 31 -20 36 -20 36 -28 -3 -36 -42 -50 -58 -39 -69 -31 -76 -20 -5 -20 -6 -21 -8 -56 -25 -31 -33 -38 -41 -21 -24 -14 -20 -7 -18 46 -33 rcurveline
          1 2 1 1 2 2 62 39 54 51 90 9 rrcurveto
          116 171 rmoveto
          -16 -14 -23 -11 -29 -9 -3 -1 -4 3 -74 callsubr
          15 17 6 18 6 15 -17 10 -31 rrcurveto
          endchar
        </CharString>
        <CharString name="heh-ar.init.reh">
          224 348 425 rmoveto
          -15 -17 -11 -23 -19 hvcurveto
          -46 -53 -39 -66 -33 -78 rrcurveto
          1 vlineto
          -1 -2 0 -2 -1 -2 rrcurveto
          -1 1 hlineto
          -4 -1 -5 0 -4 -1 rrcurveto
          -1 hlineto
          -40 -12 -30 -12 -23 -25 -21 -22 -20 -30 -14 -32 -88 callgsubr
          35 35 37 8 49 15 4 1 10 2 15 4 rrcurveto
          3 2 1 3 hhcurveto
          1 5 4 0 4 hhcurveto
          5 hlineto
          83 69 21 43 55 hvcurveto
          30 23 30 -77 callgsubr
          17 42 4 38 rrcurveto
          1 10 0 9 10 vvcurveto
          17 -1 18 -3 18 -18 callsubr
          -30 -32 -14 25 callsubr
          1 rlineto
          7 6 1 10 callgsubr
          16 -18 -78 callgsubr
          14 -69 -81 vvcurveto
          -11 0 -11 -1 -11 vhcurveto
          -84 callgsubr
          6 11 2 12 13 vvcurveto
          28 -20 57 -31 vhcurveto
          -112 -195 rmoveto
          3 1 3 1 3 vhcurveto
          11 24 14 15 17 6 rrcurveto
          1 3 2 0 2 hhcurveto
          13 12 -13 -26 9 hvcurveto
          2 -4 -18 -14 -22 -12 -28 -8 rlinecurve
          -1 hlineto
          -6 -12 13 9 hvcurveto
          endchar
        </CharString>
        <CharString name="heh-ar.init.sad">
          543 651 413 rmoveto
          -15 -17 -11 -23 -19 hvcurveto
          -50 -58 -38 -68 -32 -76 -41 -8 -48 -11 -57 -12 rrcurveto
          -10 -46 -42 -5 -38 hhcurveto
          -58 -43 13 34 -23 hvcurveto
          -7 9 -2 12 15 vvcurveto
          28 12 37 23 47 -95 callgsubr
          2 -1 0 -1 1 vhcurveto
          -3 hlineto
          -2 -1 0 -57 callgsubr
          -22 -20 vvcurveto
          -55 -98 callsubr
          18 19 0 20 hhcurveto
          43 49 6 12 54 hvcurveto
          79 17 68 15 58 15 rrcurveto
          1 hlineto
          2 7 7 0 6 hhcurveto
          6 hlineto
          150 81 68 100 65 hvcurveto
          30 46 17 41 4 38 rrcurveto
          1 10 0 11 10 vvcurveto
          51 -10 40 -8 49 vhcurveto
          -7 45 -13 29 -18 12 rrcurveto
          8 -12 -12 4 -13 hhcurveto
          -8 -9 57 callgsubr
          -31 -32 -14 -43 rrcurveto
          -1 -1 -1 0 vhcurveto
          -3 3 -1 6 vhcurveto
          1 hlineto
          7 4 2 3 3 hvcurveto
          16 17 14 18 -100 callgsubr
          rrcurveto
          3 7 7 2 6 hhcurveto
          20 15 -19 -12 6 hvcurveto
          28 -58 14 -68 -81 vvcurveto
          -11 1 -11 -1 -11 vhcurveto
          -33 -21 -42 -16 -50 -9 19 37 16 32 13 26 rrcurveto
          6 11 3 12 13 vvcurveto
          28 -21 57 -31 vhcurveto
          -114 -186 rmoveto
          3 1 2 2 29 callgsubr
          -13 -26 9 hvcurveto
          0 0 -2 1 -2 vhcurveto
          -16 -13 -22 -11 -29 -10 rrcurveto
          -2 hlineto
          -6 -12 14 8 hvcurveto
          endchar
        </CharString>
        <CharString name="heh-ar.init.yeh">
          266 457 191 rmoveto
          30 23 29 -77 callgsubr
          17 41 3 callsubr
          3 24 callgsubr
          6 3 3 15 17 14 18 -100 callgsubr
          30 14 23 -23 8 -17 32 -65 13 -80 -4 -95 -84 callgsubr
          14 29 -3 32 -20 36 -20 36 -29 -4 -36 -42 -46 -54 -40 -67 -34 -81 -15 -4 -32 -13 -14 -6 -47 -20 -32 -27 -17 -33 -17 -33 -19 -43 -23 -52 -106 callsubr
          20 -4 21 41 27 27 33 14 rlinecurve
          33 14 32 12 34 11 49 12 43 5 36 -1 36 -1 44 19 49 38 rrcurveto
          -97 107 rmoveto
          -17 -15 -23 -11 -28 -8 -3 -1 -4 2 -74 callsubr
          16 17 6 17 6 13 -14 11 -31 rrcurveto
          0 1 0 1 -3 vhcurveto
          endchar
        </CharString>
        <CharString name="heh-ar.medi">
          -152 217 -273 rmoveto
          7 11 15 28 13 hvcurveto
          1 3 1 1 1 vvcurveto
          16 137 -8 -16 41 291 rlineto
          2 vlineto
          4 -1 2 -3 -2 -1 -1 -1 -3 vhcurveto
          -90 -36 -67 -11 -113 -15 -19 -131 rcurveline
          59 15 108 25 58 15 -19 -68 callsubr
          -14 -50 callgsubr
          vhcurveto
          endchar
        </CharString>
        <CharString name="heh-ar.medi.ain">
          22 39 176 rmoveto
          -13 -35 -13 -43 -13 -50 1 -29 27 -14 28 -3 52 -5 51 4 51 11 51 11 50 12 49 13 -19 -232 rcurveline
          -4 -41 89 callgsubr
          40 1 2 1 2 1 2 15 136 rcurveline
          -8 -15 42 290 2 10 -4 2 -9 -6 rlinecurve
          -69 -28 -110 -30 -94 1 rrcurveto
          -50 -51 10 37 -11 hvcurveto
          endchar
        </CharString>
        <CharString name="heh-ar.medi.dal">
          -107 258 -244 rmoveto
          14 137 -7 -16 41 291 1 7 -6 2 -6 -3 rlinecurve
          -48 -19 -45 -14 -51 -10 -26 -3 -24 0 -16 4 -26 7 -14 34 5 30 rrcurveto
          3 -2 0 -2 -3 vhcurveto
          -42 -57 -33 -107 67 -33 45 -22 110 42 39 10 -19 -232 rcurveline
          -7 -83 11 -52 38 81 rrcurveto
          endchar
        </CharString>
        <CharString name="heh-ar.medi.feh">
          105 470 -217 rmoveto
          15 136 -8 -15 42 290 1 9 -4 2 -8 -5 rlinecurve
          -19 -7 -34 -11 -48 -13 -82 -23 -111 -23 -99 8 -43 3 -26 15 -7 27 -13 -35 -13 -43 -13 -50 1 -29 27 -14 28 -3 57 -6 66 5 72 16 72 16 65 14 56 15 -19 -232 rcurveline
          -4 -41 2 61 callgsubr
          2 1 2 rrcurveto
          endchar
        </CharString>
        <CharString name="heh-ar.medi.hah">
          35 375 -20 rmoveto
          -1 -1 rlineto
          -1 vlineto
          -4 -51 -4 -41 2 85 callgsubr
          13 12 19 40 rrcurveto
          1 3 1 2 1 vvcurveto
          15 136 -8 -16 8 57 9 56 8 57 rlinecurve
          1 4 3 30 2 20 -6 31 rlinecurve
          -8 41 -23 20 -37 -4 -37 -4 -40 -13 -43 -23 -61 -32 -97 -69 -41 -40 -21 -38 -20 -43 -18 -41 rrcurveto
          -2 7 -10 3 3 vhcurveto
          11 18 14 16 15 14 38 34 19 19 49 32 40 27 60 33 61 -6 25 -3 18 -15 10 -29 15 -46 -4 -60 -6 -54 rrcurveto
          endchar
        </CharString>
        <CharString name="heh-ar.medi.heh">
          219 583 -63 rmoveto
          15 136 -8 -15 41 290 2 10 -3 2 -9 -6 rlinecurve
          -49 -19 -42 -13 -35 -7 -80 -16 -54 -19 -58 -44 -31 -24 -35 -38 -41 -52 -105 callgsubr
          34 41 35 38 43 31 41 29 39 17 39 6 39 6 44 9 50 13 -19 -232 rcurveline
          -4 -41 2 -30 6 -17 6 -17 13 12 19 40 rrcurveto
          endchar
        </CharString>
        <CharString name="heh-ar.medi.meem">
          -1 335 134 rmoveto
          6 -35 -2 -63 -1 -46 -1 -32 -7 -194 -2 -28 -4 -42 89 callgsubr
          41 82 callgsubr
          7 121 rcurveline
          5 115 6 92 9 69 9 69 3 52 -2 34 -2 33 -19 22 -37 10 -37 10 -34 -2 -32 -14 -83 -38 -82 -79 -40 -80 -13 -27 -17 -28 -9 -30 rrcurveto
          -11 -4 1 -6 5 hhcurveto
          5 4 2 5 3 hvcurveto
          14 22 12 23 13 23 28 50 62 42 61 15 30 7 28 1 24 -7 24 -7 14 -16 6 -27 rrcurveto
          endchar
        </CharString>
        <CharString name="heh-ar.medi.ragaa">
          -29 287 210 rmoveto
          -54 -3 -48 -31 -43 -59 -43 -59 -33 -52 -23 -45 -17 -29 -15 -34 -11 -33 45 -33 rcurveline
          6 14 6 10 8 18 18 39 28 46 36 56 36 56 44 27 53 -1 32 -1 10 -36 -12 -72 -2 -13 -2 -11 -1 -10 -4 -42 2 -30 6 -17 8 -22 15 27 18 36 14 136 rcurveline
          -8 -15 3 18 4 22 4 25 rlinecurve
          8 47 10 64 -45 5 -23 3 -16 0 -9 -1 rrcurveto
          endchar
        </CharString>
        <CharString name="heh-ar.medi.reh">
          -51 16 -1 rmoveto
          6 5 4 10 7 hvcurveto
          1 hlineto
          9 10 64 28 20 hhcurveto
          41 11 80 15 38 10 -18 -68 callsubr
          -13 -50 callgsubr
          7 11 14 28 13 vhcurveto
          1 2 0 2 1 2 15 137 rcurveline
          -8 -16 42 290 rlineto
          3 vlineto
          4 -1 3 -3 -2 -2 -1 -2 -3 vhcurveto
          -101 -40 4 5 -110 -16 -19 -3 -19 -7 -18 -10 -25 -14 -33 -46 36 callgsubr
          endchar
        </CharString>
        <CharString name="heh-ar.medi.sad">
          216 549 -245 rmoveto
          7 11 14 28 13 hvcurveto
          82 callgsubr
          14 136 rcurveline
          -7 -15 41 290 rlineto
          4 vlineto
          3 -1 2 -3 -2 -2 0 -2 -3 vhcurveto
          -49 -20 -65 -18 -80 -16 -80 -16 -67 -11 -56 -6 rrcurveto
          -1 -13 -12 -1 -11 hhcurveto
          -42 -33 8 18 -24 hvcurveto
          -12 9 -7 15 20 vvcurveto
          30 14 42 27 53 -95 callgsubr
          2 -1 0 -2 1 vhcurveto
          -2 hlineto
          -41 callgsubr
          -10 -15 -15 -24 -56 callsubr
          -15 -34 -11 -36 rrcurveto
          -7 -22 -3 -21 -20 vvcurveto
          -12 1 -11 3 -11 vhcurveto
          -45 10 55 -13 63 hhcurveto
          51 60 8 16 71 hvcurveto
          98 22 81 21 63 16 -19 -68 callsubr
          -14 -50 callgsubr
          vhcurveto
          endchar
        </CharString>
        <CharString name="heh-ar.medi.yeh">
          -35 304 86 rmoveto
          -4 -36 -3 -86 -3 -38 -4 -41 1 61 callgsubr
          1 1 2 16 136 rcurveline
          -8 -14 14 100 7 41 14 47 -3 48 rlinecurve
          -3 33 -19 22 -37 10 -37 10 -34 -2 -32 -14 -43 -20 -34 -27 -27 -34 -36 -47 -28 -51 -28 -55 -2 -4 -26 -56 12 -1 rrcurveto
          43 callsubr
          14 21 12 24 12 23 16 28 22 25 30 20 44 30 66 28 49 -37 20 -15 7 -28 -4 -40 rrcurveto
          endchar
        </CharString>
        <CharString name="hehDoachashmee-ar">
          377 493 350 rmoveto
          -15 -17 -11 -23 -20 hvcurveto
          -47 -54 -40 -68 -33 -81 -317 -11 rcurveline
          28 callgsubr
          40 32 -8 23 hhcurveto
          3 3 -1 1 3 hvcurveto
          2 21 29 2 36 hhcurveto
          17 hlineto
          151 81 66 101 66 hvcurveto
          30 46 17 42 4 38 rrcurveto
          1 11 1 10 11 vvcurveto
          17 -2 17 -3 17 -18 callsubr
          -29 -32 -15 25 callsubr
          hlineto
          7 6 2 10 callgsubr
          17 -19 -78 callgsubr
          13 -69 -80 vvcurveto
          -11 0 -11 -1 -11 vhcurveto
          -84 callgsubr
          6 12 3 12 13 vvcurveto
          28 -20 56 -31 vhcurveto
          -115 -186 rmoveto
          3 1 2 -11 callsubr
          -18 -14 -22 -12 -28 -8 rlinecurve
          -1 0 -1 0 hvcurveto
          -6 -12 14 9 hvcurveto
          endchar
        </CharString>
        <CharString name="hehDoachashmee-ar.fina">
          137 352 22 rmoveto
          -10 41 37 -5 34 hhcurveto
          48 40 10 20 34 hvcurveto
          58 34 48 45 38 59 23 35 14 36 2 34 rrcurveto
          5 vlineto
          32 -18 23 -37 -67 callgsubr
          -9 hvcurveto
          -18 -9 -17 42 callsubr
          -49 -58 -44 -76 -33 -74 -132 -22 -28 2 -149 -6 rrcurveto
          28 callgsubr
          41 31 -8 22 hhcurveto
          4 4 -1 1 3 hvcurveto
          22 4 34 7 45 11 rrcurveto
          27 166 rmoveto
          5 2 6 4 6 vhcurveto
          18 24 16 27 31 31 callgsubr
          37 callgsubr
          -2 -5 -4 -4 vhcurveto
          -11 -11 -18 -9 29 callsubr
          40 26 43 18 50 24 -10 17 -82 callgsubr
          55 -76 callgsubr
        </CharString>
        <CharString name="hehDoachashmee-ar.medi">
          -50 178 42 rmoveto
          -10 41 38 -5 34 hhcurveto
          47 40 10 20 34 hvcurveto
          58 34 48 45 39 59 23 35 13 36 2 34 rrcurveto
          5 vlineto
          32 -18 23 -36 -67 callgsubr
          -10 hvcurveto
          -18 -9 -16 42 callsubr
          -48 -58 -45 -76 -33 -74 -119 -21 rcurveline
          -21 -127 4 1 6 1 4 1 rlinecurve
          192 205 rmoveto
          5 2 6 4 6 -8 callsubr
          -23 37 callgsubr
          -3 -5 -4 -4 vhcurveto
          -11 -11 -17 -9 29 callsubr
          40 26 43 18 50 24 -10 16 -82 callgsubr
          56 -76 callgsubr
        </CharString>
        <CharString name="hehDoachashmee-ar.medi.ain">
          128 355 42 rmoveto
          98 -24 79 4 58 34 58 34 48 46 38 59 23 35 14 36 2 34 2 34 -18 25 -39 19 -27 10 -35 17 71 callgsubr
          -15 -16 -24 rrcurveto
          -16 -24 -8 -12 2 -1 -49 -58 -44 -76 -33 -74 -28 -4 rcurveline
          -1 hlineto
          -1 -2 -52 -9 -52 -5 -52 1 rlinecurve
          -52 1 -31 16 -9 30 -101 callgsubr
          51 -5 64 6 77 14 rrcurveto
          1 hlineto
          205 270 33 callgsubr
          -8 -21 -1 -13 7 -19 22 35 callsubr
          -46 -39 callgsubr
          -61 -18 -35 2 29 40 26 43 18 50 52 -21 -1 4 45 -28 rrcurveto
          endchar
        </CharString>
        <CharString name="hehDoachashmee-ar.medi.dal">
          21 248 36 rmoveto
          197 -50 106 86 77 117 47 71 14 76 -78 37 -54 20 -95 69 -53 -26 -35 -17 -41 -67 3 -2 -49 -59 -43 -74 -34 -75 -34 -5 -56 -14 -36 9 -27 7 -14 38 8 32 rrcurveto
          1 0 0 -1 -1 vhcurveto
          -44 -55 -37 -114 69 -34 47 -23 124 44 39 9 rrcurveto
          99 245 rmoveto
          26 -10 28 -65 -32 -15 -22 -11 -25 -8 -24 -2 -15 8 -14 23 13 18 18 24 15 27 32 11 rrcurveto
          218 -46 rmoveto
          71 -44 -197 -45 -43 1 29 40 26 43 18 50 49 -19 6 -1 41 -25 rrcurveto
          endchar
        </CharString>
        <CharString name="hehDoachashmee-ar.medi.feh">
          197 424 57 rmoveto
          98 -25 78 4 12 callsubr
          36 13 35 2 34 2 34 -18 26 -39 19 -27 10 -34 16 -40 22 -75 42 -41 -25 -36 -51 -16 -23 -7 -12 2 -1 rrcurveto
          -49 -59 -44 -75 -33 -74 -45 -9 -83 -19 -58 -5 -68 -6 -78 3 -15 49 -97 callsubr
          55 -5 61 4 67 14 67 14 61 14 57 14 rrcurveto
          98 244 8 callsubr
          -7 -22 -2 -13 7 -18 22 15 20 18 24 14 27 32 11 rrcurveto
          219 -45 rmoveto
          43 -28 -57 -23 -28 -10 -31 -11 -61 -18 -58 callgsubr
          4 45 -27 rrcurveto
          endchar
        </CharString>
        <CharString name="hehDoachashmee-ar.medi.hah">
          3 230 159 rmoveto
          98 -25 79 5 58 34 58 34 48 46 39 -77 callsubr
          -27 10 -35 16 -40 22 -75 42 -40 -25 54 callgsubr
          -33 -74 -3 -1 rcurveline
          -1 -1 hlineto
          -34 -7 -29 -12 -23 -16 -23 -16 -22 -31 -20 -46 -21 -47 -7 -31 -10 -52 rrcurveto
          -104 callgsubr
          42 67 52 48 62 27 rrcurveto
          379 214 rmoveto
          43 -28 -58 -23 -27 -10 -31 -11 -61 -17 -58 callgsubr
          3 45 -27 rrcurveto
          -218 45 rmoveto
          13 -5 11 -14 -90 callsubr
          -26 -12 -24 -7 -21 -2 -13 7 -18 22 15 20 18 25 14 26 32 11 rrcurveto
          endchar
        </CharString>
        <CharString name="hehDoachashmee-ar.medi.heh">
          234 461 194 rmoveto
          98 -25 79 5 12 callsubr
          36 13 34 2 34 2 34 -18 26 -39 19 -27 10 -35 16 -40 22 -75 41 -40 -24 54 callgsubr
          -34 -74 -36 -6 -36 -18 -36 -31 -100 -87 -91 -139 -61 -122 7 callgsubr
          40 85 37 75 35 63 60 107 103 72 139 33 rrcurveto
          99 244 13 callsubr
          -2 -16 -16 -7 -26 -12 -24 -6 -21 -2 -13 7 -19 21 35 callsubr
          -45 -39 callgsubr
          -61 -17 -58 callgsubr
          3 45 -27 rrcurveto
          endchar
        </CharString>
        <CharString name="hehDoachashmee-ar.medi.meem">
          64 291 157 rmoveto
          98 -25 78 4 58 34 56 callgsubr
          2 34 -18 27 -39 18 13 callgsubr
          -75 -33 -75 -64 -10 -45 -19 -29 -29 -29 -29 -25 -36 -20 -43 -7 -13 -6 -12 -7 -13 -2 -4 -24 -53 12 -1 rrcurveto
          43 callsubr
          30 49 38 34 48 19 48 19 52 16 56 13 rrcurveto
          99 244 33 callgsubr
          -6 -22 -72 callsubr
          27 32 11 rrcurveto
          218 -46 -39 callgsubr
          -62 -17 -35 2 29 40 27 41 18 51 52 -21 -1 4 45 -28 rrcurveto
          endchar
        </CharString>
        <CharString name="hehDoachashmee-ar.medi.ragaa">
          33 69 19 rmoveto
          8 6 1 0 8 6 37 25 37 20 37 16 29 13 21 8 13 3 99 -25 78 5 58 34 58 34 49 47 38 -77 callsubr
          rrcurveto
          -27 10 -35 16 71 callgsubr
          -16 -16 -23 -16 -23 -8 -13 2 -1 -49 -59 -42 -75 -34 -74 -65 -30 -71 -18 -40 -51 -16 -22 -17 -35 -14 -36 42 -30 rcurveline
          2 1 3 1 1 1 7 6 7 5 7 5 rrcurveto
          290 342 rmoveto
          13 -6 11 -14 9 -24 9 -24 -4 -15 -16 -7 -25 -12 -23 -8 -22 -1 -12 7 -20 22 15 19 18 24 16 28 31 11 rrcurveto
          218 -46 rmoveto
          44 -27 -57 -24 -28 -10 -31 -11 -62 -17 -35 1 42 callgsubr
        </CharString>
        <CharString name="hehDoachashmee-ar.medi.reh">
          40 16 -1 rmoveto
          6 5 5 9 7 hvcurveto
          10 10 19 8 27 9 59 12 61 16 58 13 rrcurveto
          -10 41 37 -6 34 hhcurveto
          47 41 10 20 34 hvcurveto
          58 34 48 46 38 59 23 35 14 36 2 34 rrcurveto
          5 vlineto
          32 -18 23 -37 -67 callgsubr
          -9 hvcurveto
          -18 -9 -17 -16 -16 -23 rrcurveto
          -15 -21 -7 -12 -3 vvcurveto
          -1 vlineto
          -48 -58 -45 -76 -33 -74 -67 -10 rcurveline
          -1 -7 -6 -2 -3 hhcurveto
          1 vlineto
          -20 -3 -19 -7 -18 -10 -25 -14 -33 -47 36 callgsubr
          279 249 rmoveto
          5 2 5 4 6 vhcurveto
          18 24 16 27 31 11 rrcurveto
          14 -6 23 -31 -29 vvcurveto
          -11 -4 -8 -10 -5 vhcurveto
          -26 -12 -24 -8 -21 -1 rrcurveto
          -9 5 -14 13 15 vvcurveto
          305 12 7 callsubr
          -55 -16 -37 hhcurveto
          -4 hlineto
          29 39 26 43 18 51 24 -10 17 -82 callgsubr
          55 -76 callgsubr
        </CharString>
        <CharString name="hehDoachashmee-ar.medi.sad">
          207 106 334 rmoveto
          -2 -1 0 -57 callgsubr
          -22 -20 vvcurveto
          -56 21 -24 57 -8 vhcurveto
          -3 21 21 -1 21 hhcurveto
          38 39 4 9 40 hvcurveto
          63 14 59 14 56 13 rrcurveto
          -10 41 38 -5 34 hhcurveto
          47 40 9 20 34 hvcurveto
          56 callgsubr
          rrcurveto
          4 vlineto
          32 -18 25 -37 18 vhcurveto
          -27 10 -34 16 -40 22 rrcurveto
          14 -26 -23 7 -20 hhcurveto
          -11 -11 -1 -5 -9 hvcurveto
          -18 -9 -17 -17 -16 -23 rrcurveto
          -15 -21 -8 -12 -3 vvcurveto
          1 -1 -49 -58 -44 -76 -33 -74 rlinecurve
          -38 -6 -42 -7 -48 -8 rrcurveto
          -6 -29 -27 -3 -24 hhcurveto
          -57 -40 14 40 -17 hvcurveto
          -3 7 -2 8 10 vvcurveto
          28 13 40 25 50 vhcurveto
          -88 callsubr
          0 -2 vhcurveto
          359 -114 rmoveto
          6 2 5 4 6 vhcurveto
          18 24 15 27 32 31 callgsubr
          -7 -22 -2 rrcurveto
          -9 5 -13 12 15 vvcurveto
          305 13 7 callsubr
          -56 -15 -37 hhcurveto
          -4 hlineto
          29 40 27 42 18 50 24 -10 17 -82 callgsubr
          55 -76 callgsubr
        </CharString>
        <CharString name="hehDoachashmee-ar.medi.yeh">
          30 257 105 rmoveto
          98 -25 78 6 58 34 58 34 48 46 39 -77 callsubr
          13 callgsubr
          -76 -33 -74 -63 -10 -46 -19 -29 -29 -29 -29 -25 -36 -20 -43 rrcurveto
          -6 -13 -1 1 0 vvcurveto
          -1 vlineto
          18 -32 31 31 35 23 42 14 rlinecurve
          41 14 44 12 46 11 rrcurveto
          98 246 rmoveto
          13 -5 11 -15 -90 callsubr
          -25 -12 -24 -7 -22 -1 -53 callgsubr
          14 28 32 11 rrcurveto
          219 -46 rmoveto
          43 -27 -58 -25 -27 -10 -31 -11 -61 -17 -35 2 42 callgsubr
        </CharString>
        <CharString name="hehHamzaabove-ar">
          -117 155 511 -106 callgsubr
          62 -344 -71 callgsubr
        </CharString>
        <CharString name="hehgoal-ar">
          -117 -79 callsubr
        </CharString>
        <CharString name="hehgoal-ar.fina">
          -188 114 142 rmoveto
          -2 hlineto
          -9 -7 -6 -12 -5 hvcurveto
          -91 -237 32 21 46 109 rlineto
          -8 22 33 -9 34 hhcurveto
          22 27 2 6 34 hvcurveto
          36 129 rlineto
          -4 -29 -26 -2 -21 hhcurveto
          -41 -25 7 4 -30 hvcurveto
          endchar
        </CharString>
        <CharString name="hehgoal-ar.init">
          32 298 208 rmoveto
          -2 vlineto
          -87 -37 -85 -14 -104 -22 -22 -133 rcurveline
          100 28 17 5 23 8 29 11 rlinecurve
          47 17 16 7 30 21 -1 -2 -2 -4 -2 -5 -15 -29 -15 -33 -14 -40 rrcurveto
          -7 -20 -4 -20 -20 vvcurveto
          -21 4 -20 7 -21 vhcurveto
          -19 7 14 -23 26 hhcurveto
          45 24 39 29 17 hvcurveto
          18 32 6 45 8 40 rrcurveto
          -24 -20 -16 -28 -45 hhcurveto
          -27 -16 26 24 5 1 4 1 5 hvcurveto
          -51 callgsubr
          8 14 4 15 rrcurveto
          53 53 32 59 90 vvcurveto
          36 -8 37 -9 22 vhcurveto
          -11 26 -77 -113 rlineto
          10 -29 21 -56 -34 vvcurveto
          endchar
        </CharString>
        <CharString name="hehgoal-ar.init.ain">
          131 307 149 rmoveto
          -13 -53 -56 -7 -58 hhcurveto
          -58 -34 15 33 -9 hvcurveto
          -13 -35 -13 -42 -13 -50 1 -29 27 -15 28 -3 39 -4 45 2 51 6 51 6 44 14 37 20 11 6 11 6 11 8 -1 -2 0 -1 -1 -1 -14 -32 -17 -33 -15 -42 rrcurveto
          -14 -40 -1 -41 15 -41 8 -22 15 -49 callgsubr
          33 17 29 17 32 7 45 8 41 -10 -13 -9 -14 -12 -10 -17 -13 -40 -12 -19 20 -27 29 15 48 12 33 rrcurveto
          4 14 8 15 4 15 5 2 4 6 3 4 41 45 25 59 8 67 2 16 -3 22 -7 30 -7 30 -3 13 -3 -4 -77 -113 rcurveline
          14 -40 7 -31 -1 -21 -20 -9 -26 -8 -32 -8 rrcurveto
          -1 -2 -1 -1 hhcurveto
          endchar
        </CharString>
        <CharString name="hehgoal-ar.init.dal">
          104 367 194 rmoveto
          -3 vlineto
          -49 -21 -46 -17 -45 -13 rrcurveto
          -7 -23 -24 -4 -24 hhcurveto
          -23 -25 4 6 -24 hvcurveto
          -21 5 -14 26 27 vvcurveto
          5 1 5 1 5 vhcurveto
          2 -1 0 0 -1 0 0 -2 -1 vhcurveto
          -21 -28 -16 -36 -9 -44 rrcurveto
          -2 -9 -1 -10 -8 vvcurveto
          -52 46 -26 55 22 24 4 8 26 vhcurveto
          70 22 45 17 45 32 -17 -34 -16 -34 -16 -45 rrcurveto
          -7 -20 -5 -20 -20 vvcurveto
          -21 5 -20 7 -21 vhcurveto
          -19 7 13 -23 26 hhcurveto
          45 24 39 29 17 hvcurveto
          17 32 8 45 7 41 rrcurveto
          -24 -20 -15 -29 -45 hhcurveto
          -27 -16 26 24 5 0 4 1 5 hvcurveto
          -51 callgsubr
          8 15 4 15 36 31 32 57 9 41 -62 callgsubr
          35 55 callgsubr
          -55 -34 vvcurveto
          endchar
        </CharString>
        <CharString name="hehgoal-ar.init.feh">
          118 349 305 rmoveto
          10 -28 22 -60 -1 -33 -58 -25 -70 -25 -77 -3 -59 -2 -65 6 -12 43 -97 callsubr
          101 -10 110 26 77 54 -17 -34 -16 -34 -16 -45 rrcurveto
          -14 -40 -1 -40 15 -41 8 -22 16 -49 callgsubr
          33 17 29 18 32 6 44 7 41 -7 -10 0 1 -7 -10 -5 -7 -5 -5 -6 -5 -17 -13 -41 -13 -19 20 rrcurveto
          -27 29 16 48 12 33 64 callgsubr
          34 32 53 9 42 13 61 -3 62 -19 44 -12 27 rcurveline
          endchar
        </CharString>
        <CharString name="hehgoal-ar.init.hah">
          184 443 299 rmoveto
          -72 -31 -88 -16 -77 -26 -65 -19 -46 -33 -25 -45 -25 -45 -22 -43 -20 -42 14 1 rcurveline
          64 56 48 33 33 11 33 11 50 15 67 21 42 13 21 5 33 24 -2 -4 -2 -3 -2 -3 -11 -18 -15 -34 -18 -51 86 callgsubr
          -23 31 4 rrcurveto
          40 6 21 32 17 29 18 31 6 45 8 41 -10 -13 -9 -13 -12 -10 -17 -14 -40 -13 -19 21 -27 29 15 49 12 33 4 14 8 14 4 15 36 33 32 55 9 42 rrcurveto
          13 61 -3 61 -19 45 -11 27 rcurveline
          -76 -114 10 -29 22 -59 -2 -33 rlinecurve
          endchar
        </CharString>
        <CharString name="hehgoal-ar.init.heh">
          257 481 448 rmoveto
          -102 callsubr
          -43 -18 -32 -11 -20 -3 -20 -3 -30 -15 -39 -26 -46 -31 -43 -43 -43 -55 -105 callgsubr
          34 41 35 38 43 31 21 15 24 11 25 7 37 11 36 16 28 22 -17 -34 -16 -35 -16 -45 rrcurveto
          86 callgsubr
          17 callsubr
          -10 -13 -9 -13 -12 -10 -17 -14 -41 -13 -19 21 -27 29 17 49 11 33 rrcurveto
          4 14 8 14 4 15 3 2 6 7 11 12 30 36 19 36 8 36 13 61 -3 63 -19 44 -11 27 rcurveline
          endchar
        </CharString>
        <CharString name="hehgoal-ar.init.meem">
          80 314 -97 rmoveto
          40 6 21 33 17 29 18 31 6 45 8 41 -10 -13 -9 -14 -12 -10 -17 -14 -41 -12 -19 21 -27 29 17 48 11 33 64 callgsubr
          34 32 52 9 43 rrcurveto
          13 61 -3 63 -19 44 -11 26 rcurveline
          -77 -113 10 -29 23 -58 -2 -34 rlinecurve
          -31 -14 -32 -9 -31 -7 -31 -7 -30 -9 -27 -12 -49 -21 -33 -30 -16 -36 -16 -36 -21 -48 -27 -59 21 -1 rcurveline
          22 52 34 30 48 23 62 18 76 21 45 35 -2 -5 -2 -3 -1 -2 -15 -29 -14 -34 -14 -40 -14 -40 -1 -40 15 -41 8 -21 15 -25 31 4 rrcurveto
          endchar
        </CharString>
        <CharString name="hehgoal-ar.init.ragaa">
          325 496 304 rmoveto
          -38 -16 -60 -18 -46 -11 -71 -15 -87 -23 -60 -31 -72 -36 -31 -42 -31 -82 42 -30 rcurveline
          2 2 3 2 5 3 46 33 33 23 20 11 20 11 19 9 20 6 41 13 62 16 54 20 53 19 23 10 33 29 rrcurveto
          -20 4 -18 6 -17 vhcurveto
          8 -22 14 -25 32 5 40 5 21 34 17 29 18 31 6 46 8 41 -19 -25 -12 -21 -38 -7 -27 -5 -16 15 -7 20 41 67 12 61 -17 55 rrcurveto
          -26 83 1 0 0 vvcurveto
          -77 -114 -102 callsubr
          rlinecurve
          endchar
        </CharString>
        <CharString name="hehgoal-ar.init.reh">
          70 333 231 rmoveto
          -3 1 vlineto
          -38 -16 -61 -18 -46 -11 -40 -8 -32 -7 -24 -6 -24 -6 -20 -23 -16 -42 -7 -11 -6 -12 -6 -13 rrcurveto
          -1 vlineto
          -10 -12 -5 -11 -9 vvcurveto
          -10 8 -13 9 6 5 5 9 7 vhcurveto
          20 20 25 12 23 4 24 4 30 7 35 9 20 5 40 17 17 9 9 4 10 6 11 8 -5 -10 rcurveline
          -15 -29 -14 -34 -14 -40 rrcurveto
          -7 -20 -5 -20 -20 vvcurveto
          -40 14 -63 44 45 24 39 29 17 vhcurveto
          18 31 7 45 7 41 rrcurveto
          -25 -18 -19 -28 -44 hhcurveto
          -27 -15 26 25 4 0 5 1 5 hvcurveto
          4 21 5 18 6 17 4 14 8 15 4 15 35 35 33 52 9 43 -62 callgsubr
          36 -9 22 vhcurveto
          -12 26 -76 -113 rlineto
          10 -29 20 -54 -35 vvcurveto
          endchar
        </CharString>
        <CharString name="hehgoal-ar.init.sad">
          342 550 21 rmoveto
          4 0 4 1 5 vhcurveto
          -51 callgsubr
          9 15 4 15 35 35 32 51 9 43 -62 callgsubr
          36 55 callgsubr
          -56 -34 vvcurveto
          -2 vlineto
          -28 -88 -176 -62 -120 hhcurveto
          -48 -37 10 21 -27 hvcurveto
          -15 11 -7 17 22 vvcurveto
          28 12 38 23 46 vhcurveto
          -20 callsubr
          -24 -103 callgsubr
          -21 -20 vvcurveto
          -56 -98 callsubr
          18 20 0 21 hhcurveto
          130 180 53 42 79 hvcurveto
          9 4 11 7 11 8 -1 -2 -2 -3 -2 -5 -15 -29 -15 -34 -14 -40 rrcurveto
          -7 -20 -4 -20 -20 vvcurveto
          -21 4 -19 7 -21 vhcurveto
          -19 7 13 -24 26 hhcurveto
          45 24 40 29 17 hvcurveto
          18 31 6 45 8 40 rrcurveto
          -24 -19 -16 -28 -45 hhcurveto
          -27 -16 26 25 hvcurveto
          endchar
        </CharString>
        <CharString name="hehgoal-ar.init.yeh">
          102 365 270 rmoveto
          1 vlineto
          -52 -23 -69 -15 -57 -17 -49 -15 -37 -23 -24 -29 -24 -29 -26 -43 -27 -59 rrcurveto
          -1 vlineto
          17 -16 24 37 32 26 39 14 rlinecurve
          39 14 40 13 42 13 42 13 22 6 32 24 -17 -34 -16 -35 -16 -45 -15 -40 0 -40 15 -41 8 -22 16 17 callsubr
          rrcurveto
          -10 -13 -9 -13 -12 -10 -16 -14 -43 -13 -18 21 -14 15 -4 18 4 21 4 21 4 19 6 17 5 14 8 15 4 15 36 33 32 54 9 42 13 61 -3 62 -19 44 -11 26 rcurveline
          -77 -112 10 -29 22 -60 -1 -33 rlinecurve
          endchar
        </CharString>
        <CharString name="highhamza-ar">
          67 84 254 rmoveto
          39 46 6 12 25 hvcurveto
          34 16 29 38 30 41 28 39 26 32 -2 19 -5 51 -72 -16 -26 46 28 24 23 8 38 10 8 15 25 30 10 17 rrcurveto
          17 10 12 23 -14 hhcurveto
          -14 -35 -20 -11 -15 hvcurveto
          -91 -63 -91 -118 26 -45 11 -19 27 -19 35 -8 17 -4 11 -10 -24 -12 -48 -24 -80 -28 -44 -28 rrcurveto
          -16 -25 18 -3 30 hhcurveto
          endchar
        </CharString>
        <CharString name="jeem-ar">
          319 -73 callgsubr
          259 -371 -107 callsubr
          endchar
        </CharString>
        <CharString name="jeh-ar">
          105 507 531 -107 callgsubr
          -59 -259 -70 callgsubr
        </CharString>
        <CharString name="kaf-ar">
          204 488 217 rmoveto
          -89 -47 -202 -79 -94 74 -89 69 68 72 46 67 48 70 111 66 21 -129 -34 -16 -8 -6 -38 -8 -43 -131 rcurveline
          322 115 -101 533 -312 -487 -49 -77 -70 -115 33 -89 72 -192 329 119 98 150 33 50 31 56 -4 61 -30 387 rcurveline
          -73 -122 28 -369 1 -13 1 -5 -6 -4 rlinecurve
          endchar
        </CharString>
        <CharString name="kaf-ar.fina">
          147 309 580 rmoveto
          -7 -9 -1 -2 -8 hvcurveto
          -49 -9 -64 -66 -78 -121 -25 -38 -24 -46 -24 -52 rrcurveto
          -15 -31 -7 -31 -28 vvcurveto
          -19 3 -18 7 -18 vhcurveto
          -68 25 51 -31 85 hhcurveto
          23 26 3 6 25 hvcurveto
          99 23 108 69 49 73 12 -175 rcurveline
          70 110 -41 620 -74 -122 32 -381 -22 -12 -29 -13 -35 -15 rlinecurve
          -25 -60 -78 -25 -79 hhcurveto
          -4 hlineto
          -36 -29 10 19 -23 hvcurveto
          -31 24 -16 24 24 vvcurveto
          11 2 11 6 11 vhcurveto
          19 35 22 34 23 34 24 35 33 26 43 17 rrcurveto
          4 9 8 1 7 hhcurveto
          28 20 -25 -51 8 hvcurveto
          -36 -17 -3 -4 -41 -9 -43 -131 rcurveline
          80 29 55 47 30 66 rrcurveto
          21 47 10 40 36 vvcurveto
          56 -24 39 -49 vhcurveto
          endchar
        </CharString>
        <CharString name="kaf-ar.fina.jalt">
          561 906 233 rmoveto
          -17 callgsubr
          32 35 40 12 -168 rcurveline
          72 110 -17 243 rlineto
          6 0 9 -1 12 vhcurveto
          -20 405 -74 -117 5 -85 14 -260 1 -90 rlinecurve
          -468 -30 rmoveto
          29 35 5 9 19 hvcurveto
          25 12 22 28 22 31 21 29 20 24 -2 14 -3 39 -54 -12 -20 34 21 18 17 6 29 8 6 11 19 22 7 13 rrcurveto
          13 8 9 17 -11 hhcurveto
          -10 -27 -15 -8 -11 hvcurveto
          -68 -47 -68 -89 19 -34 8 -14 21 -14 26 -6 13 -3 8 -8 -18 -9 -36 -18 -60 -21 -33 -21 rrcurveto
          -12 -19 14 -2 22 hhcurveto
          endchar
        </CharString>
        <CharString name="kaf-ar.init">
          134 244 182 rmoveto
          -32 -16 -37 -11 -41 -8 -41 -8 -37 -6 -34 -5 -22 -128 rcurveline
          70 17 64 19 57 23 57 23 38 54 21 85 rrcurveto
          7 24 5 33 33 vvcurveto
          18 vlineto
          -16 256 106 62 106 62 106 62 rlinecurve
          33 117 rlineto
          4 vlineto
          4 -1 1 -3 -2 -2 0 -2 -3 vhcurveto
          -19 -11 -241 -141 -63 -37 -32 -117 rcurveline
          -61 -95 rlineto
          6 -97 11 -113 -102 vvcurveto
          endchar
        </CharString>
        <CharString name="kaf-ar.init.ain">
          221 34 callsubr
          -62 -19 -165 -42 -23 80 -13 -35 -13 -42 -13 -50 1 -29 27 -15 28 -3 78 -8 79 17 78 41 67 37 callsubr
          -16 256 rcurveline
          80 46 -1 1 80 46 53 31 54 32 53 31 32 116 rcurveline
          -58 callsubr
          -108 -63 -107 -71 callsubr
          -95 rlineto
          6 -98 -64 callsubr
        </CharString>
        <CharString name="kaf-ar.init.alef">
          202 226 450 rmoveto
          109 64 88 47 109 64 33 117 rcurveline
          -58 callsubr
          -110 -64 -86 -48 -110 -64 -33 -116 rcurveline
          -2 -9 4 -3 9 5 rrcurveto
          -35 -388 rmoveto
          41 29 35 48 29 64 49 callgsubr
          -68 68 -79 -82 -37 -50 -17 -22 -13 -20 -10 -15 3 -45 rcurveline
          34 53 40 14 45 -25 45 -25 21 -39 -3 -54 -52 -24 -58 -14 -65 -6 -62 -122 rcurveline
          -5 3 -1 5 vhcurveto
          1 3 3 0 3 hhcurveto
          71 8 61 23 42 30 rrcurveto
          endchar
        </CharString>
        <CharString name="kaf-ar.init.alef.loop">
          -31 35 274 rmoveto
          2 -39 48 71 46 21 43 -30 rlinecurve
          43 -30 20 -41 -3 -54 -52 -24 -58 -14 -65 -6 -62 -122 rcurveline
          -5 3 -1 5 vhcurveto
          6 1 6 1 5 1 148 22 68 56 55 122 49 callgsubr
          -23 23 -25 10 -25 -5 21 31 19 30 18 31 33 57 43 88 -23 65 -23 64 -67 36 -81 -38 -37 -18 -32 -29 -26 -42 -26 -42 -15 -28 -4 -15 -1 -4 2 -3 5 -4 rrcurveto
          5 -4 6 3 7 11 12 16 25 18 40 19 76 36 56 -23 3 -78 1 -38 -6 -31 -14 -25 -14 -24 -22 -44 -23 -14 -29 -19 -27 -26 -25 -35 -25 -35 -14 -30 -3 -24 rrcurveto
          endchar
        </CharString>
        <CharString name="kaf-ar.init.dal">
          155 224 49 rmoveto
          102 54 46 110 -7 112 -46 callgsubr
          62 106 62 32 117 rcurveline
          1 6 -6 3 -5 -2 -108 -63 -108 -71 callsubr
          -96 rlineto
          7 -100 10 -110 -102 vvcurveto
          -39 -17 -226 -90 22 127 rrcurveto
          3 -3 1 -3 -4 vhcurveto
          -40 -58 -30 -102 65 -32 48 -23 109 50 30 16 rrcurveto
          endchar
        </CharString>
        <CharString name="kaf-ar.init.feh">
          306 441 183 rmoveto
          -66 -29 -96 -17 -85 -6 -65 -5 -77 3 -13 47 -87 callsubr
          -29 27 -15 28 -2 46 -5 54 2 62 8 148 19 106 64 32 130 8 30 6 39 -2 40 -16 256 rcurveline
          80 46 -1 1 80 46 53 31 53 31 53 31 33 117 rcurveline
          1 9 -4 2 -8 -4 -108 -63 -107 -63 -108 -63 -33 -117 rcurveline
          -60 -95 rlineto
          6 -98 11 -112 -102 vvcurveto
          endchar
        </CharString>
        <CharString name="kaf-ar.init.hah">
          -35 -18 callgsubr
        </CharString>
        <CharString name="kaf-ar.init.heh">
          212 -33 callsubr
          -16 257 rcurveline
          106 62 107 63 106 62 32 116 rcurveline
          2 9 -4 3 -9 -5 -108 -63 -107 -71 callsubr
          -96 rlineto
          6 -97 -64 callsubr
        </CharString>
        <CharString name="kaf-ar.init.meem">
          -273 17 hmoveto
          74 100 1 12 0 12 -1 14 rlinecurve
          -16 257 80 46 -1 1 80 46 rlinecurve
          53 31 54 31 53 31 32 117 rcurveline
          1 9 -3 2 -8 -4 -107 -63 -110 -63 -107 -63 -32 -117 rcurveline
          -60 -96 6 -96 10 -108 1 -99 rlinecurve
          endchar
        </CharString>
        <CharString name="kaf-ar.init.ragaa">
          314 50 4 rmoveto
          26 18 25 16 26 16 40 24 38 23 33 33 10 9 6 8 2 4 38 57 27 61 -6 89 -46 callgsubr
          62 105 62 33 117 rcurveline
          2 9 -4 3 -9 -5 -107 -63 -109 -63 -107 -63 -33 -116 rcurveline
          -60 -96 rlineto
          7 -96 10 -111 -102 vvcurveto
          -2 -11 -6 -21 -11 vhcurveto
          -48 -25 -43 -17 -39 -31 -32 -25 -30 -29 -16 -41 46 -33 rcurveline
          0 4 4 1 vvcurveto
          endchar
        </CharString>
        <CharString name="kaf-ar.init.reh">
          149 284 226 rmoveto
          -2 -1 -2 0 -2 -1 -7 -3 -8 -2 -8 -2 -59 -13 -67 -19 -28 38 callsubr
          -22 -7 -32 -93 callsubr
          64 64 127 2 60 67 rrcurveto
          0 2 3 7 8 vhcurveto
          1 vlineto
          13 14 10 17 9 19 21 47 15 50 -4 68 -16 256 rcurveline
          106 62 107 63 106 62 32 117 rcurveline
          2 9 -4 2 -9 -5 -107 -62 -109 -65 -107 -62 -32 -116 rcurveline
          -60 -96 6 -98 10 -111 1 -103 rlinecurve
          endchar
        </CharString>
        <CharString name="kaf-ar.init.sad">
          370 507 193 rmoveto
          -13 -12 -37 -15 -59 -21 rrcurveto
          -22 -64 -60 -14 -65 hhcurveto
          -51 -40 14 26 -28 hvcurveto
          -13 12 -6 17 22 vvcurveto
          31 13 41 26 51 -95 callgsubr
          1 -1 1 -1 1 vhcurveto
          -3 hlineto
          -41 callgsubr
          -10 -15 -15 -24 -103 callgsubr
          -21 -20 vvcurveto
          -55 -98 callsubr
          23 24 -2 26 hhcurveto
          83 68 13 25 66 hvcurveto
          92 35 84 64 25 100 rrcurveto
          7 24 5 34 33 vvcurveto
          17 vlineto
          -17 257 106 62 107 62 106 62 rlinecurve
          33 117 rlineto
          3 vlineto
          4 -2 1 -3 -2 -1 0 -1 -3 vhcurveto
          -108 -64 36 callsubr
          rlineto
          6 -98 11 -111 -103 vvcurveto
          endchar
        </CharString>
        <CharString name="kaf-ar.init.yeh">
          147 -18 callgsubr
        </CharString>
        <CharString name="kaf-ar.jalt">
          666 -27 callgsubr
          -468 -29 rmoveto
          29 35 5 9 19 hvcurveto
          25 12 22 28 22 31 21 29 20 24 -2 14 -3 39 -54 -12 -20 34 21 18 17 6 29 8 6 11 19 22 7 13 rrcurveto
          13 8 9 17 -11 hhcurveto
          -10 -27 -15 -8 -11 hvcurveto
          -68 -47 -68 -89 19 -34 8 -14 21 -14 26 -6 13 -3 8 -8 -18 -9 -36 -18 -60 -21 -33 -21 rrcurveto
          -12 -19 14 -2 22 hhcurveto
          endchar
        </CharString>
        <CharString name="kaf-ar.medi">
          -105 214 501 rmoveto
          32 -324 -32 -17 -75 -16 -117 -16 rlinecurve
          -22 -128 55 12 47 11 38 10 rlinecurve
          38 10 37 30 35 52 9 -125 rcurveline
          71 113 -38 461 -83 callgsubr
          rlineto
          1 1 2 1 vvcurveto
          3 -1 2 -3 -2 -3 -1 -2 50 callgsubr
          endchar
        </CharString>
        <CharString name="kaf-ar.medi.ain">
          76 396 501 rmoveto
          31 -324 -31 -16 -45 -13 -60 -9 rlinecurve
          -60 -9 -49 -5 -35 1 -49 1 -48 9 -11 37 -13 -34 -13 -42 -13 -51 -91 callsubr
          45 -4 57 3 66 11 46 8 38 9 31 12 31 12 31 29 31 45 9 -125 rcurveline
          71 109 -38 465 105 61 85 45 105 62 rlinecurve
          32 117 1 8 -4 2 -8 -4 rlinecurve
          94 callgsubr
          -82 rcurveline
          endchar
        </CharString>
        <CharString name="kaf-ar.medi.dal">
          -78 241 501 rmoveto
          31 -324 -40 -20 -213 -81 31 132 rlinecurve
          1 0 1 -2 -2 vhcurveto
          -43 -56 -35 -111 68 -33 63 -31 136 90 39 57 10 -124 rcurveline
          72 106 -39 468 103 60 88 47 104 61 rlinecurve
          32 117 1 6 -7 3 -5 -2 rlinecurve
          -108 -63 -90 -50 -108 -63 -23 -81 rcurveline
          endchar
        </CharString>
        <CharString name="kaf-ar.medi.feh">
          99 419 511 rmoveto
          31 -324 -30 -15 -43 -13 -54 -10 rlinecurve
          -54 -10 -43 -6 -32 -2 -65 -5 -77 4 -13 47 -97 callsubr
          65 -7 74 7 80 18 80 18 60 38 39 57 10 -125 rcurveline
          69 138 -36 436 -83 callgsubr
          1 9 -4 4 callsubr
        </CharString>
        <CharString name="kaf-ar.medi.hah">
          -6 327 358 rmoveto
          11 -129 2 -18 19 -211 73 102 rcurveline
          -40 472 -83 callgsubr
          2 9 -4 38 callgsubr
          -65 -108 5 -54 -50 -17 -58 -27 -67 -39 rlinecurve
          -67 -39 -48 -74 -29 -109 23 -5 rcurveline
          71 99 112 81 121 41 rrcurveto
          endchar
        </CharString>
        <CharString name="kaf-ar.medi.heh">
          118 -38 callsubr
          111 -38 462 104 61 85 47 105 61 rlinecurve
          32 116 1 9 -3 4 callsubr
        </CharString>
        <CharString name="kaf-ar.medi.kaf">
          -22 328 190 rmoveto
          -29 -14 -101 -21 -174 -30 -24 -126 rcurveline
          129 26 76 16 26 7 33 9 33 29 35 49 1 -11 rcurveline
          1 vlineto
          10 -125 73 97 -30 416 105 61 86 46 105 62 rlinecurve
          32 117 1 9 -3 3 -8 -5 rlinecurve
          -70 callsubr
          -25 -92 rcurveline
          -62 -103 1 -9 rlineto
          endchar
        </CharString>
        <CharString name="kaf-ar.medi.meem">
          -44 -30 callsubr
          108 -39 466 -15 callsubr
        </CharString>
        <CharString name="kaf-ar.medi.ragaa">
          -114 50 6 rmoveto
          21 15 26 16 30 19 40 24 38 23 32 33 3 3 4 3 4 5 2 -30 rcurveline
          69 138 -21 366 107 62 106 61 106 63 rlinecurve
          32 117 2 9 -4 2 -8 -5 rlinecurve
          -107 -63 -109 -64 -108 -62 -32 -116 rcurveline
          -60 -96 17 -308 rlineto
          -1 vlineto
          -1 -3 -10 -5 -21 -10 -28 -16 -44 -17 -25 -16 -43 -28 -48 -40 -20 -51 46 -34 rcurveline
          1 2 1 -86 callsubr
        </CharString>
        <CharString name="kaf-ar.medi.reh">
          -52 -19 callsubr
          71 106 -38 468 -83 callgsubr
          rlineto
          3 vlineto
          4 -1 2 -3 -2 -2 0 -2 -3 vhcurveto
          -70 callsubr
          -22 -81 rcurveline
          -65 -108 19 -213 -86 -19 -57 -13 -28 -9 rlinecurve
          -14 -5 -15 -9 -14 -11 -21 -17 -27 -39 -15 -34 rrcurveto
          -1 vlineto
          -10 -12 -5 -10 -9 vvcurveto
          -10 8 -14 9 vhcurveto
          endchar
        </CharString>
        <CharString name="kaf-ar.medi.sad">
          210 -11 callgsubr
          109 -37 465 295 168 32 117 rlineto
          1 1 1 1 vvcurveto
          4 -2 1 -3 -2 -2 -1 -1 50 callgsubr
          -64 -108 23 -252 -28 callsubr
        </CharString>
        <CharString name="kaf-ar.medi.yeh">
          -44 -30 callsubr
          105 -39 469 -15 callsubr
        </CharString>
        <CharString name="kafDotabove-ar">
          204 387 782 -107 callsubr
          101 -565 rmoveto
          -89 -47 -202 -79 -94 74 -89 69 68 72 46 67 48 70 111 66 21 -129 -34 -16 -8 -6 -38 -8 -43 -131 rcurveline
          322 115 -101 533 -312 -487 -49 -77 -70 -115 33 -89 72 -192 329 119 98 150 33 50 31 56 -4 61 -30 387 rcurveline
          -73 -122 28 -369 1 -13 1 -5 -6 -4 rlinecurve
          endchar
        </CharString>
        <CharString name="kashida-ar">
          endchar
        </CharString>
        <CharString name="kasra-ar">
          79 76 -6 callsubr
        </CharString>
        <CharString name="kasratan-ar">
          -24 callsubr
        </CharString>
        <CharString name="keheh-ar">
          580 487 148 -82 callsubr
        </CharString>
        <CharString name="keheh-ar.fina">
          147 581 138 rmoveto
          -11 158 -10 162 -10 158 106 62 107 62 -7 callsubr
          -116 rcurveline
          -60 -96 7 -100 6 -96 6 -102 rlinecurve
          -52 -33 -386 -170 6 230 1 53 27 42 20 36 -11 -3 -7 -5 -5 -8 -129 -198 39 -86 52 -46 114 -101 257 119 80 118 11 -174 rcurveline
          endchar
        </CharString>
        <CharString name="keheh-ar.fina.jalt">
          562 905 292 rmoveto
          -20 1 -21 -18 vvcurveto
          -17 callgsubr
          31 35 40 11 -167 rcurveline
          73 110 -17 241 rlineto
          10 0 10 -1 8 vhcurveto
          -15 257 106 62 106 62 106 62 rlinecurve
          33 116 -58 callsubr
          rlinecurve
          -108 -63 36 callsubr
          5 -82 8 -86 3 -84 rlinecurve
          endchar
        </CharString>
        <CharString name="keheh-ar.jalt">
          1019 905 290 rmoveto
          -20 1 -19 -19 vvcurveto
          -89 -38 -71 -25 -55 -12 -55 -12 -76 -10 -97 -7 -69 callgsubr
          -99 callsubr
          47 -6 58 -1 71 3 156 6 142 43 101 68 56 38 35 51 16 63 rrcurveto
          7 25 4 26 1 27 rrcurveto
          10 0 10 -1 9 vhcurveto
          -15 256 106 62 106 63 106 62 rlinecurve
          33 117 1 8 -4 2 -8 -4 rlinecurve
          -108 -64 -107 -62 49 callsubr
          5 -81 8 -89 3 -83 rlinecurve
          endchar
        </CharString>
        <CharString name="kehehDotabove-ar">
          580 773 927 -107 callsubr
          -286 -779 -82 callsubr
        </CharString>
        <CharString name="khah-ar">
          319 387 752 -107 callsubr
          261 -938 rmoveto
          4 4 -12 -3 -5 -1 -175 -46 -260 -39 -136 153 -78 88 247 211 55 48 40 35 43 36 32 46 27 38 64 138 -66 27 -64 27 -108 -20 -44 -31 -66 -47 -39 -153 75 -83 rrcurveto
          -90 -82 -118 -209 30 -141 55 -261 426 67 163 198 rrcurveto
          -446 594 rmoveto
          29 25 136 24 20 -59 -34 -32 -52 -32 -41 -30 -16 36 -27 30 -15 38 rrcurveto
          endchar
        </CharString>
        <CharString name="lam-ar">
          81 -9 callgsubr
        </CharString>
        <CharString name="lam-ar.fina">
          64 -9 callgsubr
        </CharString>
        <CharString name="lam-ar.fina.jalt">
          666 -28 callgsubr
        </CharString>
        <CharString name="lam-ar.init">
          -31 243 182 rmoveto
          -30 -13 -30 -10 -29 -7 -29 -7 -44 -7 -58 -9 -22 -125 rcurveline
          -1 -4 94 23 59 18 23 12 rlinecurve
          68 37 callsubr
          -18 333 rcurveline
          -74 -118 8 -146 9 -83 1 -133 rlinecurve
          endchar
        </CharString>
        <CharString name="lam-ar.init.ain">
          90 34 callsubr
          -63 -19 -165 -40 -22 78 -13 -35 -13 -43 -13 -50 1 -29 27 -15 28 -2 78 -8 79 17 78 41 67 35 42 57 19 76 9 35 5 36 -2 37 -19 338 rcurveline
          -74 -118 rlineto
          6 -92 12 -178 -97 vvcurveto
          endchar
        </CharString>
        <CharString name="lam-ar.init.alef">
          310 627 600 rmoveto
          -18 -42 -21 -38 -19 -41 10 -56 9 -61 8 -58 rrcurveto
          -4 -5 -6 -9 -8 vhcurveto
          -29 -25 -33 -22 -35 -19 -43 -23 -43 -18 -45 -22 -215 -94 rcurveline
          -43 -17 -50 -17 -41 -19 rrcurveto
          -3 -3 -2 -44 callgsubr
          -1 7 vhcurveto
          13 15 2 6 hhcurveto
          117 2 119 5 86 33 157 59 129 142 6 202 -7 55 -12 50 -12 50 rrcurveto
          endchar
        </CharString>
        <CharString name="lam-ar.init.dal">
          -13 321 205 rmoveto
          8 28 5 38 -2 42 -17 348 rcurveline
          -74 -118 rlineto
          7 -100 10 -175 -102 vvcurveto
          -45 -19 -76 -27 -53 13 rrcurveto
          -23 6 -12 26 27 vvcurveto
          -1 5 -5 3 -6 -8 -38 -59 -24 -95 63 -31 45 -22 72 33 36 19 66 35 45 55 19 78 rrcurveto
          endchar
        </CharString>
        <CharString name="lam-ar.init.feh">
          198 521 230 rmoveto
          10 35 4 37 -2 39 -22 323 rcurveline
          -75 -121 4 -68 4 22 4 -83 rlinecurve
          3 -70 5 -88 -66 vvcurveto
          -67 -29 -102 -20 -87 -6 -67 -5 -78 4 -14 48 -14 -36 -14 -44 -13 -52 1 -30 28 -14 29 -3 47 -5 55 2 64 8 153 20 110 67 34 135 rrcurveto
          endchar
        </CharString>
        <CharString name="lam-ar.init.hah">
          -188 -25 callsubr
        </CharString>
        <CharString name="lam-ar.init.heh">
          79 -33 callsubr
          -15 288 rcurveline
          -25 -41 -26 -41 -25 -41 rrcurveto
          6 -97 -64 callsubr
        </CharString>
        <CharString name="lam-ar.init.kaf">
          7 280 188 rmoveto
          -30 -13 -29 -9 -29 -7 -29 -7 -61 -11 -92 -16 -10 -125 rcurveline
          119 28 72 20 23 12 68 36 42 56 19 76 8 29 5 39 -2 39 -12 212 rcurveline
          -73 -108 5 -79 5 -90 1 -82 rlinecurve
          endchar
        </CharString>
        <CharString name="lam-ar.init.meem">
          -230 21 hmoveto
          75 100 1 17 0 12 -1 9 rlinecurve
          -21 337 -75 -121 rlineto
          endchar
        </CharString>
        <CharString name="lam-ar.init.ragaa">
          314 267 232 rmoveto
          0 0 0 -44 -22 vhcurveto
          -29 -15 -25 -12 -18 -9 -28 -13 -30 -19 -30 -26 -31 -27 -21 -28 -11 -29 45 -33 rcurveline
          1 1 3 3 1 1 18 12 23 15 29 19 47 28 61 32 35 37 11 12 7 7 1 3 16 24 25 44 7 32 10 35 4 36 -2 37 -21 405 rcurveline
          -74 -117 rlineto
          6 -84 14 -258 -91 vvcurveto
          endchar
        </CharString>
        <CharString name="lam-ar.init.reh">
          14 285 227 rmoveto
          -8 -4 -9 -3 -9 -2 -58 -14 -71 -19 -29 -10 -28 -10 -21 -17 -14 -23 -9 -16 -8 -22 -7 -32 -93 callsubr
          18 18 26 15 29 13 37 16 40 10 36 16 67 30 43 61 18 73 8 29 5 41 -2 39 -18 281 rcurveline
          -73 -116 6 -98 10 -111 1 -103 rlinecurve
          endchar
        </CharString>
        <CharString name="lam-ar.init.sad">
          248 507 199 rmoveto
          -13 -12 -37 -16 -59 -21 -96 -34 -141 -28 -71 66 -31 29 7 58 44 88 4 7 -9 1 -3 -4 -10 -15 -15 -23 -56 callsubr
          -15 -34 -11 -36 -11 -36 -2 -33 7 -29 rrcurveto
          7 -29 24 -19 43 -6 102 -15 109 19 79 30 92 35 84 63 25 100 9 35 5 37 -2 37 -21 350 rcurveline
          -74 -121 rlineto
          6 -90 14 -190 -96 vvcurveto
          endchar
        </CharString>
        <CharString name="lam-ar.init.yeh">
          -181 -25 callsubr
        </CharString>
        <CharString name="lam-ar.jalt">
          666 -28 callgsubr
        </CharString>
        <CharString name="lam-ar.medi">
          -118 211 482 rmoveto
          22 -305 -32 -17 -71 -16 -108 -15 rlinecurve
          -22 -129 56 14 44 11 34 9 rlinecurve
          34 9 34 30 35 52 10 -125 rcurveline
          72 106 -34 498 rlineto
          endchar
        </CharString>
        <CharString name="lam-ar.medi.ain">
          77 403 486 rmoveto
          25 -309 -32 -16 -45 -13 -60 -9 rlinecurve
          -60 -9 -49 -5 -35 1 -49 1 -48 9 -11 37 -13 -35 -13 -42 -13 -50 1 -30 28 -13 27 -3 65 -7 69 4 73 16 73 16 56 37 40 59 10 -125 rcurveline
          71 104 -36 505 rlineto
          endchar
        </CharString>
        <CharString name="lam-ar.medi.alef">
          368 764 565 rmoveto
          -3 -2 0 -1 -2 hvcurveto
          -33 -17 -30 -35 -16 -33 -28 -57 -24 -48 -20 -41 -20 -41 -36 -36 -54 -30 -37 -21 -42 -20 -41 -18 -22 -10 rcurveline
          -215 -94 -43 -17 -50 -17 -41 -19 rlinecurve
          -3 -3 -2 -44 callgsubr
          -1 7 vhcurveto
          13 15 2 6 hhcurveto
          117 2 119 5 86 33 78 30 66 47 51 62 32 40 23 39 14 41 14 41 20 41 28 44 rrcurveto
          6 4 3 4 3 hhcurveto
          6 3 -9 -3 hvcurveto
          21 -425 62 93 -15 464 rlineto
          6 -7 2 -8 vhcurveto
          endchar
        </CharString>
        <CharString name="lam-ar.medi.dal">
          -79 250 484 rmoveto
          22 -307 -40 -20 -94 -27 -53 13 rlinecurve
          -27 7 -15 37 8 32 rrcurveto
          1 0 0 -1 -1 vhcurveto
          -44 -55 -37 -114 69 -34 77 -38 124 92 37 55 10 -125 rcurveline
          71 104 -33 502 rlineto
          endchar
        </CharString>
        <CharString name="lam-ar.medi.feh">
          98 418 576 rmoveto
          31 -389 -3 -2 -4 -2 -4 -1 rlinecurve
          -1 vlineto
          -32 -14 -42 -11 -50 -9 -50 -9 -40 -5 -30 -2 -65 -5 -77 4 -13 47 -97 callsubr
          62 -6 71 5 76 16 76 16 59 34 42 51 rrcurveto
          5 5 5 7 2 3 9 -125 rcurveline
          69 138 -40 551 rlineto
          endchar
        </CharString>
        <CharString name="lam-ar.medi.hah">
          -9 327 358 rmoveto
          28 -358 72 107 -43 581 -73 -122 9 -118 -50 -18 -59 -27 -67 -39 rlinecurve
          -67 -39 -48 -74 -29 -109 23 -5 rcurveline
          71 99 111 81 122 41 rrcurveto
          endchar
        </CharString>
        <CharString name="lam-ar.medi.heh">
          118 -38 callsubr
          109 -41 516 rlineto
          endchar
        </CharString>
        <CharString name="lam-ar.medi.kaf">
          -59 377 109 rmoveto
          -31 455 -73 -123 rlineto
          -8 vlineto
          19 -249 -32 -17 -90 -18 -148 -20 rlinecurve
          -22 -129 95 18 64 14 34 9 rlinecurve
          34 9 34 29 35 52 10 -131 rcurveline
          endchar
        </CharString>
        <CharString name="lam-ar.medi.meem">
          -44 271 580 rmoveto
          9 -131 -3 callgsubr
          73 101 -50 600 rlineto
          endchar
        </CharString>
        <CharString name="lam-ar.medi.ragaa">
          -82 51 6 rmoveto
          18 12 23 15 29 19 55 32 67 35 36 48 4 -50 rcurveline
          69 138 -31 529 -73 -117 27 -432 rlineto
          0 0 0 -48 -23 vhcurveto
          -71 -34 -37 -13 -56 -48 -31 -27 -21 -28 -11 -28 46 -34 rcurveline
          1 1 3 4 1 1 rrcurveto
          endchar
        </CharString>
        <CharString name="lam-ar.medi.reh">
          -52 -19 callsubr
          72 108 -43 516 -74 -123 19 -213 -86 -19 -57 -13 -28 -9 rlinecurve
          -14 -5 -15 -9 -14 -11 -21 -17 -27 -39 -15 -34 77 callgsubr
          8 -14 9 vhcurveto
          endchar
        </CharString>
        <CharString name="lam-ar.medi.sad">
          210 -11 callgsubr
          106 -38 536 -74 -122 21 -271 -28 callsubr
        </CharString>
        <CharString name="lam-ar.medi.yeh">
          -44 275 537 rmoveto
          5 -88 -4 callgsubr
          103 -45 554 rlineto
          endchar
        </CharString>
        <CharString name="lamVabove-ar">
          81 260 838 -104 callsubr
          68 -172 rmoveto
          28 -443 -64 -54 -95 -40 -111 20 rlinecurve
          -107 46 88 134 31 69 9 24 -12 3 20 callsubr
          -28 146 211 rrcurveto
          49 71 30 84 85 vvcurveto
          0 -21 340 -5 78 vhcurveto
          endchar
        </CharString>
        <CharString name="madda-ar">
          172 54 -6 callgsubr
          endchar
        </CharString>
        <CharString name="meem-ar">
          141 -35 callsubr
        </CharString>
        <CharString name="meem-ar.fina">
          -14 -35 callsubr
        </CharString>
        <CharString name="meem-ar.init">
          41 -10 callgsubr
        </CharString>
        <CharString name="meem-ar.init.ain">
          198 487 176 rmoveto
          19 29 16 43 12 58 3 16 -2 15 -16 -74 callgsubr
          10 41 callsubr
          -9 -21 -10 -20 -8 -15 0 -15 8 -13 -68 -20 -105 -32 -90 16 rrcurveto
          -28 5 -17 15 -7 23 -97 callsubr
          55 -6 58 6 62 17 102 27 106 59 48 71 rrcurveto
          endchar
        </CharString>
        <CharString name="meem-ar.init.dal">
          105 446 279 rmoveto
          3 14 -95 48 -20 -26 -69 -91 rcurveline
          -13 -16 -16 -32 19 -19 -44 -13 -78 -22 -49 12 -24 6 -12 29 2 29 rrcurveto
          4 -6 1 -3 -5 vhcurveto
          -40 -58 -28 -101 65 -32 24 -12 33 4 25 6 142 31 153 106 31 137 rrcurveto
          endchar
        </CharString>
        <CharString name="meem-ar.init.feh">
          294 484 99 rmoveto
          44 29 31 29 20 29 20 29 15 42 12 58 3 17 -2 15 -16 2 -34 4 -48 9 -22 -20 -7 -7 -5 -4 -1 -3 -44 -98 rcurveline
          -8 -16 -7 -17 11 -18 -76 -21 -104 -25 -91 -3 -59 -3 -65 6 -12 43 -66 callgsubr
          60 -6 72 6 85 17 85 17 71 27 55 36 rrcurveto
          endchar
        </CharString>
        <CharString name="meem-ar.init.hah">
          150 -37 callsubr
        </CharString>
        <CharString name="meem-ar.init.heh">
          230 195 26 rmoveto
          37 45 39 33 38 20 76 40 68 31 53 62 26 31 20 49 13 66 3 17 -1 14 -17 -75 callsubr
          -9 -9 -5 -5 -1 -3 -15 -34 -15 -35 -16 -34 rrcurveto
          -8 -16 0 -15 8 -13 -98 -29 -69 50 callsubr
          5 30 rcurveline
          1 vlineto
          -54 -65 rlineto
          -1 vlineto
          -3 -38 -3 -41 2 85 callgsubr
          12 11 19 40 29 58 23 56 15 36 15 36 27 41 40 47 rrcurveto
          endchar
        </CharString>
        <CharString name="meem-ar.init.meem">
          79 241 257 rmoveto
          -5 -4 -1 -2 -2 hvcurveto
          -63 -15 -51 -24 -33 -42 -30 -39 -29 -78 -24 -54 21 -2 rcurveline
          9 22 12 20 17 18 42 43 64 21 61 23 68 26 53 42 34 62 17 33 14 39 9 45 3 17 -1 14 -17 -74 callgsubr
          9 -22 -20 -31 -29 -16 -48 -14 -43 rrcurveto
          -7 -19 1 -14 6 -10 rrcurveto
          endchar
        </CharString>
        <CharString name="meem-ar.init.ragaa">
          314 52 5 rmoveto
          52 37 53 33 52 29 47 26 43 23 40 35 57 48 27 50 18 91 4 16 -2 15 -17 -75 callsubr
          -16 -16 -11 -19 -7 -22 -7 -22 -9 -21 -11 -20 rrcurveto
          -8 -16 0 -15 8 -13 -4 -2 -4 -1 -4 -2 -42 -17 -41 -16 -38 -18 -29 -15 -23 -16 -18 -20 -20 -23 -25 -40 -13 -42 42 -29 rcurveline
          6 4 3 1 1 1 rrcurveto
          endchar
        </CharString>
        <CharString name="meem-ar.init.reh">
          84 283 128 rmoveto
          40 20 30 23 20 24 37 45 7 11 15 73 5 25 -13 14 -31 1 -31 1 -22 -2 -12 -4 rrcurveto
          -18 -16 -18 -37 -17 hvcurveto
          -17 -37 -12 -29 -9 -19 -31 -11 -27 -8 -21 -6 -30 -9 -67 -23 -17 -27 -15 -24 -4 -29 -13 -27 -93 callsubr
          1 1 rcurveline
          60 55 111 20 77 39 rrcurveto
          endchar
        </CharString>
        <CharString name="meem-ar.init.sad">
          357 271 13 rmoveto
          140 23 143 48 82 76 50 45 17 46 17 82 3 17 -2 14 -16 -75 callsubr
          -7 -7 -5 -5 -1 -2 -44 -99 rcurveline
          -8 -16 -6 -18 10 -17 -58 -16 -59 -17 -61 -12 -88 -18 -143 -22 -39 70 -19 32 7 49 33 65 -62 callsubr
          -4 -25 -35 -37 -65 -19 -48 -15 -41 -17 -56 21 -42 rrcurveto
          12 -23 23 -14 34 -5 50 -7 63 4 76 13 rrcurveto
          endchar
        </CharString>
        <CharString name="meem-ar.init.yeh">
          60 223 227 rmoveto
          -2 -1 -6 -2 -3 -1 -73 -18 -48 -25 -22 -33 -22 -33 -23 -44 -24 -57 18 -13 rcurveline
          1 hlineto
          23 36 30 26 37 14 37 14 39 16 38 17 38 17 36 25 33 34 33 34 25 54 15 76 3 17 -1 14 -17 2 -18 2 -19 2 -20 2 -32 3 -24 -16 -8 -20 rrcurveto
          -15 -33 -14 -34 -15 -32 -8 -16 0 -14 8 -13 rrcurveto
          endchar
        </CharString>
        <CharString name="meem-ar.medi">
          41 -10 callgsubr
        </CharString>
        <CharString name="meem-ar.medi.ain">
          36 239 21 rmoveto
          89 26 92 36 46 56 37 46 7 9 15 74 5 25 -13 14 -31 1 -31 1 -22 -102 callgsubr
          -16 -19 -37 -17 hvcurveto
          -17 -37 -12 -28 -9 -19 -31 -9 rcurveline
          -67 -18 -172 -41 -23 80 -13 -35 -13 -43 -13 -50 1 -29 27 -14 28 -3 59 -5 61 6 63 18 rrcurveto
          endchar
        </CharString>
        <CharString name="meem-ar.medi.dal">
          -4 35 9 rmoveto
          53 -29 150 43 95 48 40 20 40 26 27 34 28 34 9 33 10 49 5 25 -13 13 -31 1 -31 1 -9 0 -25 -4 -14 -2 -5 -5 -10 -14 -24 -33 -18 -48 -18 -39 rrcurveto
          -58 -29 -103 -14 -46 14 -23 7 -13 30 4 30 1 8 -3 0 -6 -8 -8 -10 -88 -135 84 -46 rrcurveto
          endchar
        </CharString>
        <CharString name="meem-ar.medi.feh">
          131 178 4 rmoveto
          102 10 106 30 78 38 44 21 33 23 21 26 37 46 6 11 15 74 5 25 -13 14 -31 1 -31 1 -21 -2 -12 -4 rrcurveto
          -18 -17 -18 -38 -16 hvcurveto
          -16 -38 -13 -28 -9 -19 -74 -21 -89 -24 -90 -2 -59 -3 -65 6 -12 43 -66 callgsubr
          36 -3 40 1 46 4 rrcurveto
          endchar
        </CharString>
        <CharString name="meem-ar.medi.hah">
          -6 -37 callsubr
        </CharString>
        <CharString name="meem-ar.medi.heh">
          67 348 142 rmoveto
          1 vlineto
          61 24 56 30 32 38 37 46 7 10 15 74 5 25 -13 13 -31 1 -31 1 -22 -102 callgsubr
          -17 -18 -37 -16 hvcurveto
          -16 -37 -13 -29 -9 -19 -27 -8 -31 -17 -21 -14 -116 -76 -50 -138 -64 -128 4 30 rcurveline
          -89 callgsubr
          59 71 20 13 76 32 rrcurveto
          endchar
        </CharString>
        <CharString name="meem-ar.medi.meem">
          -35 188 121 rmoveto
          75 25 91 37 41 50 37 45 7 12 0 callsubr
          -37 -17 hvcurveto
          -17 -37 -12 -29 -9 -19 -38 -11 -16 -6 -37 -13 -36 -13 -29 -21 -22 -29 -16 -20 -13 -23 -12 -26 87 callgsubr
          9 21 13 18 18 18 32 31 42 18 53 15 rrcurveto
          endchar
        </CharString>
        <CharString name="meem-ar.medi.ragaa">
          -52 52 7 rmoveto
          52 36 52 33 53 29 47 25 43 25 40 35 57 47 28 50 18 91 4 17 -2 15 -17 -74 callgsubr
          9 41 callsubr
          -8 -20 -11 -20 rrcurveto
          -8 -16 0 -14 8 -13 -44 -21 -48 -15 -42 -20 -29 -15 -22 -17 -18 -19 -21 -23 -24 -39 -14 -43 42 -30 rcurveline
          1 hlineto
          4 3 3 -86 callsubr
        </CharString>
        <CharString name="meem-ar.medi.reh">
          -69 420 342 rmoveto
          5 25 -13 14 -31 1 -31 1 -21 -102 callgsubr
          -18 -24 -48 -17 hvcurveto
          -17 -48 -13 -33 -9 -20 -37 -13 -42 -12 -33 -15 -39 -18 -32 -48 -19 -44 22 callsubr
          12 17 21 20 27 16 33 11 32 7 32 9 30 12 105 41 72 92 24 121 rrcurveto
          endchar
        </CharString>
        <CharString name="meem-ar.medi.sad">
          216 79 3 rmoveto
          96 -12 148 27 87 26 86 23 104 41 46 56 37 46 7 9 15 74 5 25 -13 14 -31 1 -31 1 -22 -102 callgsubr
          -17 -19 -37 -16 hvcurveto
          -16 -37 -13 -28 -9 -19 -44 -13 -50 -13 -46 -9 -49 -11 -45 -6 -40 -2 -66 -4 -61 9 -23 41 -19 32 8 49 33 65 -62 callsubr
          -4 -25 -35 -37 -65 -19 -48 rrcurveto
          -15 -41 -17 -56 21 -42 12 -23 23 -14 34 -5 rrcurveto
          endchar
        </CharString>
        <CharString name="meem-ar.medi.yeh">
          -95 237 131 rmoveto
          45 22 32 25 20 24 37 45 8 13 0 callsubr
          -38 -17 hvcurveto
          -17 -38 -12 -29 -9 -19 -8 -2 -11 -5 -15 -7 -22 -10 -34 -17 -17 -14 -46 -38 -22 -60 -26 -60 18 -13 rcurveline
          1 hlineto
          13 21 19 19 23 16 46 31 65 18 52 26 rrcurveto
          endchar
        </CharString>
        <CharString name="nine-ar">
          -47 293 134 rmoveto
          -3 5 -34 111 3 112 -5 144 rlinecurve
          -1 32 -16 27 -26 14 -26 14 -29 -15 -14 -15 -39 -42 -136 -221 91 -41 54 -25 54 37 24 35 1 -125 16 -83 29 -100 rrcurveto
          -142 395 rmoveto
          -6 5 -2 8 4 7 11 21 11 26 33 -5 19 -3 14 -25 5 -16 rrcurveto
          -2 7 -12 -1 -2 hvcurveto
          -23 -16 -46 -7 -23 18 rrcurveto
          endchar
        </CharString>
        <CharString name="nine-ar.dnom">
          -99 225 94 -34 callsubr
        </CharString>
        <CharString name="nine-ar.numr">
          -99 225 363 -34 callsubr
        </CharString>
        <CharString name="noon-ar">
          99 -48 callsubr
        </CharString>
        <CharString name="noon-ar.fina">
          64 -48 callsubr
        </CharString>
        <CharString name="noon-ar.fina.tail">
          173 550 226 rmoveto
          47 123 -54 -6 -18 14 -16 30 -27 -5 rlinecurve
          -52 -10 -26 -44 -27 -37 -41 -56 -34 -63 -56 -42 -31 -2 -12 23 -7 21 -25 77 41 197 -133 -150 -46 -52 -24 -72 -9 -88 16 30 13 32 20 26 69 89 20 -52 9 -79 rrcurveto
          6 -47 3 -48 29 -25 15 -13 22 -3 15 15 46 45 28 62 35 55 97 153 -6 -112 58 2 rrcurveto
          endchar
        </CharString>
        <CharString name="noon-ar.tail">
          173 461 225 rmoveto
          8 -12 13 19 20 50 20 50 5 30 -10 10 -30 29 -49 -33 -18 -21 -15 -18 -14 -18 -13 -19 -41 -56 -36 -63 -55 -42 -16 -1 -11 5 -7 9 -19 25 -6 31 -1 46 rrcurveto
          -1 42 -1 62 -34 2 -14 1 -23 -19 -33 -37 -44 -49 -27 -71 -9 -92 8 15 8 16 7 15 18 37 58 74 22 -27 13 -16 9 -28 5 -40 5 -47 4 -49 29 -24 rrcurveto
          18 -16 17 0 16 15 23 22 20 26 16 29 24 44 52 91 31 21 28 19 16 -15 14 -22 rrcurveto
          endchar
        </CharString>
        <CharString name="noonThreedotsabove-ar">
          99 371 650 -107 callgsubr
          -22 -525 -90 callgsubr
        </CharString>
        <CharString name="noonghunna-ar">
          99 349 125 -90 callgsubr
        </CharString>
        <CharString name="noonghunna-ar.fina">
          99 349 125 -90 callgsubr
        </CharString>
        <CharString name="noonghunna-ar.jalt">
          514 -13 callgsubr
          102 -12 106 27 78 31 88 35 92 59 39 80 rrcurveto
          30 62 7 56 -16 49 rrcurveto
          -24 74 0 0 0 vvcurveto
          -77 -113 10 -28 23 -61 -2 -33 rlinecurve
          0 0 1 -73 -32 vhcurveto
          -49 -21 -42 -15 -36 -8 rrcurveto
          endchar
        </CharString>
        <CharString name="noonghunnaabove-ar">
          3 -72 rmoveto
          9 -1 9 3 9 6 26 16 12 26 14 32 3 7 -2 5 -5 -7 -7 -8 -8 -6 -9 -3 -9 -4 -11 0 -9 1 rrcurveto
          -9 -9 3 7 -8 hvcurveto
          -8 5 -6 7 -4 10 -4 9 0 12 3 13 3 12 8 14 12 17 rrcurveto
          3 vlineto
          1 -1 0 -1 -3 -4 -3 -8 -6 vhcurveto
          -15 -21 -9 -22 -10 -32 -4 -16 -1 -14 1 -12 2 -33 17 -16 34 -3 rrcurveto
          endchar
        </CharString>
        <CharString name="oe-ar">
          127 414 623 -104 callsubr
          -184 -615 -97 callgsubr
        </CharString>
        <CharString name="one-ar">
          -176 108 14 rmoveto
          33 69 26 89 -11 109 rrcurveto
          4 -2 12 4 vvcurveto
          -13 108 -30 91 -34 85 -19 -46 -18 -50 -15 -44 54 -117 34 -155 -21 -173 8 -3 5 11 3 6 rrcurveto
          endchar
        </CharString>
        <CharString name="one-ar.dnom">
          -99 144 10 rmoveto
          23 48 18 62 -8 77 rrcurveto
          3 -1 8 3 vvcurveto
          -9 75 -21 64 -24 60 -13 -33 -13 -35 -10 -30 37 -82 24 -109 -15 -121 6 -2 4 8 2 4 rrcurveto
          endchar
        </CharString>
        <CharString name="one-ar.numr">
          -99 144 279 rmoveto
          23 48 18 62 -8 77 rrcurveto
          3 -1 8 3 vvcurveto
          -9 75 -21 64 -24 60 -13 -33 -13 -35 -10 -30 37 -82 24 -109 -15 -121 6 -2 4 8 2 4 rrcurveto
          endchar
        </CharString>
        <CharString name="opendammatan-ar">
          104 41 rmoveto
          6 17 2 14 10 vvcurveto
          5 vlineto
          15 -2 -4 10 -14 hhcurveto
          -23 -28 -33 -23 -22 20 -10 15 -8 hvcurveto
          14 callsubr
          -3 -2 -1 vvcurveto
          18 2 16 6 14 5 41 14 26 20 24 32 5 -3 5 -1 4 -5 rrcurveto
          6 9 4 7 11 vvcurveto
          1 vlineto
          -1 6 -4 4 -4 3 rrcurveto
          -85 hmoveto
          6 17 2 14 10 vvcurveto
          17 -6 13 -14 -24 -28 -33 -23 -22 20 -10 15 -8 vhcurveto
          14 callsubr
          -2 -2 -1 vvcurveto
          6 1 60 17 40 17 32 44 rlinecurve
          6 -3 3 -1 5 -5 rrcurveto
          5 9 6 7 11 vvcurveto
          1 vlineto
          -1 6 -4 4 -4 3 rrcurveto
          59 41 rmoveto
          1 hlineto
          8 5 -8 -10 -4 -1 -5 -1 -7 hvcurveto
          -9 5 -10 4 -7 7 rrcurveto
          -1 2 0 1 2 vvcurveto
          7 9 5 6 1 vhcurveto
          -86 hmoveto
          2 hlineto
          9 4 -9 -10 -4 -1 -5 -1 -6 hvcurveto
          -8 4 -19 7 11 vvcurveto
          7 8 4 6 1 vhcurveto
          endchar
        </CharString>
        <CharString name="parenleft-ar">
          121 244 33 rmoveto
          -16 -15 5 9 -15 hvcurveto
          9 -15 -10 5 -6 hhcurveto
          -7 -7 -1 -4 -4 hvcurveto
          5 -9 rlineto
          1 2 2 1 2 hhcurveto
          13 8 -13 -11 7 hvcurveto
          -27 17 24 -24 25 hhcurveto
          23 16 11 23 9 hvcurveto
          2 -1 rlineto
          -7 -15 -3 -16 -16 vvcurveto
          -26 17 -30 34 -34 vhcurveto
          7 -7 10 -9 12 -11 27 -25 rcurveline
          12 -11 8 -10 4 -8 rrcurveto
          -12 -3 -6 -6 -10 vvcurveto
          -12 7 -7 13 13 6 7 13 9 -6 12 -11 17 vhcurveto
          -17 23 -11 19 -7 13 rrcurveto
          -30 56 -16 67 77 vvcurveto
          76 -23 44 -47 11 vhcurveto
          1 vlineto
          47 11 23 44 76 vvcurveto
          77 16 68 30 56 vhcurveto
          7 13 11 19 17 23 rrcurveto
          11 17 6 12 9 vvcurveto
          13 -6 6 -13 -13 -7 -6 -12 -10 6 -6 12 -3 vhcurveto
          -4 -8 -8 -10 -12 -11 -27 -26 rcurveline
          -12 -11 -10 -9 -7 -7 rrcurveto
          -34 -34 -17 -30 -26 vvcurveto
          -16 3 -15 7 -15 vhcurveto
          -2 -2 rlineto
          23 -9 -16 12 -23 hhcurveto
          -20 -19 -13 -25 -18 hvcurveto
          -11 -9 -10 -26 -18 hhcurveto
          -2 -2 0 1 -2 hvcurveto
          -5 -8 rlineto
          -4 4 7 -1 7 hhcurveto
          6 10 5 9 15 hvcurveto
          9 15 15 5 16 hhcurveto
          45 33 -30 -45 -26 -10 -23 -21 -19 hvcurveto
          -4 2 rlineto
          3 4 2 5 6 vvcurveto
          16 -11 11 -21 6 vhcurveto
          -26 7 -14 16 22 vvcurveto
          8 2 8 3 9 vhcurveto
          -8 4 rlineto
          -30 -28 -15 -30 -34 vvcurveto
          9 -9 -10 5 -12 hhcurveto
          -32 -20 -22 -25 -21 hvcurveto
          -10 -11 -9 -8 -10 -5 4 -10 rcurveline
          2 3 6 1 7 hhcurveto
          6 6 -4 -7 6 hvcurveto
          13 -14 6 -7 0 vvcurveto
          -13 14 15 -7 16 hhcurveto
          14 10 4 8 7 hvcurveto
          -34 15 -31 30 -28 vhcurveto
          8 4 rlineto
          -3 9 -2 9 8 vvcurveto
          22 14 15 26 7 vhcurveto
          21 6 11 12 16 vvcurveto
          6 -2 5 -3 4 vhcurveto
          4 1 rlineto
          21 -19 10 -22 -26 vvcurveto
          -45 -33 -30 -45 vhcurveto
          -29 164 rmoveto
          -2 vlineto
          -15 -8 -10 -10 -6 -12 rrcurveto
          -24 5 -12 10 16 vvcurveto
          16 12 10 24 5 vhcurveto
          6 -12 10 -10 15 -8 rrcurveto
          endchar
        </CharString>
        <CharString name="parenright-ar">
          121 241 359 rmoveto
          16 16 -5 -9 15 hvcurveto
          -9 15 10 -5 6 hhcurveto
          7 6 1 4 4 hvcurveto
          -4 8 rlineto
          -1 -2 -2 0 -2 hhcurveto
          -13 -9 13 11 -7 hvcurveto
          27 -17 -24 24 -25 hhcurveto
          -23 -16 -12 -23 -9 hvcurveto
          -2 2 rlineto
          7 15 3 15 16 vvcurveto
          26 -17 30 -34 34 vhcurveto
          -7 7 -9 9 -12 11 -28 26 rcurveline
          -12 11 -7 10 -4 8 rrcurveto
          12 3 5 6 10 vvcurveto
          12 -6 6 -13 -13 -7 -6 -13 -9 6 -12 11 -17 vhcurveto
          17 -23 12 -19 7 -13 rrcurveto
          30 -56 15 -68 -77 vvcurveto
          -76 24 -44 47 -11 vhcurveto
          -1 vlineto
          -47 -11 -24 -44 -76 vvcurveto
          -77 -15 -67 -30 -56 vhcurveto
          -7 -13 -12 -19 -17 -23 rrcurveto
          -11 -17 -6 -12 -9 vvcurveto
          -13 7 -7 13 13 6 7 12 10 -5 6 -12 3 vhcurveto
          4 8 7 10 12 11 28 25 rcurveline
          12 11 9 9 7 7 rrcurveto
          34 34 17 30 26 vvcurveto
          16 -3 16 -7 15 vhcurveto
          2 1 rlineto
          -23 9 16 -11 23 hhcurveto
          20 19 12 25 18 hvcurveto
          11 9 11 27 18 hhcurveto
          2 2 -1 -1 2 hvcurveto
          4 9 rlineto
          4 -4 -6 1 -7 hhcurveto
          -6 -10 -5 -9 -15 hvcurveto
          -9 -15 -16 -5 -16 hhcurveto
          -45 -32 30 45 26 10 22 21 19 hvcurveto
          4 -1 rlineto
          -3 -4 -2 -5 -6 vvcurveto
          -16 11 -12 21 -6 vhcurveto
          26 -7 13 -15 -22 vvcurveto
          -8 -1 -9 -3 -9 vhcurveto
          8 -4 rlineto
          30 28 14 31 34 vvcurveto
          -9 9 11 -6 12 hhcurveto
          32 18 22 25 22 hvcurveto
          9 11 10 8 10 5 -4 10 rcurveline
          -2 -3 -5 0 -7 hhcurveto
          -6 -7 4 7 -6 hvcurveto
          -18 20 rlineto
          14 -14 -15 7 -16 hhcurveto
          -14 -11 -4 -8 -7 hvcurveto
          34 -14 30 -30 28 vhcurveto
          -8 -4 rlineto
          3 -9 1 -8 -8 vvcurveto
          -22 -13 -16 -26 -7 vhcurveto
          -21 -6 -11 -11 -16 vvcurveto
          -6 2 -5 3 -4 vhcurveto
          -4 -2 rlineto
          -21 19 -10 23 26 vvcurveto
          45 32 30 45 vhcurveto
          30 -164 rmoveto
          2 vlineto
          15 8 10 10 6 12 rrcurveto
          24 -5 11 -10 -16 vvcurveto
          -16 -11 -10 -24 -5 vhcurveto
          -6 12 -10 10 -15 8 rrcurveto
          endchar
        </CharString>
        <CharString name="peh-ar">
          437 -81 callsubr
          -241 -567 -107 callgsubr
          endchar
        </CharString>
        <CharString name="percent-ar">
          76 24 429 rmoveto
          83 -50 68 115 -83 48 rlineto
          -30 -604 rmoveto
          70 32 264 544 -71 -34 rlineto
          -59 -470 rmoveto
          83 -51 68 115 -83 49 rlineto
          endchar
        </CharString>
        <CharString name="qaf-ar">
          270 -5 callsubr
          -19 -46 -59 callsubr
          -34 19 -9 32 -16 37 15 21 18 7 6 3 -11 1 -3 7 -21 1 -61 -1 -25 rrcurveto
          -73 -67 -232 -102 -15 166 -5 52 18 62 2 45 rrcurveto
          8 -10 8 -8 -1 vhcurveto
          -60 -9 -42 -27 -37 -34 -19 -47 -16 -48 -16 -49 32 43 46 33 64 10 rrcurveto
          11 2 2 -18 -9 vvcurveto
          1 -20 -3 -18 -3 -18 -48 -252 273 11 119 172 rrcurveto
          endchar
        </CharString>
        <CharString name="qaf-ar.fina">
          270 -5 callsubr
          -14 -44 -59 callsubr
          -29 22 -15 25 -17 45 6 16 4 12 -17 3 -50 -1 -25 -73 -67 -232 -102 -15 166 rrcurveto
          -5 52 18 62 2 45 rrcurveto
          8 -10 8 -8 -1 vhcurveto
          -60 -9 -42 -27 -37 -34 -19 -47 -16 -48 -16 -49 32 43 46 33 64 10 rrcurveto
          11 2 2 -18 -9 vvcurveto
          1 -20 -3 -18 -3 -18 -48 -252 273 11 119 172 rrcurveto
          endchar
        </CharString>
        <CharString name="qafDotless-ar">
          124 -24 callgsubr
        </CharString>
        <CharString name="qafDotless-ar.fina">
          124 -24 callgsubr
        </CharString>
        <CharString name="qafDotless-ar.fina.jalt">
          485 -35 callgsubr
        </CharString>
        <CharString name="qafDotless-ar.jalt">
          485 -35 callgsubr
        </CharString>
        <CharString name="question-ar">
          -19 320 755 rmoveto
          -6 5 1 5 -2 3 -16 28 -25 25 -40 3 -140 9 -72 -182 19 -107 19 -45 30 -35 34 -31 53 -48 47 -87 -31 -101 -2 -7 10 1 2 4 28 54 32 53 3 78 rrcurveto
          -9 84 -44 52 -46 47 -30 31 -36 30 -10 50 22 17 29 9 33 -1 45 -2 34 -28 3 -44 1 -13 18 9 4 8 18 40 12 43 12 43 rrcurveto
          -214 -670 -21 callsubr
        </CharString>
        <CharString name="quotedblbase">
          80 -29 callsubr
          173 hmoveto
          -59 -61 rlineto
          -20 vlineto
          42 -14 21 -26 -86 callgsubr
          23 20 -57 callsubr
          37 -87 callgsubr
          endchar
        </CharString>
        <CharString name="quotedblleft">
          80 -8 callgsubr
          172 hmoveto
          58 61 rlineto
          21 vlineto
          -42 14 -21 25 39 vvcurveto
          5 48 14 47 callgsubr
          -12 -38 -35 vvcurveto
          -28 8 -25 14 -21 vhcurveto
          -21 14 15 -11 14 hhcurveto
          endchar
        </CharString>
        <CharString name="quotedblright">
          80 -7 callgsubr
          173 hmoveto
          -59 -61 rlineto
          -21 vlineto
          42 -14 21 -25 -86 callgsubr
          23 19 -57 callsubr
          38 -87 callgsubr
          endchar
        </CharString>
        <CharString name="quoteleft">
          -93 -8 callgsubr
          endchar
        </CharString>
        <CharString name="quoteright">
          -93 -7 callgsubr
          endchar
        </CharString>
        <CharString name="quotesinglbase">
          -93 -29 callsubr
          endchar
        </CharString>
        <CharString name="reh-ar">
          105 -27 callsubr
          endchar
        </CharString>
        <CharString name="reh-ar.fina">
          46 375 139 rmoveto
          15 8 3 31 -20 3 -7 1 -5 -3 -5 -6 rrcurveto
          1 vlineto
          -13 -15 -15 -9 -18 -5 -96 -25 -110 -12 -90 -32 -9 -4 -3 -4 6 -5 8 -7 26 -10 44 -13 44 -13 27 -9 11 -2 85 -17 43 18 31 59 13 26 14 26 21 18 rrcurveto
          endchar
        </CharString>
        <CharString name="rehVbelow-ar">
          105 -27 callsubr
          -197 -506 -104 callsubr
          endchar
        </CharString>
        <CharString name="rnoon-ar">
          99 198 719 -98 callgsubr
          59 -490 -90 callgsubr
        </CharString>
        <CharString name="rreh-ar">
          105 334 600 -98 callgsubr
          22 -224 -70 callgsubr
        </CharString>
        <CharString name="sad-ar">
          517 349 126 -25 callgsubr
        </CharString>
        <CharString name="sad-ar.fina">
          199 550 416 rmoveto
          -5 -1 -13 -2 -22 -4 -22 -4 -18 0 -16 4 -14 3 -9 9 -6 16 -6 16 -9 22 -13 28 -54 -125 rcurveline
          13 -44 13 -44 -1 -57 -32 -29 -40 -24 -48 -19 -48 -19 -54 -4 -59 11 -45 19 -15 36 15 60 11 44 30 53 16 36 8 23 -12 5 -8 -16 -64 -116 -29 -90 6 -64 rrcurveto
          6 -64 22 -42 40 -19 40 -19 47 0 56 21 56 21 46 36 37 53 35 51 23 54 12 58 76 11 76 14 74 17 74 17 63 44 52 70 17 22 16 25 14 28 rrcurveto
          14 28 -2 -60 callsubr
          -25 7 -31 -6 -31 -6 -23 -10 -16 -14 -45 -45 -64 -68 -44 -48 -17 -19 -9 -10 -1 -1 rrcurveto
          235 88 34 callgsubr
          38 47 26 29 16 39 -15 11 -20 rrcurveto
          endchar
        </CharString>
        <CharString name="sad-ar.fina.jalt">
          735 293 8 callgsubr
          74 11 75 16 75 23 75 23 62 46 51 68 17 22 16 25 14 28 rrcurveto
          14 28 -3 26 -103 callsubr
          -23 -10 -16 -14 -45 -45 -64 -68 -44 -48 -17 -19 -10 -10 -1 -1 -31 -7 -82 -20 -4 46 -1 12 -2 15 -3 19 rrcurveto
          -4 19 -8 1 -11 -17 -68 -102 rcurveline
          10 -28 22 -60 -2 -33 rrcurveto
          0 0 -100 callsubr
          -27 -123 92 -100 43 -47 77 -30 109 -14 rrcurveto
          1028 469 17 callgsubr
          15 40 -15 11 -20 rrcurveto
          endchar
        </CharString>
        <CharString name="sad-ar.init">
          357 -84 callsubr
        </CharString>
        <CharString name="sad-ar.init.ain">
          414 -52 callsubr
        </CharString>
        <CharString name="sad-ar.init.dal">
          357 -26 callgsubr
        </CharString>
        <CharString name="sad-ar.init.feh">
          485 -51 callsubr
        </CharString>
        <CharString name="sad-ar.init.hah">
          469 -36 callgsubr
        </CharString>
        <CharString name="sad-ar.init.heh">
          611 -53 callsubr
        </CharString>
        <CharString name="sad-ar.init.meem">
          417 -32 callgsubr
        </CharString>
        <CharString name="sad-ar.init.qantara">
          620 -54 callsubr
        </CharString>
        <CharString name="sad-ar.init.ragaa">
          409 142 217 rmoveto
          -1 hlineto
          1 -1 -41 -29 -18 -18 -36 -54 rlinecurve
          20 callgsubr
          -3 rlineto
          1 0 2 1 hhcurveto
          28 10 20 -7 12 -25 4 -10 13 -5 22 1 61 3 75 24 49 14 40 15 37 17 34 22 60 39 39 51 34 65 14 28 -3 27 -21 25 -85 callsubr
          rrcurveto
          -31 -6 -23 -10 -16 -15 -64 -60 -60 -63 58 callgsubr
          27 -27 hhcurveto
          -57 -45 -29 -28 -34 hvcurveto
          479 105 -80 callgsubr
          -27 -69 -14 -70 -14 27 27 1 0 27 27 18 18 22 16 23 13 29 16 39 -45 callgsubr
        </CharString>
        <CharString name="sad-ar.init.reh">
          310 -37 callgsubr
        </CharString>
        <CharString name="sad-ar.init.sad">
          521 -55 callsubr
        </CharString>
        <CharString name="sad-ar.init.yeh">
          383 -30 callgsubr
        </CharString>
        <CharString name="sad-ar.jalt">
          1026 -16 callsubr
          59 17 62 21 67 28 99 42 58 61 46 89 14 28 -3 26 -21 25 rrcurveto
          -85 callsubr
          -61 -11 -5 -15 -39 -40 -36 -37 -47 -50 -34 -37 -17 -19 -10 -10 -1 -2 -29 -7 -15 5 -2 13 -2 13 -3 19 -5 26 -4 19 -7 1 -11 -17 -69 -102 rcurveline
          -102 callsubr
          rrcurveto
          0 -1 -100 callsubr
          -26 -99 callsubr
          rrcurveto
          960 465 -13 callsubr
        </CharString>
        <CharString name="sad-ar.medi">
          -33 -84 callsubr
        </CharString>
        <CharString name="sad-ar.medi.ain">
          23 -52 callsubr
        </CharString>
        <CharString name="sad-ar.medi.dal">
          -31 -26 callgsubr
        </CharString>
        <CharString name="sad-ar.medi.feh">
          91 -51 callsubr
        </CharString>
        <CharString name="sad-ar.medi.hah">
          75 -36 callgsubr
        </CharString>
        <CharString name="sad-ar.medi.heh">
          210 -53 callsubr
        </CharString>
        <CharString name="sad-ar.medi.meem">
          26 -32 callgsubr
        </CharString>
        <CharString name="sad-ar.medi.postsad">
          -33 -84 callsubr
        </CharString>
        <CharString name="sad-ar.medi.qantara">
          277 -54 callsubr
        </CharString>
        <CharString name="sad-ar.medi.ragaa">
          21 251 121 rmoveto
          4 -10 13 -5 22 1 60 3 77 21 47 16 40 15 37 18 34 22 61 39 38 51 34 65 12 callgsubr
          -64 58 callgsubr
          28 -27 hhcurveto
          -56 -1 -45 -28 -35 -28 rrcurveto
          -1 hlineto
          1 -1 -9 -6 -10 -8 -11 -9 rlinecurve
          -19 -16 -22 -26 -24 -37 20 callgsubr
          -2 rlineto
          0 1 0 1 1 vhcurveto
          28 10 21 -6 12 -25 rrcurveto
          370 203 -80 callgsubr
          -28 -68 -14 -71 -14 36 37 35 39 47 26 -60 callgsubr
        </CharString>
        <CharString name="sad-ar.medi.reh">
          -75 -37 callgsubr
        </CharString>
        <CharString name="sad-ar.medi.sad">
          112 -55 callsubr
        </CharString>
        <CharString name="sad-ar.medi.yeh">
          -7 -30 callgsubr
        </CharString>
        <CharString name="seen-ar">
          569 426 289 rmoveto
          41 14 106 30 126 23 97 44 rlinecurve
          -7 -20 -12 -18 -6 -20 -3 -9 -4 -13 8 -6 8 -6 10 5 4 8 35 75 32 79 27 82 1 3 -5 3 -2 -3 -13 -22 -26 -12 -26 -11 -105 -42 -125 -24 -123 -26 rrcurveto
          -42 -9 -2 42 -23 47 -53 -132 rcurveline
          15 -47 10 -41 -1 -50 -64 -59 -99 -46 -118 21 -107 46 88 134 31 69 9 24 -13 3 20 callsubr
          -28 146 211 42 61 10 35 25 67 rrcurveto
          endchar
        </CharString>
        <CharString name="seen-ar.fina">
          143 606 361 rmoveto
          33 43 11 65 7 67 rrcurveto
          2 -3 0 -1 -7 vhcurveto
          -11 -44 -33 -29 -49 -9 4 16 3 20 -1 17 rrcurveto
          8 -2 -4 -2 -3 vhcurveto
          -8 -14 -5 -20 -13 -10 -118 -74 11 54 -31 65 -53 -132 rcurveline
          15 -47 10 -41 -1 -50 4 callgsubr
          42 61 10 36 25 67 49 16 14 9 8 5 rrcurveto
          2 -8 5 1 5 1 40 10 35 10 21 27 rrcurveto
          endchar
        </CharString>
        <CharString name="seen-ar.fina.jalt">
          678 961 248 rmoveto
          18 6 18 8 19 9 rrcurveto
          5 9 5 2 2 hhcurveto
          -5 1 3 -2 33 callsubr
          65 7 68 -2 7 -2 -2 -1 -10 -12 -46 -30 -27 -50 -9 5 19 2 17 -1 17 rrcurveto
          6 -2 1 -3 -6 vhcurveto
          -8 -14 -5 -20 -12 -10 -20 -15 -31 -17 -33 -2 rrcurveto
          -1 vlineto
          -17 1 -9 9 -1 17 -1 17 -1 15 -2 12 -4 19 -7 1 -11 -17 -69 -102 rcurveline
          -102 callsubr
          rrcurveto
          0 -1 -100 callsubr
          -26 -99 callsubr
          49 -6 57 -2 65 3 143 6 130 36 97 58 53 32 39 42 25 51 rrcurveto
          5 11 2 6 1 3 6 1 rcurveline
          endchar
        </CharString>
        <CharString name="seen-ar.init">
          321 652 304 rmoveto
          1 2 -5 4 -2 -2 -14 -22 -25 -14 -26 -10 -41 -16 -55 -16 -70 -15 -137 -30 -116 -25 -141 -25 -21 -135 rcurveline
          231 50 106 30 130 25 94 42 rlinecurve
          -4 -10 -5 -10 -5 -9 -4 -8 -20 25 callgsubr
        </CharString>
        <CharString name="seen-ar.init.ain">
          361 690 274 rmoveto
          1 2 -5 4 -2 -2 -14 -22 -25 -14 -26 -10 -19 -7 -38 -12 -60 -18 -102 -30 -143 -35 -124 1 rrcurveto
          -55 -31 15 29 -8 hvcurveto
          -13 -34 -13 -42 -13 -51 -79 callgsubr
          30 -3 38 2 48 6 48 6 49 9 52 11 93 20 111 32 74 33 -8 -19 -11 -19 -6 -20 -6 -14 0 -9 6 -4 rrcurveto
          9 -7 7 2 6 12 37 79 32 78 25 78 rrcurveto
          endchar
        </CharString>
        <CharString name="seen-ar.init.dal">
          332 682 286 rmoveto
          1 4 -2 3 -3 -2 -9 -8 -7 -12 -11 -6 -104 -60 -355 -99 -106 27 -26 7 -13 34 5 31 rrcurveto
          2 -2 1 -2 -3 vhcurveto
          -42 -56 -33 -110 67 -33 58 -28 282 60 212 93 -26 -59 rcurveline
          -11 -25 24 -16 10 20 39 81 45 114 9 40 rrcurveto
          endchar
        </CharString>
        <CharString name="seen-ar.init.feh">
          475 799 302 rmoveto
          -61 callgsubr
          -14 -6 -42 -14 -70 -21 -124 -38 -177 -43 -147 -6 -68 -3 -38 14 -9 31 -13 -34 -13 -42 -13 -51 -79 callgsubr
          36 -4 49 4 61 9 rrcurveto
          61 9 62 13 65 15 103 25 135 38 80 35 -4 -10 -5 -10 -5 -9 -5 -8 -19 25 callgsubr
        </CharString>
        <CharString name="seen-ar.init.hah">
          385 713 425 rmoveto
          1 2 -6 4 -2 -2 -14 -22 -24 -14 -26 -10 -25 -10 -36 -11 -44 -11 -83 -21 -98 -24 -82 -20 -39 -10 -27 -8 -15 -7 -32 -15 -28 -19 -24 -30 -26 -33 -22 -37 -19 -40 rrcurveto
          -19 -40 -10 -28 -3 -14 rrcurveto
          -6 8 0 3 3 vhcurveto
          10 16 12 15 14 15 35 38 27 29 56 15 33 9 37 9 39 10 44 11 60 18 76 22 76 22 57 20 37 17 -62 -140 rcurveline
          22 18 28 62 69 149 22 68 rlinecurve
          endchar
        </CharString>
        <CharString name="seen-ar.init.heh">
          525 847 435 rmoveto
          1 -5 5 -2 -3 vhcurveto
          -14 -22 -24 -13 -26 -10 -63 -25 -57 -17 -51 -9 -109 -19 -85 -20 -81 -51 -42 -27 -45 -42 -47 -61 -105 callgsubr
          17 21 18 19 18 19 67 69 61 30 138 24 95 17 81 23 67 30 -4 -10 -4 -10 -5 -9 rrcurveto
          -4 -8 -20 -41 12 -8 9 -7 8 3 6 12 38 81 32 78 24 76 rrcurveto
          endchar
        </CharString>
        <CharString name="seen-ar.init.meem">
          226 -31 callgsubr
        </CharString>
        <CharString name="seen-ar.init.ragaa">
          314 -50 callsubr
        </CharString>
        <CharString name="seen-ar.init.reh">
          342 181 190 rmoveto
          -6 -1 -5 -1 -6 -1 -61 -9 -40 41 callgsubr
          -15 9 -13 9 -13 10 2 11 17 20 20 26 12 23 4 26 5 44 8 34 11 131 27 163 43 104 46 -4 -10 -4 -10 -5 -9 -5 -8 -20 -40 13 -9 rrcurveto
          9 -7 8 3 6 12 35 75 32 78 27 82 rrcurveto
          -61 callgsubr
          -59 -24 -167 -47 -87 -18 -64 -14 -39 -8 -12 -2 rrcurveto
          endchar
        </CharString>
        <CharString name="seen-ar.init.sad">
          427 749 288 rmoveto
          -1 0 0 -1 -1 hvcurveto
          -11 -18 -22 -15 -32 -12 -114 -45 -140 -24 -131 -28 rrcurveto
          -8 -44 -38 -7 -43 hhcurveto
          -57 -39 20 53 -4 hvcurveto
          5 vlineto
          28 13 40 25 51 vhcurveto
          -20 callsubr
          -24 -103 callgsubr
          -21 -20 vvcurveto
          -55 -98 callsubr
          19 18 -1 21 hhcurveto
          34 36 4 7 39 hvcurveto
          62 12 56 11 49 12 87 23 87 23 75 34 -4 -10 -5 -10 -5 -9 rrcurveto
          -7 -13 -8 -18 -16 vvcurveto
          -8 6 -5 7 5 4 4 7 4 vhcurveto
          38 81 32 78 24 76 rrcurveto
          1 vlineto
          1 -2 3 -2 vhcurveto
          endchar
        </CharString>
        <CharString name="seen-ar.init.yeh">
          181 -45 callsubr
        </CharString>
        <CharString name="seen-ar.jalt">
          1167 -16 callsubr
          85 24 rcurveline
          53 15 56 14 59 14 59 14 53 18 49 22 -4 -10 -4 -11 -5 -9 -4 -8 -21 -39 13 -9 9 -7 8 2 91 callgsubr
          -61 callgsubr
          -102 -41 -164 -31 -118 -27 -27 -6 -14 7 -1 19 -1 19 -2 16 -3 14 -4 19 -7 1 -11 -17 -69 -102 rcurveline
          -102 callsubr
          rrcurveto
          0 -1 -100 callsubr
          -26 -99 callsubr
          rrcurveto
          endchar
        </CharString>
        <CharString name="seen-ar.medi">
          -46 201 57 rmoveto
          2 -14 19 -6 16 4 21 7 16 8 17 8 rrcurveto
          2 4 7 5 5 hhcurveto
          -4 1 3 -3 4 hhcurveto
          26 58 28 21 16 hvcurveto
          33 43 12 64 -1 callsubr
          21 -1 17 rrcurveto
          8 -3 -5 88 callgsubr
          -44 -33 -38 -2 -6 1 3 13 3 13 -2 12 -1 4 -2 16 -2 -7 -22 -69 -129 -10 -52 -8 -55 -140 rcurveline
          90 29 60 5 51 23 rrcurveto
          endchar
        </CharString>
        <CharString name="seen-ar.medi.ain">
          52 356 166 rmoveto
          4 17 2 12 -1 8 rrcurveto
          0 -4 20 -2 -6 vhcurveto
          -9 -29 -32 -23 -53 -16 -53 -16 -43 -6 -33 2 -42 2 -42 11 -9 33 -13 -34 -13 -42 -13 -51 -79 callgsubr
          82 -8 102 29 58 25 2 -16 13 -6 22 6 rrcurveto
          20 6 17 8 18 8 rrcurveto
          5 9 5 3 2 hhcurveto
          -4 1 3 -3 4 52 callgsubr
          -2 7 -1 -2 -1 -10 -12 -46 -31 -27 -50 -9 5 18 2 17 -1 18 rrcurveto
          5 -1 0 -3 -4 vhcurveto
          -8 -14 -6 -21 -12 -9 -20 -16 -31 -17 -34 -1 rrcurveto
          endchar
        </CharString>
        <CharString name="seen-ar.medi.dal">
          -31 217 33 rmoveto
          2 -14 19 -6 16 4 21 7 16 7 17 8 rrcurveto
          2 4 7 6 5 hhcurveto
          -4 1 3 -3 4 hhcurveto
          26 58 27 21 16 hvcurveto
          33 43 12 65 -1 callsubr
          20 -1 17 rrcurveto
          8 -3 -4 88 callgsubr
          -21 -16 -32 -18 -33 -1 rrcurveto
          -1 0 1 -1 hhcurveto
          3 13 3 12 -2 12 -1 4 -2 17 -2 -7 -18 -54 -158 -51 -36 60 rrcurveto
          -7 11 -3 15 19 vvcurveto
          7 1 0 -6 -7 vhcurveto
          -46 -53 -28 -110 66 -33 44 -21 95 29 39 18 rrcurveto
          endchar
        </CharString>
        <CharString name="seen-ar.medi.feh">
          171 476 179 rmoveto
          4 17 1 12 -1 8 rrcurveto
          0 -3 21 -2 -7 vhcurveto
          -11 -34 -34 -23 -58 -13 -58 -13 -44 -8 -30 -4 -46 -6 -44 -1 -40 4 -40 4 -24 14 -7 26 -13 -34 -13 -43 -13 -51 -91 callsubr
          48 -4 58 4 69 12 rrcurveto
          53 9 90 18 44 19 2 -16 13 -6 22 6 16 5 18 8 20 10 rrcurveto
          1 3 9 6 4 hhcurveto
          -4 1 2 -3 67 callgsubr
          64 7 68 rrcurveto
          3 -4 -5 -1 -3 vhcurveto
          -11 -46 -32 -27 -50 -9 5 18 3 17 -1 18 -1 6 -2 1 -2 -6 -8 -14 -5 -21 -12 -9 -20 -15 -32 -18 -34 -1 rrcurveto
          endchar
        </CharString>
</ttFont>
